<?xml version="1.0" encoding="utf-8"?>
<!-- Generator: Adobe Illustrator 27.5.0, SVG Export Plug-In . SVG Version: 6.00 Build 0)  -->
<svg version="1.1" xmlns="http://www.w3.org/2000/svg" xmlns:xlink="http://www.w3.org/1999/xlink" x="0px" y="0px"
	 viewBox="0 0 500 500" style="enable-background:new 0 0 500 500;" xml:space="preserve">
<g id="BACKGROUND">
	<rect style="fill:#FFFFFF;" width="500" height="500"/>
</g>
<g id="OBJECTS">
	<path style="fill:#4F8559;" d="M403.084,454.264c-2.646,2.412-5.391,4.366-9.265,4.191c-3.801-0.172-6.681-1.659-8.763-5.075
		c-1.063,1.097-1.864,1.996-2.741,2.814c-1.999,1.866-4.295,3.171-7.035,3.633c-4.172,0.703-7.244-0.679-9.48-4.312
		c-0.169-0.275-0.341-0.548-0.691-1.108c-0.594,0.641-1.103,1.201-1.623,1.75c-2.938,3.103-6.465,4.785-10.817,4.713
		c-3.326-0.055-5.989-1.258-7.932-3.985c-0.37-0.519-0.768-1.018-1.262-1.672c-2.357,1.815-4.297,4.149-7.275,4.758
		c-2.849,0.583-5.621,0.067-8.425-0.571c-3.073-0.699-5.205-2.481-6.69-5.167c-6.297,5.573-14.916,5.346-19.204-0.261
		c-1.48,0.971-2.896,2.067-4.457,2.888c-3.019,1.589-6.204,2.328-9.634,1.405c-2.065-0.556-3.548-1.888-4.986-3.583
		c-0.677,0.552-1.267,1.074-1.898,1.542c-4.909,3.64-10.213,4.771-16.06,2.541c-2.349-0.896-4.084-2.553-5.683-4.653
		c-3.109,2.575-6.225,4.833-10.438,4.773c-4.117-0.059-7.638-1.31-10.492-4.657c-0.54,0.595-1.002,1.108-1.469,1.617
		c-3.709,4.04-8.187,5.693-13.62,4.397c-2.132-0.508-3.896-1.58-5.217-3.35c-0.382-0.512-0.774-1.015-1.075-1.408
		c-2.503,1.565-4.821,3.171-7.289,4.495c-1.404,0.753-3.023,1.209-4.6,1.514c-3.858,0.744-7.065-0.445-9.399-3.677
		c-0.749-1.037-1.385-2.156-2.164-3.38c-0.593,0.508-1.133,0.966-1.668,1.429c-2.955,2.56-6.375,3.434-10.206,2.812
		c-3.485-0.565-5.549-2.923-7.021-5.835c-0.908-1.796-1.362-3.719-1.162-5.866c0.246-2.655,0.156-5.364-0.038-8.032
		c-0.78-10.724-0.316-21.431,0.217-32.145c0.395-7.949,0.652-15.906,0.958-23.859c0.015-0.393-0.078-0.79-0.147-1.43
		c-0.899-0.059-1.764-0.153-2.631-0.167c-14.052-0.227-28.106-0.373-42.156-0.694c-6.167-0.141-12.355-0.487-18.399-1.828
		c-6.46-1.433-10.777-5.302-12.647-11.8c-1.914-6.651-2.005-13.488-2.085-20.297c-0.156-13.241-0.042-26.485-0.119-39.728
		c-0.026-4.536-0.286-9.072-0.449-13.9c-3.111-0.117-6.168-0.175-9.222,0.093c-2.586,0.227-5.161,0.572-7.745,0.834
		c-0.806,0.082-1.626,0.125-2.432,0.073c-2.118-0.137-3.124-1.1-3.135-3.238c-0.011-2.271,0.182-4.544,0.289-6.815
		c0.716-15.215,3.452-30.15,6.151-45.1c3.364-18.628,7.285-37.137,12.258-55.392c6.343-23.28,15.503-45.462,27.12-66.625
		c6.421-11.697,14.894-21.624,25.264-29.998c6.955-5.616,13.934-11.181,21.377-16.153c11.404-7.618,23.747-13.339,36.371-18.585
		c14.487-6.02,29.502-9.957,44.987-12.225c3.532-0.517,7.074-0.973,10.617-1.414c4.876-0.607,9.701-0.014,14.563,0.434
		c6.305,0.581,12.572,1.352,18.79,2.506c11.011,2.044,22.041,4.025,32.725,7.498c9.065,2.946,17.477,7.4,26.138,11.289
		c10.079,4.525,18.156,11.552,25.718,19.362c4.98,5.143,9.869,10.346,13.859,16.324c7.285,10.915,13.447,22.392,17.893,34.783
		c4.125,11.496,7.417,23.203,9.412,35.25c1.977,11.943,3.4,23.954,4.147,36.046c0.676,10.945,1.605,21.874,2.241,32.82
		c0.358,6.159,0.422,12.338,0.489,18.509c0.17,15.597,0.129,31.198,0.427,46.792c0.381,19.98,1.056,39.954,1.512,59.933
		c0.178,7.796,0.016,15.599,0.163,23.396c0.228,12.1,0.729,24.196,0.846,36.297c0.09,9.253-0.234,18.51-0.374,27.765
		c-1.246,4.068-3.229,7.623-7.077,9.788c-5.35,3.01-10.949,2.112-15.289-2.378C403.715,454.743,403.451,454.566,403.084,454.264z
		 M418.507,268.972c-0.223-10.313-0.116-20.634-0.431-30.943c-0.208-6.814-0.879-13.615-1.383-20.419
		c-0.954-12.875-1.666-25.764-3.341-38.586c-2.026-15.517-5.34-30.681-10.615-45.44c-4.543-12.712-10.797-24.487-18.364-35.618
		c-3.675-5.407-8.199-10.067-12.716-14.742c-7.096-7.344-14.719-13.912-24.181-18.181c-9.541-4.304-18.784-9.32-28.98-11.997
		c-5.803-1.524-11.668-2.822-17.529-4.114c-9.837-2.168-19.758-3.879-29.796-4.752c-4.12-0.358-8.281-0.202-12.416-0.43
		c-5.881-0.324-11.682,0.289-17.454,1.279c-13.419,2.301-26.338,6.263-38.907,11.498c-12.474,5.196-24.698,10.866-35.728,18.739
		c-6.869,4.902-13.493,10.157-20.103,15.41c-9.395,7.465-17.028,16.476-22.849,26.979c-12.339,22.26-22.017,45.617-28.386,70.275
		c-6.055,23.441-10.618,47.201-14.474,71.094c-1.476,9.145-2.576,18.339-2.643,27.625c-0.005,0.717-0.001,1.434-0.001,2.368
		c0.787,0,1.28,0.074,1.744-0.011c5.796-1.06,11.651-0.895,17.497-0.826c2.52,0.03,3.554,1.098,3.601,3.583
		c0.124,6.576,0.251,13.153,0.311,19.73c0.117,12.754,0.125,25.509,0.312,38.261c0.075,5.108,0.388,10.203,1.653,15.223
		c1.32,5.239,4.708,8.115,9.79,8.859c5.213,0.763,10.487,1.322,15.749,1.489c12.097,0.384,24.202,0.48,36.305,0.68
		c3.087,0.051,6.176-0.015,9.26,0.091c3.353,0.115,4.49,1.283,4.726,4.59c0.029,0.405,0.038,0.812,0.029,1.218
		c-0.22,9.986-0.402,19.973-0.677,29.958c-0.244,8.85-0.622,17.692,0.08,26.546c0.262,3.307,0.228,6.655,0.069,9.972
		c-0.169,3.528,2.509,5.997,6.002,5.287c1.917-0.389,3.486-1.329,4.687-2.846c1.107-1.4,2.091-2.9,3.226-4.276
		c1.661-2.015,4.033-1.63,4.961,0.795c0.316,0.825,0.429,1.73,0.604,2.605c0.127,0.636,0.116,1.31,0.316,1.919
		c1.512,4.593,3.826,5.123,7.117,3.998c3.217-1.1,6.003-2.863,8.068-5.629c0.631-0.846,1.166-1.769,1.848-2.569
		c1.6-1.879,3.908-1.463,4.768,0.854c0.337,0.909,0.514,1.876,0.784,2.811c0.893,3.097,3.104,4.278,6.379,3.901
		c2.384-0.275,4.246-1.552,5.655-3.466c0.577-0.783,1.081-1.622,1.573-2.462c0.823-1.404,1.512-3.038,3.466-3.025
		c1.929,0.012,2.83,1.512,3.442,3.031c1.81,4.489,8.201,5.304,11.42,2.695c1.128-0.914,2.169-1.943,3.185-2.983
		c0.621-0.635,1.066-1.442,1.683-2.082c1.892-1.963,4.155-1.465,5.143,1.108c0.203,0.529,0.354,1.082,0.484,1.634
		c0.538,2.287,2.065,3.517,4.209,4.303c4.404,1.616,10.969-1.315,12.125-5.181c0.114-0.382,0.329-0.747,0.556-1.08
		c1.354-1.988,3.712-1.968,4.991,0.07c0.337,0.538,0.465,1.204,0.724,1.795c1.305,2.983,3.556,3.821,6.521,2.395
		c0.727-0.35,1.47-0.74,2.066-1.269c1.267-1.126,2.471-2.328,3.65-3.548c2.124-2.198,4.5-2.236,6.481,0.079
		c0.717,0.839,1.22,1.889,1.692,2.903c0.639,1.372,1.593,2.18,3.131,2.352c2.627,0.294,5.037-0.081,6.957-2.078
		c1.237-1.286,2.378-2.668,3.657-3.91c1.9-1.844,4.386-1.159,5.123,1.354c0.091,0.309,0.103,0.641,0.165,0.96
		c0.808,4.196,1.409,4.798,5.563,5.526c0.558,0.098,1.131,0.112,1.696,0.17c1.805,0.185,3.396-0.296,4.655-1.62
		c1.283-1.348,2.547-2.719,3.746-4.141c2.167-2.571,4.657-2.257,6.056,0.796c0.54,1.177,1.065,2.368,1.708,3.489
		c0.997,1.736,2.588,2.346,4.544,2.187c2.584-0.21,4.622-1.421,6.265-3.357c1.104-1.3,2.111-2.687,3.26-3.944
		c1.739-1.901,3.584-1.817,5.095,0.23c0.767,1.04,1.452,2.162,2.021,3.322c1.508,3.074,3.156,3.702,6.218,2.081
		c2.434-1.289,4.253-3.237,5.405-5.755c0.633-1.384,1.33-2.658,3.102-2.667c1.735-0.009,2.514,1.239,3.275,2.533
		c0.616,1.047,1.255,2.088,1.979,3.061c1.677,2.257,4.611,2.846,6.849,1.202c1.486-1.092,2.834-2.428,4.04-3.829
		c1.023-1.189,1.818-2.624,3.666-2.307c1.86,0.319,2.263,1.885,2.614,3.43c0.413,1.816,1.538,2.967,3.273,3.616
		c3.139,1.174,6.378,0.173,8.319-2.676c0.822-1.207,1.461-2.55,2.359-3.693c1.022-1.3,1.325-2.684,1.27-4.294
		c-0.34-9.984-0.684-19.968-0.92-29.955c-0.379-15.998-0.693-31.997-1.001-47.996c-0.264-13.726-0.426-27.455-0.732-41.18"/>
	<g>
		<path style="fill:#E9BCCC;" d="M143.835,266.989c0.689-1.02,1.248-1.797,1.755-2.606c3.105-4.951,6.13-9.956,9.323-14.85
			c1.95-2.988,4.16-5.806,6.24-8.709c1.019-1.422,2.27-2.081,4.124-1.971c4.778,0.285,9.568,0.372,14.354,0.546
			c0.486,0.018,0.973,0.066,1.453,0.142c2.12,0.336,2.532,0.658,2.552,2.802c0.069,7.545,0.162,15.093,0.027,22.636
			c-0.159,8.928-0.545,17.853-0.832,26.779c-0.016,0.487-0.001,0.978-0.058,1.46c-0.168,1.428-0.613,2.001-1.986,1.917
			c-3.399-0.209-6.801-0.48-10.176-0.922c-1.889-0.247-2.314-1.019-2.488-3.298c-0.352-4.614-0.673-9.23-1.056-13.841
			c-0.578-6.956-1.197-13.909-1.805-20.863c-0.041-0.47-0.136-0.935-0.287-1.938c-0.787,1.122-1.345,1.865-1.848,2.644
			c-3.392,5.25-6.755,10.52-10.167,15.758c-1.284,1.972-2.701,3.857-3.998,5.821c-0.598,0.906-1.336,1.35-2.424,1.291
			c-2.756-0.149-5.513-0.269-8.27-0.401c-1.469-0.07-2.306-1.098-3.111-2.118c-2.263-2.869-4.492-5.764-6.737-8.647
			c-0.839-1.077-1.686-2.147-2.752-3.504c-0.206,0.844-0.413,1.34-0.438,1.845c-0.252,5.026-0.428,10.056-0.719,15.08
			c-0.202,3.482-0.505,6.96-0.853,10.431c-0.171,1.709-0.638,2.233-2.272,2.289c-2.998,0.103-6.009,0.122-9.004-0.036
			c-2.202-0.116-2.529-0.474-2.621-2.683c-0.155-3.729-0.234-7.468-0.161-11.2c0.193-9.904,0.457-19.808,0.762-29.709
			c0.049-1.598,0.392-3.199,0.717-4.774c0.216-1.048,0.964-1.634,2.081-1.734c2.02-0.181,4.034-0.419,6.053-0.604
			c2.585-0.236,5.181-0.368,7.756-0.686c2.127-0.263,3.5,0.456,4.564,2.359c3.564,6.377,7.25,12.685,10.896,19.016
			C142.827,265.402,143.266,266.069,143.835,266.989z M113.483,280.657c-0.04,0.003-0.081,0.006-0.121,0.009
			c0.094,1.438,0.092,2.893,0.337,4.305c0.08,0.461,0.806,0.811,1.236,1.211c0.33-0.409,0.938-0.813,0.945-1.227
			c0.045-2.888-0.005-5.78-0.112-8.667c-0.013-0.349-0.546-0.679-0.839-1.017c-0.357,0.352-0.961,0.663-1.028,1.064
			C113.664,277.759,113.608,279.214,113.483,280.657z M171.844,280.612c0.083,0.977,0.178,2.432,0.342,3.88
			c0.097,0.855,0.465,1.76,1.47,1.476c0.49-0.138,1.11-1.076,1.072-1.608c-0.182-2.5-0.528-4.993-0.933-7.468
			c-0.062-0.378-0.74-0.656-1.133-0.98c-0.273,0.353-0.741,0.685-0.78,1.061C171.773,278.016,171.844,279.077,171.844,280.612z
			 M175.907,288.854c-0.965-0.698-1.498-1.36-2.127-1.469c-0.76-0.132-1.33,0.508-1.351,1.353c-0.022,0.914,0.454,1.705,1.365,1.605
			C174.406,290.276,174.947,289.564,175.907,288.854z M116.582,289.199c-0.88-0.571-1.335-1.097-1.826-1.133
			c-0.809-0.06-1.431,0.562-1.243,1.367c0.108,0.463,0.823,1.123,1.221,1.094C115.251,290.49,115.725,289.856,116.582,289.199z"/>
		<path style="fill:#E9BCCC;" d="M277.029,275.122c0.725-10.039,1.43-20.08,2.189-30.116c0.216-2.857,0.527-3.283,3.277-3.568
			c10.108-1.051,20.22-1.857,30.331,0.092c5.178,0.998,10.41,1.731,15.571,2.804c2.277,0.474,4.525,1.316,6.639,2.306
			c6.026,2.823,9.832,7.608,11.532,13.999c0.901,3.387,0.578,6.796-0.779,10.029c-3.813,9.088-9.997,15.707-19.75,18.392
			c-3.985,1.097-8.054,1.888-12.069,2.882c-9.744,2.411-19.68,3.389-29.668,3.739c-6.247,0.219-6.48-0.689-6.924-6.173
			c-0.385-4.761-0.08-9.577-0.08-14.369C277.208,275.134,277.119,275.128,277.029,275.122z M292.44,281.824
			c5.644-0.768,11.02-1.505,16.398-2.231c4.689-0.634,9.24-1.795,13.543-3.774c3.204-1.473,6.081-3.416,8.062-6.451
			c1.922-2.944,1.966-5.907,0.171-8.93c-1.514-2.549-3.673-4.292-6.449-5.283c-3.385-1.209-6.899-1.878-10.468-2.075
			c-6.317-0.347-12.643-0.544-18.966-0.781c-0.712-0.027-1.43,0.099-2.29,0.165C292.44,262.216,292.44,271.834,292.44,281.824z
			 M285.103,279.719c-0.199-1.837-0.328-3.624-0.623-5.382c-0.087-0.518-0.573-1.273-0.998-1.366
			c-0.804-0.177-1.048,0.628-1.07,1.291c-0.065,1.945-0.083,3.893-0.079,5.84c0.001,0.563,0.089,1.14,0.23,1.686
			c0.195,0.751,0.649,1.49,1.489,1.23c0.452-0.14,0.854-0.876,1.011-1.42C285.237,280.999,285.103,280.312,285.103,279.719z
			 M285.568,287.113c-1.025-0.677-1.571-1.259-2.217-1.407c-0.802-0.184-1.366,0.387-1.368,1.249
			c-0.003,0.977,0.672,1.523,1.53,1.434C284.076,288.331,284.584,287.751,285.568,287.113z"/>
		<path style="fill:#E9BCCC;" d="M227.782,263.591c-0.29,3.468-0.694,6.93-0.845,10.404c-0.254,5.837-0.339,11.681-0.513,17.521
			c-0.042,1.415-0.422,1.8-1.92,1.946c-3.069,0.298-6.139,0.588-9.212,0.826c-2.039,0.158-2.492-0.198-2.457-2.29
			c0.089-5.356,0.251-10.712,0.456-16.066c0.264-6.895,0.626-13.787,0.891-20.682c0.134-3.487,0.147-6.979,0.214-10.469
			c0.035-1.858,0.449-2.334,2.249-2.399c3.485-0.127,6.972-0.249,10.459-0.308c1.733-0.029,2.821,1.092,3.699,2.423
			c1.162,1.76,2.245,3.574,3.433,5.316c4.619,6.773,9.264,13.53,13.907,20.286c0.446,0.65,0.951,1.259,1.661,2.193
			c0.163-0.887,0.335-1.396,0.337-1.906c0.014-3.165-0.042-6.33-0.013-9.494c0.043-4.867,0.086-9.736,0.23-14.601
			c0.062-2.101,0.493-2.619,2.626-2.735c3.967-0.216,7.947-0.206,11.923-0.281c0.965-0.018,1.532,0.51,1.661,1.433
			c0.135,0.961,0.301,1.943,0.239,2.902c-0.25,3.885-0.573,7.765-0.885,11.646c-0.632,7.844-1.309,15.685-1.894,23.532
			c-0.193,2.584-0.159,5.184-0.228,7.777c-0.052,1.933-0.529,2.506-2.447,2.449c-2.751-0.081-5.497-0.341-8.248-0.466
			c-1.126-0.051-1.709-0.753-2.326-1.537c-5.118-6.509-10.219-13.033-15.402-19.491c-2.222-2.769-4.627-5.391-6.949-8.081
			C228.212,263.49,227.997,263.541,227.782,263.591z M257.081,276.854c-0.05,0.002-0.101,0.003-0.151,0.005
			c0.111,1.535,0.163,3.077,0.357,4.601c0.096,0.756,0.607,1.504,1.462,1.225c0.449-0.146,1-0.941,0.976-1.417
			c-0.138-2.748-0.403-5.492-0.714-8.228c-0.04-0.35-0.598-0.64-0.916-0.958c-0.338,0.375-0.924,0.724-0.968,1.131
			C256.997,274.415,257.081,275.639,257.081,276.854z M218.538,275.289c-0.417,0.807-0.738,1.147-0.749,1.497
			c-0.073,2.341-0.084,4.683-0.102,7.025c-0.002,0.237,0.001,0.548,0.14,0.697c0.309,0.333,0.698,0.801,1.066,0.812
			c0.366,0.011,0.803-0.42,1.1-0.754c0.189-0.214,0.267-0.61,0.246-0.913c-0.159-2.246-0.313-4.495-0.576-6.73
			C219.607,276.47,219.095,276.072,218.538,275.289z M220.132,288.304c0.036-0.858-0.685-1.649-1.485-1.573
			c-0.858,0.082-1.289,0.643-1.348,1.46c-0.062,0.851,0.36,1.405,1.212,1.54C219.332,289.861,220.096,289.162,220.132,288.304z
			 M260.093,286.576c-0.909-0.483-1.388-0.924-1.902-0.968c-0.741-0.064-1.245,0.549-1.01,1.233
			c0.156,0.454,0.808,1.021,1.239,1.021C258.857,287.861,259.293,287.228,260.093,286.576z"/>
		<path style="fill:#E9BCCC;" d="M204.833,266.731c-0.37,8.349-0.718,16.699-1.125,25.046c-0.113,2.323-0.364,2.475-2.566,2.59
			c-2.59,0.135-5.178,0.3-7.766,0.447c-1.537,0.087-2.02-0.275-2.285-1.846c-0.12-0.715-0.14-1.456-0.13-2.184
			c0.133-9.169,0.316-18.337,0.41-27.506c0.063-6.169-0.002-12.338,0.001-18.508c0.002-3.724,0.093-3.822,3.827-3.81
			c2.11,0.007,4.221,0.052,6.329,0.137c2.638,0.107,3.08,0.519,3.121,3.218c0.06,3.896,0.013,7.793,0.013,11.69
			c-0.001,3.572,0,7.143,0,10.715C204.72,266.724,204.777,266.728,204.833,266.731z M195.823,277.818
			c-0.024,0.001-0.047,0.002-0.071,0.003c0.205,2.088,0.342,4.188,0.669,6.257c0.072,0.452,0.822,1.098,1.263,1.1
			c0.393,0.002,1.158-0.793,1.126-1.184c-0.232-2.802-0.597-5.595-1.014-8.377c-0.043-0.288-0.733-0.711-1.063-0.662
			c-0.342,0.05-0.781,0.558-0.871,0.938C195.717,276.502,195.823,277.172,195.823,277.818z M199.325,288.278
			c-0.978-0.614-1.482-1.15-2.054-1.237c-0.812-0.122-1.364,0.486-1.325,1.313c0.038,0.807,0.597,1.408,1.415,1.238
			C197.921,289.476,198.392,288.928,199.325,288.278z"/>
	</g>
	<g>
		<path style="fill:#4F8559;" d="M244.229,161.884c-4.998,1.042-9.9,2.064-15.005,3.128c-0.24,2.306-0.436,4.709-0.752,7.095
			c-0.458,3.46-1.033,6.904-1.499,10.363c-0.202,1.5-0.926,2.438-2.452,2.534c-3.154,0.197-6.314,0.443-9.47,0.428
			c-1.882-0.009-2.3-0.558-2.25-2.43c0.047-1.776,0.322-3.549,0.534-5.319c0.956-7.982,1.906-15.966,2.894-23.944
			c1.208-9.751,2.551-19.486,3.653-29.249c1.038-9.199,1.868-18.422,2.732-27.639c0.834-8.893,1.605-17.792,2.38-26.69
			c0.218-2.507,0.331-5.024,0.537-7.532c0.091-1.111,0.293-2.213,0.475-3.538c4.475-0.243,8.749-0.474,13.018-0.705
			c1.421,2.663,1.936,5.376,2.48,8.066c4.408,21.803,8.77,43.615,13.198,65.414c1.406,6.921,2.901,13.825,4.481,20.708
			c1.089,4.743,2.394,9.435,3.603,14.15c0.04,0.157,0.082,0.315,0.112,0.475c0.608,3.304,0.52,3.642-2.556,5.102
			c-3.222,1.529-6.507,2.932-9.808,4.285c-2.169,0.889-2.752,0.61-3.309-1.63c-0.958-3.855-1.775-7.746-2.652-11.621
			C244.467,162.873,244.354,162.414,244.229,161.884z M242.096,149.79c-0.156-5.279-5.854-37.875-7.237-41.206
			c-1.531,14.676-3.022,28.969-4.544,43.553C234.454,151.312,238.236,150.558,242.096,149.79z M255.061,162.791
			c0.084-0.021,0.169-0.042,0.253-0.063c-0.778-3.201-1.515-6.413-2.378-9.591c-0.123-0.452-0.857-0.738-1.307-1.101
			c-0.264,0.449-0.56,0.882-0.777,1.353c-0.092,0.2-0.051,0.481-0.018,0.717c0.46,3.268,0.913,6.537,1.406,9.801
			c0.132,0.871,0.582,1.538,1.606,1.427c0.916-0.1,1.089-0.846,1.207-1.579C255.103,163.441,255.061,163.113,255.061,162.791z
			 M222.245,165.367c0-1.123,0.093-2.022-0.027-2.891c-0.116-0.838-1.101-1.089-1.629-0.426c-0.335,0.421-0.576,0.989-0.665,1.523
			c-0.489,2.946-0.98,5.895-1.344,8.859c-0.195,1.582,0.362,2.617,1.176,2.541c1.252-0.116,1.417-1.184,1.549-2.142
			C221.657,170.271,221.954,167.705,222.245,165.367z M254.215,172.136c0.718-1.053,1.358-1.612,1.482-2.267
			c0.169-0.896-0.471-1.518-1.421-1.603c-0.808-0.072-1.62,0.712-1.433,1.568C252.988,170.497,253.554,171.068,254.215,172.136z
			 M219.512,180.466c0.543-0.94,1.053-1.464,1.132-2.047c0.111-0.818-0.511-1.295-1.327-1.349c-0.805-0.053-1.627,0.828-1.34,1.567
			C218.196,179.206,218.785,179.631,219.512,180.466z"/>
		<path style="fill:#4F8559;" d="M146.791,184.775c-8.597,0.234-16.938,0.461-25.577,0.697c-0.086,1.706-0.185,3.374-0.253,5.043
			c-0.197,4.785-0.443,9.569-0.554,14.357c-0.118,5.116-0.098,10.234-0.151,15.351c-0.03,2.905-0.396,3.557-3.205,3.812
			c-3.225,0.292-6.486,0.193-9.732,0.234c-0.926,0.012-1.544-0.462-1.688-1.415c-0.157-1.041-0.419-2.091-0.395-3.132
			c0.142-6.168,0.313-12.336,0.556-18.5c0.157-3.975,0.494-7.942,0.679-11.917c0.523-11.195,1.001-22.392,1.516-33.587
			c0.09-1.961,0.213-2.175,2.033-2.349c3.782-0.362,7.577-0.484,11.545-0.329c0.717,3.418,0.197,6.641,0.155,9.842
			c-0.043,3.231-0.205,6.46-0.324,9.978c8.564-0.267,16.954-0.529,25.512-0.797c0.064-0.817,0.16-1.519,0.167-2.221
			c0.21-20.227,0.4-40.453,0.625-60.68c0.047-4.223,0.223-8.445,0.324-12.668c0.024-1.004,0.08-1.993,1.092-2.535
			c3.161-1.693,6.519-2.776,10.3-3.394c0.115,0.874,0.284,1.56,0.283,2.246c-0.011,9.259,0.003,18.518-0.093,27.776
			c-0.056,5.442-0.279,10.882-0.456,16.322c-0.527,16.251,0.002,32.489,0.635,48.724c0.177,4.544,0.414,9.086,0.611,13.63
			c0.08,1.848-0.075,2.058-2.024,2.167c-2.998,0.168-6,0.29-9.002,0.359c-2.183,0.05-2.635-0.285-2.669-2.467
			c-0.064-4.14,0.051-8.282,0.089-12.424C146.796,186.268,146.791,185.635,146.791,184.775z M154.498,192.16
			c1.33-0.797,1.375-1.954,1.341-3.081c-0.103-3.385-0.22-6.771-0.424-10.151c-0.057-0.951,0.206-2.473-1.277-2.422
			c-1.215,0.042-1.103,1.481-1.129,2.367c-0.099,3.468-0.108,6.941-0.057,10.41C152.968,190.381,153.131,191.553,154.498,192.16z
			 M113.955,205.07c-0.093,0-0.185,0-0.278,0c0-2.101,0.064-4.206-0.049-6.301c-0.026-0.471-0.674-0.908-1.035-1.361
			c-0.375,0.464-0.797,0.9-1.105,1.406c-0.153,0.252-0.128,0.63-0.133,0.952c-0.043,3.073-0.091,6.146-0.097,9.219
			c-0.001,0.64,0.104,1.296,0.267,1.917c0.192,0.732,0.603,1.517,1.472,1.209c0.437-0.155,0.885-0.938,0.916-1.461
			C114.022,208.795,113.955,206.931,113.955,205.07z M154.652,198.059c0.729-0.867,1.389-1.319,1.468-1.856
			c0.057-0.386-0.58-1.124-1.05-1.282c-0.761-0.256-1.517,0.247-1.512,1.06C153.561,196.533,154.11,197.082,154.652,198.059z
			 M114.289,217.483c-0.701-0.517-1.111-1.055-1.487-1.032c-0.396,0.024-0.76,0.584-1.137,0.91c0.342,0.361,0.649,0.959,1.036,1.016
			C113.078,218.433,113.536,217.936,114.289,217.483z"/>
		<path style="fill:#E9BCCC;" d="M344.367,121.377c-4.154,0-7.944,0-12.058,0c0.188,2.22,0.583,16.567-0.131,19.935
			c-3.522,0.742-9.267-1.307-10.6-1.583c-1.213-0.259-1.096-1.646-1.142-2.593c-0.236-4.867-0.439-9.735-0.694-14.601
			c-0.957-18.325-0.775-18.321-1.688-36.649c-0.36-7.217-0.529-14.443-0.759-21.666c-0.03-0.947,0.098-4.699,0.163-5.835
			c5.682,1.492,9.397,3.709,13.59,5.296c2.002,21.555,0.091,24.741,0.917,46.297c4.121,0,8.119,0,12.382,0
			c0.121-19.914,0.763-21.292,1.786-41.373c4.096,1.405,7.82,2.682,11.717,4.019c0.283,24.389,0.04,33.363-0.161,57.733
			c-4.495,1.375-8.816,0.783-13.322,0.577C344.367,128.623,344.367,123.495,344.367,121.377z M326.856,120.316
			c-0.388-2.892-0.72-5.367-1.052-7.842c-0.139-1.038-0.178-2.104-0.462-3.101c-0.144-0.505-0.733-0.883-1.12-1.318
			c-0.339,0.485-0.754,0.936-0.991,1.466c-0.151,0.337-0.073,0.795-0.038,1.194c0.182,2.087,0.368,4.174,0.583,6.257
			c0.116,1.119,0.23,2.246,0.464,3.344c0.156,0.736,0.653,1.492,1.492,1.197C326.271,121.324,326.618,120.586,326.856,120.316z
			 M353.488,114.004c-0.354-2.153-0.662-4.396-1.134-6.604c-0.101-0.474-0.798-0.82-1.22-1.225
			c-0.313,0.491-0.903,0.987-0.893,1.471c0.052,2.501,0.244,5.001,0.423,7.498c0.028,0.386,0.149,0.853,0.402,1.114
			c0.301,0.312,0.812,0.637,1.192,0.595c0.372-0.041,0.868-0.473,1-0.844C353.467,115.422,353.418,114.744,353.488,114.004z
			 M325.788,127.726c1.294-0.121,1.709-0.632,1.691-1.491c-0.018-0.858-0.775-1.569-1.594-1.47c-0.832,0.101-1.486,0.652-1.28,1.442
			C324.772,126.844,325.471,127.342,325.788,127.726z M354.212,121.738c-0.835-0.636-1.321-1.285-1.722-1.236
			c-0.434,0.053-0.963,0.707-1.105,1.199c-0.073,0.253,0.6,1.017,0.946,1.023C352.812,122.734,353.302,122.249,354.212,121.738z"/>
		<path style="fill:#E9BCCC;" d="M192.781,80.077c-1.078,21.712,0.771,43.279-0.181,64.909c3.447,0,6.558,0,10.032,0
			c0.152,3.705,0.302,7.373,0.462,11.272c-3.543,0.6-6.866,1.162-10.255,1.736c0,3.548,0,6.928,0,10.464c3.645,0,7.157,0,10.771,0
			c0.13,0.543,0.323,0.992,0.333,1.445c0.082,3.571,0.164,7.143,0.177,10.715c0.009,2.55-0.145,2.64-2.558,2.729
			c-7.138,0.264-14.276,0.546-21.414,0.823c-2.094,0.081-2.852-0.501-2.92-2.605c-0.084-2.593,0.002-5.191,0.03-7.787
			c0.176-15.913,0.422-31.825,0.512-47.738c0.053-9.254-0.256-18.511-0.18-27.765c0.044-5.35,0.535-10.697,0.816-16.045
			c0.093-1.783,0.235-3.569,0.212-5.352c-0.021-1.68,0.6-2.61,2.247-3.247c6.23-2.411,12.633-4.137,19.197-5.315
			c1.356-0.243,2.692-0.602,4.049-0.842c1.416-0.251,1.826,0.033,1.889,1.415c0.089,1.945,0.053,3.896,0.102,5.844
			c0.032,1.257-0.824,1.663-1.797,1.953c-3.108,0.925-6.222,1.834-9.333,2.75C194.353,79.616,193.733,79.798,192.781,80.077z
			 M183.44,166.178c-0.045,0-0.089,0-0.133,0c0,1.867-0.018,3.734,0.01,5.601c0.01,0.641,0.019,1.323,0.236,1.911
			c0.374,1.017,1.565,1.165,2.05,0.205c0.419-0.828,0.64-1.848,0.636-2.782c-0.015-3.489-0.148-6.978-0.262-10.467
			c-0.018-0.563-0.068-1.164-0.285-1.671c-0.195-0.455-0.638-0.804-0.972-1.2c-0.376,0.449-0.938,0.845-1.086,1.36
			c-0.219,0.761-0.175,1.606-0.187,2.417C183.424,163.092,183.44,164.635,183.44,166.178z M186.039,178.214
			c-0.344-0.283-0.829-0.943-1.458-1.136c-0.804-0.246-1.543,0.711-1.526,1.72c0.014,0.838,0.426,1.382,1.249,1.507
			C185.12,180.429,185.986,179.555,186.039,178.214z"/>
		<path style="fill:#E9BCCC;" d="M280.164,146.568c4.7-0.855,9.13-1.662,13.903-2.53c0.757,4.371,1.456,8.412,2.192,12.665
			c-1.538,0.584-2.926,1.232-4.381,1.643c-6.244,1.766-12.506,3.473-18.768,5.173c-0.935,0.254-1.907,0.394-2.87,0.519
			c-1.853,0.241-3.137-0.522-3.716-2.345c-0.342-1.074-0.45-2.223-0.654-3.339c-1.708-9.362-2.501-18.833-3.238-28.303
			c-0.984-12.63-1.767-25.275-2.72-37.908c-0.795-10.526-1.71-21.042-2.572-31.563c-0.007-0.081-0.011-0.162-0.017-0.243
			c-0.253-3.495,0.012-3.869,3.523-4.373c2.327-0.334,4.667-0.62,7.012-0.778c2.26-0.152,2.719,0.352,2.948,2.533
			c0.924,8.801,1.913,17.596,2.787,26.402c0.745,7.515,1.287,15.05,2.061,22.561c0.815,7.914,1.816,15.808,2.701,23.715
			c0.461,4.115,0.838,8.239,1.274,12.357C279.746,143.877,279.94,144.992,280.164,146.568z M270.747,144.807
			c0.039,0,0.078,0,0.117,0c0,1.697-0.01,3.393,0.005,5.089c0.005,0.563,0.014,1.139,0.13,1.686c0.175,0.83,0.553,1.576,1.559,1.561
			c1.014-0.015,1.341-0.746,1.465-1.615c0.023-0.16,0.051-0.323,0.041-0.482c-0.266-4.106-0.511-8.213-0.836-12.314
			c-0.047-0.599-0.389-1.236-0.76-1.731c-0.454-0.606-1.288-0.423-1.499,0.318c-0.174,0.61-0.203,1.276-0.212,1.918
			C270.73,141.093,270.747,142.95,270.747,144.807z M273.69,159.266c0.259-0.397,0.863-0.956,0.994-1.61
			c0.176-0.876-0.833-1.692-1.718-1.58c-0.843,0.106-1.276,0.638-1.326,1.465C271.583,158.486,272.362,159.302,273.69,159.266z"/>
		<path style="fill:#4F8559;" d="M298.468,67.228c-1.4,0-2.447,0.051-3.487-0.012c-1.616-0.099-2.125-0.439-2.252-1.964
			c-0.22-2.655-0.365-5.329-0.315-7.991c0.035-1.893,0.472-2.37,2.293-2.513c5.411-0.426,10.833-0.715,16.251-1.04
			c2.078-0.125,3.251,0.909,3.933,2.86c0.976,2.794,0.716,5.591,0.366,8.409c-0.151,1.212-0.925,1.838-2.143,1.927
			c-1.042,0.076-2.082,0.171-3.321,0.274c-0.049,0.865-0.119,23.1-0.133,23.879c-0.157,8.759-0.431,32.205-0.636,40.964
			c-0.085,3.646-0.357,7.287-0.56,10.93c-0.087,1.569-0.413,2.004-1.964,2.283c-2.231,0.401-4.48,0.707-6.724,1.035
			c-1.078,0.157-1.745-0.333-1.845-1.416c-0.111-1.21-0.185-2.429-0.179-3.644c0.042-8.518,0.248-31.721,0.346-40.238
			c0.027-2.349,0.272-4.695,0.357-7.044C298.514,92.321,298.468,69.255,298.468,67.228z M304.628,134.495
			c0.034-0.002,0.068-0.004,0.102-0.006c-0.184-1.769-0.345-3.54-0.562-5.305c-0.096-0.785-0.513-1.529-1.386-1.27
			c-0.441,0.131-0.937,0.89-0.978,1.399c-0.128,1.608-0.074,3.232-0.045,4.848c0.016,0.885-0.01,1.81,0.241,2.639
			c0.152,0.501,0.743,1.111,1.234,1.214c0.869,0.183,1.279-0.577,1.375-1.343C304.698,135.956,304.628,135.221,304.628,134.495z
			 M305.634,141.365c-0.908-0.646-1.382-1.213-1.949-1.331c-0.803-0.166-1.359,0.4-1.377,1.244c-0.019,0.847,0.544,1.43,1.323,1.331
			C304.196,142.537,304.698,141.973,305.634,141.365z"/>
		<path style="fill:#4F8559;" d="M384.209,98.905c-1.778,3.065-3.139,5.948-4.988,8.473c-2.607,3.56-3.84,7.335-3.642,11.757
			c0.137,3.067-0.253,6.159-0.429,9.239c-0.036,0.637-0.167,1.268-0.247,1.842c-2.007,0.819-6.671,0.755-9.307-0.075
			c0-2.994-0.318-6.023,0.069-8.96c0.704-5.34,0.247-10.483-1.341-15.596c-0.889-2.865-1.61-5.782-2.38-8.683
			c-0.202-0.762-0.305-1.551-0.495-2.542c2.747-0.681,5.323-0.471,7.866-0.226c0.452,0.044,1.019,0.969,1.178,1.579
			c0.53,2.037,0.895,4.117,1.329,6.179c0.159,0.753,0.334,1.502,0.909,2.325c0.624-1.287,1.224-2.585,1.875-3.858
			c2.683-5.247,1.869-4.4,6.796-2.751C382.23,97.886,382.997,98.338,384.209,98.905z M372.474,119.183
			c-0.117-1.181-0.169-2.227-0.341-3.253c-0.121-0.724-0.444-1.563-1.354-1.296c-0.446,0.131-0.971,0.873-1.006,1.371
			c-0.128,1.838-0.138,3.694-0.027,5.534c0.03,0.49,0.565,1.214,1.018,1.358c0.855,0.27,1.305-0.467,1.447-1.219
			C372.375,120.815,372.402,119.927,372.474,119.183z M370.932,123.987c-0.609,0.928-1.146,1.424-1.266,2.006
			c-0.172,0.836,0.611,1.437,1.532,1.366c0.85-0.065,1.469-0.591,1.283-1.367C372.333,125.372,371.654,124.88,370.932,123.987z"/>
	</g>
	<path style="fill:#E9BCCC;" d="M399.514,251.125c-0.751,0.641-1.195,1.246-1.784,1.473c-1.051,0.404-2.194,0.564-3.291,0.853
		c-2.273,0.599-4.555,1.167-6.809,1.833c-5.537,1.637-8.45,5.446-9.075,11.115c-0.133,1.21-0.306,2.416-0.477,3.622
		c-0.057,0.4-0.043,0.896-0.274,1.166c-0.434,0.507-1.028,1.225-1.546,1.216c-0.521-0.009-1.361-0.715-1.486-1.25
		c-0.461-1.969-0.578-4.017-1.022-5.99c-0.514-2.284-1.095-4.574-1.908-6.764c-0.845-2.273-2.579-3.715-5.071-4.039
		c-2.252-0.293-4.512-0.529-6.765-0.814c-0.801-0.102-1.658-0.134-2.365-0.465c-0.48-0.225-1.035-0.926-1.018-1.395
		c0.017-0.48,0.607-1.201,1.091-1.353c1.304-0.409,2.695-0.528,4.034-0.841c2.594-0.605,5.232-1.097,7.746-1.948
		c2.475-0.839,3.887-2.769,4.397-5.394c0.511-2.633,1.117-5.242,0.746-7.952c-0.022-0.16-0.026-0.324-0.027-0.486
		c-0.017-1.6,0.423-2.485,1.336-2.468c1.392,0.026,1.566,1.117,1.816,2.186c0.534,2.291,1.122,4.57,1.73,6.843
		c0.846,3.162,2.795,5.423,5.688,6.931c3.414,1.779,7.126,2.097,10.865,2.32c0.647,0.039,1.352-0.06,1.922,0.17
		C398.478,249.9,398.839,250.474,399.514,251.125z M376.386,261.976c2.27-5.796,6.344-8.574,11.528-10.212
		c-4.465-1.521-8.227-3.761-10.751-8.647c-1.199,4.729-4.519,6.711-8.362,8.613C373.526,253.503,374.961,257.393,376.386,261.976z"
		/>
	<path style="fill:#E9BCCC;" d="M93.188,278.47c-0.519-0.559-1.035-0.889-1.206-1.349c-0.277-0.745-0.351-1.57-0.466-2.368
		c-0.162-1.12-0.269-2.248-0.424-3.369c-0.437-3.158-2.117-5.16-5.326-5.804c-0.779-0.156-1.577-0.434-2.243-0.852
		c-0.403-0.253-0.827-0.919-0.769-1.333c0.056-0.401,0.665-0.863,1.128-1.033c0.671-0.246,1.428-0.259,2.15-0.362
		c2.625-0.375,4.545-1.736,5.474-4.228c0.645-1.73,1.068-3.545,1.557-5.331c0.17-0.622,0.11-1.339,0.396-1.887
		c0.216-0.413,0.825-0.877,1.24-0.859c0.411,0.017,0.913,0.542,1.16,0.969c0.224,0.387,0.179,0.941,0.216,1.424
		c0.086,1.131,0.123,2.266,0.227,3.395c0.41,4.469,2.668,7.131,6.996,8.223c1.019,0.257,2.094,0.324,3.083,0.656
		c0.446,0.15,1.077,0.778,1.034,1.113c-0.067,0.517-0.563,1.075-1.025,1.414c-0.35,0.257-0.933,0.187-1.409,0.283
		c-1.506,0.305-3.021,0.574-4.513,0.939c-3.373,0.827-5.274,2.974-5.655,6.451c-0.097,0.884-0.171,1.791-0.44,2.628
		C94.233,277.635,93.693,277.949,93.188,278.47z M93.608,269.274c1.854-1.287,3.792-2.631,5.473-3.798
		c-1.669-1.884-3.41-3.85-4.995-5.64c-1.237,1.404-2.692,3.055-3.995,4.533C91.259,266,92.504,267.735,93.608,269.274z"/>
	<path style="fill:#E9BCCC;" d="M406.495,374.326c-0.956,2.555,0.426,5.142-1.138,7.472c-1.483-1.13-1.282-2.623-1.332-3.999
		c-0.052-1.426-0.012-2.855-0.012-4.596c-2.161,1.417-3.374,3.522-6.114,4.321c0.952-2.535,3.422-3.29,4.565-5.621
		c-3.105,0.26-5.992,0.501-8.795,0.735c-0.447-1.146-0.005-1.507,0.741-1.629c1.279-0.209,2.565-0.375,3.845-0.58
		c0.937-0.15,1.869-0.332,3.097-0.552c-1.194-1.357-2.223-2.527-3.253-3.697c2.486,0.321,3.811,2.483,6.186,3.561
		c0.26-3.128,0.496-5.975,0.749-9.011c1.949,0.669,1.275,2.165,1.407,3.252c0.142,1.169,0.032,2.369,0.032,4.155
		c2.135-1.777,3.837-3.194,5.916-4.925c-0.173,1.762-1.22,2.396-1.99,3.177c-0.774,0.787-1.602,1.521-2.666,2.523
		c2.872,0.051,5.3-1.063,7.734,0.125c-2.58,2.08-5.919,1.374-9.01,2.415c2.133,2.731,5.16,4.434,6.827,7.985
		c-1.739-0.609-2.607-1.664-3.622-2.461C408.651,376.181,407.687,375.327,406.495,374.326z"/>
	<path style="fill:#E9BCCC;" d="M227.505,417.12c-0.858,2.373,0.046,4.59-1.085,6.696c-1.7-1.729-0.533-3.834-1.216-5.689
		c-1.786,0.932-2.619,3.125-4.978,3.525c0.408-2.382,2.516-3.286,3.624-5.253c-2.905-0.306-5.551,1.109-8.276,0.479
		c2.422-2.055,5.624-1.432,8.416-2.603c-1.323-1.954-4.146-2.749-4.273-5.837c1.974,1.632,3.738,3.09,5.943,4.912
		c0.153-2.479,0.273-4.416,0.425-6.871c2.045,1.9,0.765,3.974,1.695,5.877c0.969-0.924,1.835-1.832,2.789-2.635
		c0.865-0.728,1.222-2.138,2.975-2.171c-0.644,2.236-2.438,3.483-3.751,5.347c2.47,0.081,4.646-0.955,7.07-0.146
		c-1.066,1.621-2.632,1.367-3.947,1.668c-1.41,0.324-2.833,0.595-4.555,0.952c2.604,2.567,5.638,4.26,7.668,7.657
		c-0.954-0.105-1.469-0.008-1.758-0.22c-1.043-0.765-2.015-1.628-3.004-2.465C230.099,419.354,228.943,418.353,227.505,417.12z"/>
	<path style="fill:#D76100;" d="M189.524,229.854c-0.013,2.369-1.58,3.954-3.922,3.964c-2.863,0.013-4.917-1.785-4.851-4.247
		c0.065-2.448,1.483-4.245,3.384-4.286C187.267,225.216,189.538,227.141,189.524,229.854z M186.706,227.817
		c-1.218,0.056-2.415-0.863-3.205,0.507c-0.415,0.721-0.582,1.735,0.267,2.161c0.785,0.393,1.987,0.709,2.673,0.376
		C187.615,230.291,187.059,229.076,186.706,227.817z"/>
	<path style="fill:#D76100;" d="M406.12,234.225c2.262-0.024,2.931,0.321,3.39,1.524c0.568,1.489,0.094,3.712-1.014,4.752
		c-1.342,1.261-3.611,1.539-5.221,0.67c-1.279-0.691-1.494-1.819-1.347-3.113c0.185-1.625,0.745-3.025,2.458-3.563
		C405.069,234.282,405.817,234.269,406.12,234.225z M407.214,236.44c-2.127-0.405-2.827-0.071-3.058,1.342
		c-0.142,0.865,0.159,1.432,1.066,1.552C406.595,239.514,407.244,238.605,407.214,236.44z"/>
	<path style="fill:#D76100;" d="M334.072,429.748c-0.033,1.806-1.46,3.23-3.234,3.228c-1.902-0.002-3.241-1.416-3.264-3.447
		c-0.023-2.006,1.592-3.862,3.303-3.797C332.435,425.792,334.105,427.891,334.072,429.748z M331.056,430.604
		c0.583-1.109,0.459-1.807-0.474-2.489C329.919,429.107,329.671,429.856,331.056,430.604z"/>
	<path style="fill:#D76100;" d="M364.506,296.437c1.885,0.013,3.373,1.489,3.361,3.336c-0.012,1.787-1.872,3.533-3.695,3.468
		c-1.859-0.066-3.28-1.454-3.275-3.2C360.902,297.739,362.222,296.421,364.506,296.437z M362.412,299.675
		c0.88,0.579,1.391,1.178,1.799,1.115c0.473-0.073,1.15-0.701,1.192-1.139c0.039-0.406-0.669-1.259-1.006-1.238
		C363.856,298.447,363.348,299.037,362.412,299.675z"/>
	<path style="fill:#3D6747;" d="M308.127,228.176c-10.05,0.53-19.528,3.487-29.079,6.029c-11.304,3.008-22.791,4.175-34.465,3.727
		c-9.594-0.368-18.28-3.353-26.079-8.936c-0.184-0.132-0.307-0.349-0.341-0.389c3.683,0.686,7.476,1.43,11.285,2.093
		c7.692,1.338,15.365,0.774,23.019-0.371c10.746-1.608,21.466-3.401,32.236-4.822c7.567-0.999,15.056-0.07,22.359,2.185
		C307.432,227.806,307.773,228.013,308.127,228.176z"/>
	<path style="fill:#3D6747;" d="M298.042,222.828c-0.399,0-0.805,0.049-1.196-0.007c-7.832-1.115-15.533,0.082-23.248,1.24
		c-9.063,1.361-18.126,2.746-27.218,3.891c-7.88,0.992-15.724,0.267-23.47-1.379c-1.93-0.41-3.775-1.222-5.55-2.281
		c0.456,0,0.923-0.066,1.365,0.01c5.762,0.985,11.52,0.425,17.229-0.288c9.415-1.175,18.79-2.666,28.191-3.96
		c9.792-1.347,19.571-1.584,29.264,0.787c1.618,0.396,3.185,1.001,4.776,1.509C298.138,222.51,298.09,222.669,298.042,222.828z"/>
	<path style="fill:#3D6747;" d="M232.121,303.34c16.718-1.98,29.633-0.795,41.666,3.698c-0.506,0.062-0.788,0.134-1.067,0.124
		c-8.903-0.317-17.806-0.652-26.709-0.963C241.212,306.032,236.561,305.161,232.121,303.34z"/>
	<path style="fill:#3D6747;" d="M239.431,300.081c0.285-0.23,0.552-0.634,0.857-0.664c3.955-0.392,7.911-0.935,11.877-1.036
		c6.809-0.174,13.337,1.659,19.873,3.291c4.529,1.13,8.723,3.048,12.667,5.528c0.54,0.339,1.049,0.727,1.409,1.497
		c-0.699-0.239-1.404-0.464-2.097-0.718c-8.16-2.991-16.459-5.537-24.98-7.252c-6.489-1.306-13.064-1.392-19.645-0.678
		L239.431,300.081z"/>
	<path style="fill:#3D6747;" d="M221.286,320.458c3.106-0.366,6.21-0.731,9.313-1.096c0.04,0.116,0.079,0.232,0.119,0.348
		c-0.872,0.326-1.732,0.695-2.621,0.97c-1.614,0.499-3.238,0.97-4.871,1.399C221.617,322.501,221.609,322.472,221.286,320.458z"/>
	<path style="fill:#3D6747;" d="M220.275,318.305c3.636-1.096,7.372-1.269,11.367-1.345
		C228.78,318.149,222.075,319.034,220.275,318.305z"/>
	<path style="fill:#3D6747;" d="M234.32,320.762c-1.839,1.546-10.158,4.013-12.125,3.883c0.089-0.228,0.128-0.59,0.259-0.626
		C226.404,322.913,230.362,321.84,234.32,320.762z"/>
	<g>
		<g>
			<path style="fill:#4F8559;" d="M357.092,412.645c0.14,0.557,0.151,0.978,0.34,1.294c1.848,3.1,4.033,5.857,7.258,7.699
				c3.613,2.063,12.36,1.406,15.324-3.168c0.555-0.857,1.253-1.14,2.219-1.19c4.784-0.244,9.565-0.538,14.348-0.8
				c0.483-0.026,0.986-0.025,1.454,0.077c1.109,0.242,1.44,0.862,1.111,1.964c-0.069,0.232-0.169,0.458-0.284,0.671
				c-3.323,6.201-7.64,11.46-13.931,14.902c-2.844,1.556-5.933,2.21-9.077,2.579c-8.436,0.991-16.441-0.65-23.599-5.122
				c-7.467-4.665-11.948-11.545-13.094-20.421c-0.65-5.035-0.894-10.058,0.844-14.933c0.676-1.895,1.497-3.789,2.569-5.483
				c6.208-9.809,15.271-15.108,26.732-16.056c8.555-0.707,16.21,2.055,22.735,7.579c3.936,3.333,5.965,7.928,6.727,12.928
				c0.584,3.835,0.676,7.755,0.816,11.643c0.078,2.153-0.264,2.673-2.365,3.031c-4.073,0.694-8.18,1.342-12.298,1.583
				c-8.509,0.498-17.035,0.714-25.554,1.052C358.668,412.501,357.97,412.578,357.092,412.645z M349.578,408.005
				c9.077-0.313,17.911-0.527,26.734-0.958c4.694-0.23,9.369-0.85,14.055-1.267c1.342-0.119,1.93-0.782,2.18-2.124
				c1.187-6.361-2.705-15.396-8.139-19.011c-3.315-2.205-7.031-2.832-10.849-3.173c-6.411-0.573-11.992,1.274-16.734,5.697
				c-5.261,4.907-8.171,11.024-9.427,17.995c-0.698,3.874-0.865,7.751,0.745,11.493c3.09,7.187,8.197,12.221,15.798,14.398
				c5.278,1.512,10.541,1.749,15.575-1.091c3.397-1.917,6.065-4.586,8.337-7.7c0.19-0.26,0.447-0.556,0.457-0.843
				c0.021-0.599-0.103-1.203-0.167-1.805c-0.572,0.134-1.246,0.124-1.69,0.439c-0.577,0.409-0.936,1.113-1.452,1.625
				c-1.609,1.595-3.108,3.349-4.911,4.69c-2.556,1.902-5.413,3.179-8.767,3.125c-8.497-0.137-14.96-3.849-19.429-10.984
				C349.918,415.357,348.948,411.869,349.578,408.005z"/>
			<path style="fill:#E9BCCC;" d="M300.64,433.514c0,1.966,0.041,3.665-0.01,5.36c-0.068,2.25-0.542,2.817-2.743,2.781
				c-3.971-0.064-7.942-0.228-11.907-0.463c-1.896-0.113-2.299-0.494-2.459-2.346c-0.308-3.555-0.627-7.122-0.65-10.687
				c-0.055-8.687,0.055-17.374,0.101-26.062c0.002-0.406-0.002-0.814,0.038-1.217c0.22-2.243,1.074-3.252,3.324-3.48
				c4.035-0.409,8.081-0.718,12.128-0.999c6.236-0.433,12.475-0.816,18.715-1.2c2.106-0.129,4.216-0.252,6.324-0.273
				c2.098-0.022,2.813,0.514,2.748,2.489c-0.124,3.724-0.486,7.44-0.754,11.159c-0.099,1.383-0.946,2-2.238,2.099
				c-3.56,0.272-7.119,0.568-10.683,0.775c-3.647,0.211-7.299,0.323-10.949,0.49c-0.557,0.025-1.111,0.112-1.829,0.187
				c0,1.898,0,3.721,0,5.814c0.914,0.101,1.846,0.273,2.781,0.293c2.679,0.057,5.36,0.009,8.038,0.085
				c2.507,0.071,3.067,0.633,2.953,3.06c-0.129,2.754-0.332,5.508-0.612,8.25c-0.258,2.538-0.317,2.566-2.955,2.887
				c-2.578,0.314-5.165,0.548-7.748,0.819C301.783,433.384,301.312,433.439,300.64,433.514z M319.675,401.674
				c-1.341,0-2.223-0.02-3.104,0.003c-3.646,0.096-7.294,0.155-10.938,0.322c-4.617,0.211-9.232,0.483-13.843,0.791
				c-1.794,0.12-2.086,0.545-2.122,2.251c-0.141,6.648-0.343,13.294-0.437,19.943c-0.049,3.485,0.06,6.972,0.141,10.458
				c0.022,0.941,0.079,1.963,1.742,2.214c0.743-3.463-0.189-6.95,0.479-10.577c4.795,0,9.486,0.002,14.177-0.002
				c0.647-0.001,1.328,0.087,1.929-0.089c0.375-0.109,0.833-0.615,0.87-0.981c0.028-0.276-0.515-0.814-0.872-0.883
				c-0.946-0.184-1.931-0.252-2.897-0.231c-3.648,0.08-7.294,0.225-10.941,0.32c-0.768,0.02-1.539-0.07-2.384-0.113
				c0.189-6.89,0.371-13.503,0.553-20.132c0.318-0.1,0.538-0.223,0.764-0.233c4.941-0.216,9.883-0.406,14.824-0.63
				c2.916-0.132,5.834-0.252,8.741-0.501C317.472,403.509,318.787,403.509,319.675,401.674z"/>
			<path style="fill:#E9BCCC;" d="M204.173,429.762c1.065,0,1.778-0.009,2.49,0.001c5.022,0.071,10.044,0.109,15.064,0.24
				c1.788,0.047,2.238,0.465,2.225,2.166c-0.02,2.508-0.228,5.015-0.401,7.52c-0.062,0.903-0.597,1.487-1.514,1.656
				c-0.397,0.073-0.8,0.153-1.201,0.159c-8.514,0.12-17.029,0.296-25.543,0.316c-4.83,0.011-4.381-0.486-4.235-4.563
				c0.201-5.588,0.178-11.185,0.339-16.775c0.081-2.835,0.315-5.668,0.552-8.496c0.181-2.163,0.394-2.368,2.475-2.419
				c2.51-0.061,5.024-0.072,7.534-0.019c2.097,0.044,2.528,0.515,2.497,2.663c-0.069,4.866-0.188,9.731-0.28,14.597
				C204.158,427.75,204.173,428.694,204.173,429.762z M197.955,414.341c-1.398,0.288-1.169,1.15-1.179,1.811
				c-0.087,5.839-0.18,11.679-0.188,17.519c-0.003,2.276,0.263,2.54,2.517,2.62c3.403,0.12,6.81,0.121,10.216,0.151
				c1.946,0.017,3.894,0.032,5.838-0.035c0.808-0.028,1.843,0.246,2.371-1.525c-6.397-0.826-12.736,0.248-19.209-0.424
				c0-1.048,0-1.921,0-2.795c-0.001-4.868,0.016-9.736-0.019-14.604C198.296,416.161,198.078,415.265,197.955,414.341z"/>
			<path style="fill:#4F8559;" d="M242.221,419.366c0-6.328-0.008-12.657,0.004-18.985c0.005-2.761,0.504-3.31,3.191-3.456
				c2.187-0.119,4.378-0.199,6.568-0.234c2.93-0.047,3.316,0.29,3.628,3.267c0.186,1.774,0.297,3.56,0.342,5.343
				c0.274,10.706,0.52,21.412,0.771,32.119c0.009,0.405,0.004,0.813-0.034,1.216c-0.152,1.621-0.44,1.957-2.021,2.191
				c-0.881,0.13-1.776,0.2-2.666,0.224c-2.27,0.061-4.542,0.092-6.813,0.115c-2.035,0.02-2.497-0.367-2.554-2.331
				c-0.187-6.488-0.336-12.978-0.499-19.467C242.165,419.367,242.193,419.366,242.221,419.366z M249.931,400.548
				c-0.273-0.009-0.545-0.018-0.818-0.027c-0.126,0.738-0.343,1.474-0.363,2.215c-0.271,9.952-0.86,19.899-0.507,29.862
				c0.026,0.725,0.029,1.467,0.194,2.165c0.07,0.299,0.519,0.693,0.81,0.705c0.299,0.012,0.808-0.335,0.886-0.618
				c0.188-0.687,0.249-1.428,0.238-2.146c-0.059-4.21-0.217-8.42-0.22-12.63c-0.004-5.667,0.119-11.334,0.144-17.002
				C250.299,402.231,250.058,401.389,249.931,400.548z"/>
		</g>
		<path style="fill:#4F8559;" d="M390.05,403.727c-13.33,1.596-26.695,1.803-40.154,2.668c0-0.848-0.096-1.415,0.015-1.938
			c1.205-5.67,3.535-10.751,7.682-14.93c4.981-5.018,10.987-6.661,17.829-5.538c1.825,0.3,3.674,0.73,5.381,1.424
			C386.978,387.926,391.684,397.653,390.05,403.727z M384.387,398.915c-1.455-5.678-8.04-10.527-13.731-10.259
			c-6.294,0.296-12.493,5.608-13.405,11.617C366.304,399.82,375.327,399.369,384.387,398.915z"/>
	</g>
	<g>
		<path style="fill:#4F8559;" d="M157.187,215.849c0.363-6.447,3.441-11.342,7.793-15.644c5.355-5.294,11.223-9.698,18.917-10.762
			c3.367-0.465,6.799-0.522,10.205-0.63c3.491-0.111,6.989-0.143,10.48-0.063c19.162,0.44,37.334-4.14,55.084-10.836
			c2.042-0.77,3.956-1.88,5.938-2.813c0.659-0.31,1.324-0.687,2.026-0.809c1.1-0.191,1.818,0.878,1.346,1.9
			c-0.133,0.288-0.347,0.548-0.562,0.787c-5.058,5.617-10.141,11.188-16.278,15.708c-8.737,6.436-18.351,10.496-29.136,12.128
			c-10.168,1.539-20.359,1.961-30.603,1.973c-5.457,0.007-10.888,0.44-16.169,1.887c-4.458,1.221-8.873,2.615-12.782,5.742
			c1.105,0.493,2.038,0.117,2.92,0.031c6.222-0.61,12.432-1.367,18.661-1.879c7.042-0.579,14.101-0.962,21.154-1.411
			c11.926-0.759,23.76-2.296,35.559-4.143c3.048-0.477,6.101-0.918,9.157-1.344c1.14-0.159,2.087-0.634,3.112-1.172
			c2.354-1.234,4.866-2.195,7.374-3.1c2.287-0.826,4.667-1.388,6.974-2.164c0.624-0.21,1.395-0.653,1.641-1.197
			c0.97-2.146,2.771-3.332,4.652-4.488c5.1-3.134,10.738-4.963,16.385-6.77c0.928-0.297,1.852-0.664,2.807-0.801
			c1.755-0.253,2.586-1.117,2.977-2.912c0.632-2.906,2.334-5.324,4.243-7.582c1.257-1.488,2.521-2.977,3.67-4.548
			c2.299-3.145,2.817-6.669,1.983-10.429c-0.123-0.555-0.228-1.116-0.385-1.661c-1.618-5.646,0.547-10.111,4.683-13.669
			c4.202-3.614,9.075-4.564,14.31-2.283c1.858,0.809,3.622,1.832,5.463,2.683c1.691,0.781,3.417,1.49,5.148,2.18
			c2.641,1.053,5.016,0.354,6.976-1.484c1.346-1.263,2.39-2.846,3.573-4.283c1.595-1.937,3.016-4.058,4.825-5.769
			c5.419-5.125,12.638-4.965,18.09,0.201c2.275,2.156,4.088,4.626,5.138,7.6c0.729,2.066,1.332,4.177,2.092,6.23
			c0.417,1.127,0.901,2.282,1.609,3.236c1.205,1.623,2.918,2.269,4.951,1.839c0.794-0.168,1.579-0.378,2.37-0.562
			c4.289-0.996,8.24-0.07,11.871,2.258c4.674,2.997,6.656,8.511,5.327,14.6c-0.703,3.224-2.151,6.121-4.092,8.768
			c-1.248,1.703-2.579,3.346-3.851,5.032c-0.488,0.646-0.979,1.304-1.358,2.016c-0.808,1.518-1.129,3.02,0.203,4.498
			c1.79,1.985,3.558,3.993,5.245,6.065c1.484,1.822,3,3.649,4.225,5.644c2.807,4.574,3.518,9.589,2.28,14.779
			c-1.49,6.25-7.33,10.878-13.751,11.255c-3.393,0.199-6.59-0.358-9.747-1.641c-3.605-1.465-7.296-2.73-10.984-3.983
			c-5.743-1.95-10.898-0.688-15.453,3.161c-3.004,2.539-6.038,5.04-10.081,5.598c-9.714,1.341-18.201-2.07-23.944-10.655
			c-1.165-1.741-1.951-3.738-2.896-5.624c-0.727-1.452-1.409-2.926-2.148-4.371c-1.724-3.367-4.38-5.564-8.086-6.494
			c-2.691-0.675-5.316-1.533-7.062-3.32c-5.67,1.576-11.016,3.205-16.44,4.514c-3.058,0.738-6.224,1.16-9.415,0.418
			c-0.65-0.151-1.438,0.079-2.113,0.288c-3.488,1.082-6.962,2.21-10.438,3.33c-2.514,0.811-5.044,1.192-7.669,0.519
			c-0.506-0.13-1.139-0.095-1.629,0.089c-7.575,2.847-15.492,4.237-23.44,5.438c-5.292,0.8-10.622,1.354-15.934,2.022
			c-0.627,0.079-1.25,0.19-1.913,0.495c1.862,1.072,3.901,1.556,5.964,1.913c4.026,0.697,8.097,0.875,12.145,0.397
			c9.513-1.125,19.037-2.207,28.506-3.634c9.938-1.498,19.846-2.237,29.838-0.729c4.614,0.697,9.004,2.129,13.216,4.085
			c4.858,2.257,9.664,4.627,14.491,6.949c0.365,0.176,0.832,0.275,1.062,0.562c0.32,0.4,0.715,1.012,0.607,1.406
			c-0.109,0.398-0.761,0.699-1.231,0.928c-0.262,0.128-0.639,0.047-0.961,0.017c-9.623-0.877-18.932,0.856-28.139,3.398
			c-7.671,2.117-15.345,4.25-23.245,5.32c-9.789,1.327-19.616,1.637-29.351-0.344c-10.497-2.136-19.206-7.672-26.923-14.907
			c-1.303-1.222-2.586-2.472-3.795-3.785c-0.844-0.916-1.766-1.237-3.012-1.172c-5.029,0.264-10.067,0.37-15.094,0.654
			c-6.567,0.372-13.171,0.522-19.681,1.367c-11.512,1.495-22.959,3.475-34.018,7.19c-8.758,2.942-16.97,6.949-24.33,12.596
			c-0.064,0.049-0.128,0.1-0.193,0.149c-3.324,2.491-5.906,1.769-7.287-2.14c-0.198-0.559,0.007-1.494,0.384-1.971
			c0.693-0.877,1.619-1.586,2.509-2.288c6.716-5.297,14.253-9.057,22.393-11.549c9.468-2.898,18.996-5.605,28.736-7.477
			C155.576,216.262,156.279,216.066,157.187,215.849z M300.444,187.437c0.043,0.921,0.06,1.327,0.081,1.733
			c0.377,7.395,2.679,10.455,9.752,12.65c4.169,1.294,7.354,3.764,9.471,7.535c1.428,2.544,2.623,5.219,3.97,7.81
			c3.655,7.031,9.241,11.105,17.354,11.427c3.294,0.131,6.286-0.578,8.957-2.505c1.25-0.902,2.402-1.938,3.652-2.84
			c4.889-3.527,10.272-5.363,16.269-3.832c4.704,1.201,9.322,2.772,13.919,4.349c2.499,0.857,4.977,1.434,7.621,1.217
			c5.79-0.475,9.862-4.837,9.99-10.624c0.107-4.844-1.909-8.799-4.985-12.338c-1.279-1.47-2.584-2.918-3.875-4.378
			c-4.058-4.59-4.343-9.093-0.874-14.176c1.236-1.811,2.674-3.504,3.732-5.41c1.29-2.325,2.628-4.721,3.324-7.257
			c1.654-6.031-1.174-10.565-7.175-12.302c-2.406-0.697-4.65-0.068-6.943,0.462c-4.173,0.965-7.315-0.236-9.65-3.802
			c-0.745-1.138-1.302-2.422-1.792-3.698c-0.785-2.044-1.443-4.136-2.152-6.208c-0.92-2.691-2.613-4.85-4.709-6.701
			c-3.663-3.234-8.269-3.331-11.858-0.04c-1.713,1.571-3.077,3.529-4.556,5.347c-1.328,1.632-2.436,3.478-3.928,4.937
			c-3.282,3.209-7.201,4.31-11.633,2.655c-1.971-0.736-3.894-1.608-5.807-2.489c-1.768-0.814-3.482-1.745-5.241-2.579
			c-1.843-0.874-3.766-0.897-5.709-0.374c-5.373,1.446-8.701,6.796-7.204,12.184c1.85,6.659,0.231,12.324-4.163,17.405
			c-0.85,0.983-1.725,1.944-2.562,2.937C301.43,181.252,300.231,184.356,300.444,187.437z M308.127,228.176
			c-0.354-0.164-0.696-0.371-1.065-0.485c-7.303-2.255-14.792-3.183-22.359-2.185c-10.77,1.421-21.491,3.214-32.236,4.822
			c-7.654,1.145-15.326,1.709-23.019,0.371c-3.808-0.662-7.602-1.407-11.285-2.093c0.034,0.04,0.157,0.257,0.341,0.389
			c7.8,5.583,16.485,8.567,26.079,8.936c11.674,0.448,23.161-0.719,34.465-3.727C288.6,231.664,298.077,228.706,308.127,228.176z
			 M164.644,209.101c4.197-1.346,8.086-2.768,12.071-3.83c6.421-1.712,13.023-1.596,19.61-1.569
			c7.475,0.031,14.951-0.112,22.349-1.345c5.598-0.933,11.236-1.675,16.592-3.738c9.408-3.624,17.471-9.242,24.567-16.328
			c0.268-0.268,0.498-0.574,0.746-0.862c-0.944,0.124-1.71,0.491-2.437,0.924c-19.148,11.378-39.727,17.385-62.131,16.945
			c-4.925-0.097-9.893,0.489-14.794,1.126C174.737,201.264,169.231,204.213,164.644,209.101z M103.655,239.411
			c1.25,1.885,2.116,0.541,2.894-0.064c8.126-6.315,17.284-10.513,27.073-13.518c7.702-2.364,15.564-3.972,23.489-5.284
			c5.041-0.835,10.105-1.74,15.193-2.029c9.806-0.556,19.642-0.578,29.454-1.052c6.888-0.333,13.795-0.772,20.627-1.671
			c7.15-0.941,14.235-2.413,21.318-3.807c2.912-0.573,5.744-1.549,8.718-2.37c-0.307-0.972-0.517-1.638-0.729-2.309
			c-1.334,0.321-2.513,0.617-3.697,0.887c-17.004,3.876-34.322,5.15-51.658,6.376c-9.471,0.67-18.945,1.452-28.368,2.601
			c-13.328,1.625-26.251,5.157-39.074,9.063C119.7,229.034,111.596,233.862,103.655,239.411z M247.594,184.811
			c-0.052-0.215-0.104-0.43-0.156-0.645c-1.073,0.291-2.157,0.548-3.217,0.879c-13.035,4.072-26.396,5.94-40.033,6.078
			c-5.518,0.056-11.037,0.262-16.55,0.516c-1.85,0.085-3.722,0.378-5.518,0.836c-7.573,1.929-13.23,6.65-17.994,12.614
			c-0.09,0.113-0.036,0.341-0.066,0.74c0.569-0.469,0.945-0.766,1.308-1.079c4.681-4.035,10.129-6.336,16.21-7.268
			c5.631-0.863,11.29-1.174,16.981-1.228c3.891-0.037,7.793-0.182,11.669-0.518c9.942-0.861,19.427-3.644,28.697-7.202
			C241.858,187.408,244.707,186.059,247.594,184.811z M298.042,222.828c0.048-0.159,0.095-0.318,0.143-0.477
			c-1.591-0.508-3.158-1.113-4.776-1.509c-9.693-2.371-19.472-2.135-29.264-0.787c-9.401,1.293-18.776,2.785-28.191,3.96
			c-5.709,0.713-11.468,1.273-17.229,0.288c-0.443-0.076-0.91-0.01-1.365-0.01c1.775,1.058,3.62,1.87,5.55,2.281
			c7.745,1.646,15.59,2.372,23.47,1.379c9.092-1.145,18.154-2.53,27.218-3.891c7.714-1.158,15.416-2.355,23.248-1.24
			C297.237,222.877,297.643,222.828,298.042,222.828z M296.114,188.133c-3.817,1.408-7.339,2.612-10.783,4.006
			c-3.151,1.276-6.238,2.718-9.312,4.173c-0.865,0.41-1.584,1.126-2.37,1.701c0.081,0.121,0.163,0.242,0.244,0.363
			c7.439-2.376,14.877-4.752,22.221-7.098C296.114,190.149,296.114,189.352,296.114,188.133z M269.578,201.709
			c-4.235,1.513-8.341,2.948-12.417,4.465c-0.756,0.282-1.387,0.898-2.32,1.524c1.51,0.986,2.797,1.174,4.03,0.862
			c4.125-1.042,8.219-2.206,12.395-3.343C270.67,203.978,270.184,202.968,269.578,201.709z M276.758,203.751
			c7.729,0.66,14.838-1.958,22.26-3.967c-0.46-0.761-0.781-1.292-1.074-1.778C290.778,199.949,283.768,201.85,276.758,203.751z
			 M277.264,199.931c0.038,0.204,0.076,0.407,0.114,0.611c6.607-1.332,13.164-2.876,19.781-4.558
			c-0.307-0.994-0.517-1.674-0.78-2.526C289.928,195.643,283.596,197.787,277.264,199.931z"/>
		<path style="fill:#E9BCCC;" d="M300.444,187.437c-0.213-3.081,0.986-6.185,3.277-8.906c0.837-0.993,1.712-1.954,2.562-2.937
			c4.394-5.081,6.014-10.746,4.163-17.405c-1.497-5.388,1.831-10.737,7.204-12.184c1.943-0.523,3.866-0.5,5.709,0.374
			c1.759,0.834,3.473,1.766,5.241,2.579c1.913,0.88,3.836,1.753,5.807,2.489c4.432,1.654,8.351,0.554,11.633-2.655
			c1.492-1.459,2.599-3.305,3.928-4.937c1.479-1.818,2.843-3.776,4.556-5.347c3.588-3.29,8.195-3.193,11.858,0.04
			c2.096,1.851,3.789,4.011,4.709,6.701c0.709,2.073,1.367,4.165,2.152,6.208c0.49,1.276,1.047,2.561,1.792,3.698
			c2.335,3.566,5.477,4.767,9.65,3.802c2.292-0.53,4.536-1.159,6.943-0.462c6,1.737,8.829,6.271,7.175,12.302
			c-0.696,2.536-2.034,4.932-3.324,7.257c-1.058,1.906-2.496,3.599-3.732,5.41c-3.469,5.083-3.184,9.587,0.874,14.176
			c1.291,1.46,2.596,2.907,3.875,4.378c3.077,3.538,5.092,7.494,4.985,12.338c-0.128,5.787-4.2,10.148-9.99,10.624
			c-2.643,0.217-5.122-0.36-7.621-1.217c-4.598-1.577-9.215-3.148-13.919-4.349c-5.997-1.531-11.381,0.304-16.269,3.832
			c-1.25,0.902-2.403,1.938-3.652,2.84c-2.671,1.927-5.663,2.636-8.957,2.505c-8.113-0.322-13.699-4.397-17.354-11.427
			c-1.347-2.591-2.542-5.266-3.97-7.81c-2.116-3.771-5.302-6.241-9.471-7.535c-7.073-2.195-9.375-5.255-9.752-12.65
			C300.504,188.764,300.486,188.358,300.444,187.437z M348.169,204.799c11.899-0.032,21.545-9.557,21.45-21.306
			c-0.113-13.938-12.383-21.466-21.837-21.262c-11.609,0.251-20.918,9.728-20.852,21.609
			C326.993,195.38,336.569,204.83,348.169,204.799z"/>
		<path style="fill:#3D6747;" d="M164.644,209.101c4.587-4.888,10.093-7.837,16.572-8.678c4.901-0.637,9.87-1.222,14.794-1.126
			c22.404,0.44,42.983-5.567,62.131-16.945c0.727-0.432,1.493-0.8,2.437-0.924c-0.248,0.288-0.477,0.594-0.746,0.862
			c-7.096,7.086-15.159,12.704-24.567,16.328c-5.356,2.063-10.994,2.805-16.592,3.738c-7.398,1.233-14.874,1.376-22.349,1.345
			c-6.587-0.027-13.189-0.143-19.61,1.569C172.73,206.333,168.841,207.755,164.644,209.101z"/>
		<path style="fill:#3D6747;" d="M103.655,239.411c7.94-5.548,16.045-10.376,25.24-13.178c12.823-3.907,25.746-7.438,39.074-9.063
			c9.422-1.149,18.897-1.931,28.368-2.601c17.335-1.226,34.654-2.5,51.658-6.376c1.184-0.27,2.363-0.566,3.697-0.887
			c0.212,0.671,0.422,1.337,0.729,2.309c-2.973,0.822-5.806,1.797-8.718,2.37c-7.083,1.394-14.168,2.866-21.318,3.807
			c-6.832,0.899-13.738,1.338-20.627,1.671c-9.812,0.475-19.648,0.496-29.454,1.052c-5.087,0.289-10.152,1.195-15.193,2.029
			c-7.925,1.312-15.787,2.92-23.489,5.284c-9.79,3.005-18.947,7.203-27.073,13.518C105.772,239.951,104.905,241.295,103.655,239.411
			z"/>
		<path style="fill:#3D6747;" d="M247.594,184.811c-2.887,1.247-5.736,2.597-8.67,3.723c-9.27,3.558-18.755,6.342-28.697,7.202
			c-3.876,0.336-7.777,0.481-11.669,0.518c-5.691,0.054-11.351,0.365-16.981,1.228c-6.081,0.932-11.529,3.233-16.21,7.268
			c-0.363,0.313-0.738,0.61-1.308,1.079c0.03-0.398-0.024-0.627,0.066-0.74c4.763-5.964,10.421-10.685,17.994-12.614
			c1.796-0.458,3.668-0.751,5.518-0.836c5.513-0.254,11.032-0.46,16.55-0.516c13.637-0.138,26.998-2.006,40.033-6.078
			c1.061-0.331,2.144-0.588,3.217-0.879C247.49,184.382,247.542,184.596,247.594,184.811z"/>
		<path style="fill:#3D6747;" d="M296.114,188.133c0,1.219,0,2.016,0,3.146c-7.344,2.346-14.782,4.722-22.221,7.098
			c-0.081-0.121-0.163-0.242-0.244-0.363c0.786-0.576,1.506-1.292,2.37-1.701c3.074-1.456,6.161-2.898,9.312-4.173
			C288.775,190.745,292.297,189.541,296.114,188.133z"/>
		<path style="fill:#3D6747;" d="M269.578,201.709c0.606,1.258,1.092,2.269,1.688,3.508c-4.176,1.137-8.27,2.301-12.395,3.343
			c-1.233,0.311-2.52,0.124-4.03-0.862c0.933-0.626,1.564-1.242,2.32-1.524C261.236,204.657,265.343,203.222,269.578,201.709z"/>
		<path style="fill:#3D6747;" d="M276.758,203.751c7.01-1.901,14.021-3.802,21.186-5.745c0.294,0.486,0.614,1.017,1.074,1.778
			C291.595,201.793,284.487,204.411,276.758,203.751z"/>
		<path style="fill:#3D6747;" d="M277.264,199.931c6.332-2.144,12.664-4.288,19.115-6.473c0.263,0.852,0.473,1.532,0.78,2.526
			c-6.617,1.682-13.175,3.226-19.781,4.558C277.34,200.339,277.302,200.135,277.264,199.931z"/>
		<path style="fill:#4F8559;" d="M348.169,204.799c-11.599,0.031-21.176-9.418-21.239-20.958
			c-0.066-11.881,9.243-21.358,20.852-21.609c9.454-0.204,21.724,7.324,21.837,21.262
			C369.714,195.242,360.068,204.767,348.169,204.799z M348.21,165.61c-10.071,0.047-17.93,7.802-17.9,17.662
			c0.03,9.963,7.859,17.606,17.822,17.79c8.762,0.161,17.715-7.396,17.537-18.033C365.502,173.088,358.183,165.553,348.21,165.61z"
			/>
		<path style="fill:#FFFFFF;" d="M348.21,165.61c9.973-0.057,17.293,7.478,17.459,17.419c0.178,10.637-8.775,18.194-17.537,18.033
			c-9.963-0.184-17.792-7.826-17.822-17.79C330.279,173.412,338.139,165.657,348.21,165.61z M354.191,176.169
			c-1.204,0-2.291,1.132-2.26,2.353c0.03,1.15,1.008,2.224,2.085,2.288c1.181,0.07,2.307-1.003,2.368-2.256
			C356.445,177.286,355.419,176.17,354.191,176.169z M359.269,185.341c-1.177-0.042-2.139,0.896-2.171,2.117
			c-0.032,1.247,0.805,2.214,1.994,2.302c1.21,0.09,2.22-0.762,2.324-1.959C361.522,186.578,360.48,185.384,359.269,185.341z
			 M341.156,195.491c1.175,0.044,2.211-0.952,2.199-2.113c-0.011-1.042-0.967-2.044-1.994-2.091
			c-1.163-0.053-2.182,0.951-2.173,2.14C339.196,194.541,340.064,195.451,341.156,195.491z M350.192,185.865
			c0.035-1.161-0.946-2.145-2.154-2.159c-1.155-0.014-2.039,0.773-2.123,1.891c-0.091,1.207,0.78,2.199,2.007,2.284
			C349.124,187.963,350.156,187.047,350.192,185.865z M353.682,173.803c1.2,0.03,2.112-0.925,2.08-2.179
			c-0.029-1.157-0.839-1.977-1.984-2.006c-1.159-0.03-1.998,0.74-2.077,1.904C351.618,172.757,352.5,173.773,353.682,173.803z
			 M354.97,195.232c0.043-1.092-0.808-2.048-1.896-2.132c-1.203-0.093-2.217,0.856-2.194,2.053c0.022,1.099,0.918,2.002,2.011,2.025
			C353.992,197.202,354.927,196.327,354.97,195.232z M363.995,178.962c0.002-1.213-0.929-2.125-2.138-2.094
			c-1.134,0.029-1.924,0.858-1.925,2.018c-0.001,1.238,0.903,2.123,2.129,2.084C363.205,180.934,363.994,180.114,363.995,178.962z
			 M348.801,197.782c-0.028-1.106-0.954-1.953-2.09-1.914c-1.138,0.039-1.969,0.932-1.928,2.072c0.041,1.134,0.953,1.986,2.07,1.933
			C347.944,199.82,348.829,198.871,348.801,197.782z M338.099,182.739c0.011-1.109-0.869-1.962-2.013-1.952
			c-1.151,0.01-1.964,0.869-1.912,2.022c0.045,1.006,0.855,1.811,1.867,1.858C337.126,184.715,338.089,183.814,338.099,182.739z
			 M335.371,191.49c0.975-0.054,1.78-0.931,1.77-1.928c-0.01-1.118-0.955-1.954-2.065-1.826c-0.973,0.112-1.755,1.051-1.674,2.012
			C333.482,190.7,334.434,191.542,335.371,191.49z M350.13,168.235c-0.051-0.891-0.877-1.702-1.746-1.715
			c-0.966-0.014-1.869,0.928-1.815,1.894c0.051,0.91,0.854,1.693,1.748,1.704C349.307,170.132,350.187,169.218,350.13,168.235z
			 M336.789,173.119c-1.029,0.063-1.748,0.906-1.678,1.965c0.068,1.026,0.941,1.83,1.913,1.762c0.974-0.068,1.749-0.983,1.688-1.99
			C338.649,173.813,337.81,173.056,336.789,173.119z M345.816,176.981c-1.031-0.045-1.853,0.694-1.919,1.725
			c-0.065,1.015,0.702,1.881,1.709,1.931c0.997,0.049,1.861-0.735,1.918-1.742C347.582,177.855,346.842,177.025,345.816,176.981z
			 M342.943,170.454c-0.901-0.064-1.697,0.683-1.732,1.626c-0.038,1.011,0.768,1.917,1.739,1.957
			c0.936,0.038,1.734-0.69,1.769-1.614C344.754,171.467,343.902,170.522,342.943,170.454z"/>
		<path style="fill:#4F8559;" d="M354.191,176.169c1.229,0,2.254,1.116,2.193,2.385c-0.061,1.253-1.187,2.326-2.368,2.256
			c-1.077-0.064-2.055-1.138-2.085-2.288C351.9,177.301,352.987,176.169,354.191,176.169z"/>
		<path style="fill:#4F8559;" d="M359.269,185.341c1.211,0.043,2.253,1.237,2.147,2.46c-0.104,1.197-1.114,2.049-2.324,1.959
			c-1.189-0.089-2.026-1.055-1.994-2.302C357.129,186.237,358.091,185.299,359.269,185.341z"/>
		<path style="fill:#4F8559;" d="M341.156,195.491c-1.092-0.041-1.96-0.95-1.969-2.064c-0.009-1.189,1.011-2.193,2.173-2.14
			c1.027,0.047,1.983,1.049,1.994,2.091C343.368,194.539,342.332,195.535,341.156,195.491z"/>
		<path style="fill:#4F8559;" d="M350.192,185.865c-0.036,1.182-1.068,2.098-2.27,2.015c-1.227-0.085-2.099-1.076-2.007-2.284
			c0.085-1.118,0.968-1.905,2.123-1.891C349.246,183.72,350.227,184.704,350.192,185.865z"/>
		<path style="fill:#4F8559;" d="M353.682,173.803c-1.182-0.03-2.064-1.046-1.981-2.281c0.079-1.164,0.918-1.934,2.077-1.904
			c1.144,0.029,1.954,0.848,1.984,2.006C355.794,172.878,354.882,173.833,353.682,173.803z"/>
		<path style="fill:#4F8559;" d="M354.97,195.232c-0.043,1.095-0.978,1.97-2.079,1.947c-1.093-0.023-1.989-0.926-2.011-2.025
			c-0.024-1.197,0.99-2.146,2.194-2.053C354.162,193.184,355.012,194.14,354.97,195.232z"/>
		<path style="fill:#4F8559;" d="M363.995,178.962c-0.001,1.153-0.79,1.972-1.934,2.008c-1.225,0.039-2.13-0.846-2.129-2.084
			c0.001-1.16,0.792-1.989,1.925-2.018C363.066,176.837,363.997,177.748,363.995,178.962z"/>
		<path style="fill:#4F8559;" d="M348.801,197.782c0.028,1.09-0.856,2.038-1.948,2.091c-1.116,0.053-2.029-0.799-2.07-1.933
			c-0.041-1.14,0.79-2.033,1.928-2.072C347.847,195.828,348.772,196.676,348.801,197.782z"/>
		<path style="fill:#4F8559;" d="M338.099,182.739c-0.01,1.075-0.973,1.976-2.058,1.927c-1.012-0.046-1.822-0.852-1.867-1.858
			c-0.052-1.152,0.761-2.012,1.912-2.022C337.23,180.777,338.11,181.63,338.099,182.739z"/>
		<path style="fill:#4F8559;" d="M335.371,191.49c-0.937,0.052-1.889-0.791-1.969-1.742c-0.081-0.96,0.701-1.9,1.674-2.012
			c1.11-0.128,2.055,0.707,2.065,1.826C337.151,190.56,336.346,191.436,335.371,191.49z"/>
		<path style="fill:#4F8559;" d="M350.13,168.235c0.056,0.983-0.823,1.897-1.813,1.884c-0.894-0.012-1.697-0.795-1.748-1.704
			c-0.054-0.966,0.849-1.908,1.815-1.894C349.254,166.534,350.079,167.344,350.13,168.235z"/>
		<path style="fill:#4F8559;" d="M336.789,173.119c1.021-0.063,1.859,0.694,1.923,1.736c0.062,1.007-0.714,1.922-1.688,1.99
			c-0.973,0.068-1.846-0.735-1.913-1.762C335.042,174.025,335.761,173.182,336.789,173.119z"/>
		<path style="fill:#4F8559;" d="M345.816,176.981c1.026,0.045,1.766,0.875,1.708,1.914c-0.056,1.006-0.921,1.791-1.918,1.742
			c-1.008-0.05-1.774-0.916-1.709-1.931C343.963,177.675,344.785,176.936,345.816,176.981z"/>
		<path style="fill:#4F8559;" d="M342.943,170.454c0.959,0.068,1.811,1.014,1.776,1.969c-0.035,0.924-0.833,1.652-1.769,1.614
			c-0.971-0.04-1.777-0.946-1.739-1.957C341.246,171.137,342.042,170.39,342.943,170.454z"/>
	</g>
	<g>
		<path style="fill:#4F8559;" d="M337.734,347.493c-0.487,0.823-0.974,1.645-1.462,2.468c-2.661,4.488-6.048,8.252-10.783,10.617
			c-0.893,0.446-1.304,1.038-1.579,1.972c-0.48,1.629-1.025,3.263-1.768,4.785c-3.169,6.489-8.824,9.324-15.877,7.821
			c-2.344-0.499-4.575-1.528-7.171-2.422c-0.296,2.281-0.634,4.714-0.923,7.153c-0.353,2.984-0.602,5.981-1.022,8.955
			c-0.167,1.183-0.526,2.392-1.064,3.455c-0.702,1.388-1.945,2.224-3.585,2.019c-1.621-0.203-2.679-1.26-3.032-2.788
			c-0.268-1.161-0.346-2.423-0.217-3.608c0.404-3.712,0.95-7.409,1.429-11.113c0.119-0.916,0.193-1.838-0.147-2.892
			c-0.454,0.634-0.875,1.296-1.368,1.898c-1.694,2.07-3.281,4.25-5.155,6.145c-2.37,2.396-5.387,3.609-8.785,3.632
			c-3.379,0.023-6.144-1.328-8.217-4.018c-0.491-0.638-0.914-1.328-1.497-2.183c-0.482,0.513-0.865,0.979-1.306,1.379
			c-1.915,1.738-3.661,3.75-5.813,5.121c-4.634,2.952-9.577,3.324-14.571,0.692c-0.208-0.109-0.439-0.174-0.879-0.345
			c-0.401,0.76-0.813,1.515-1.201,2.282c-1.736,3.425-3.749,6.651-6.604,9.278c-1.514,1.394-3.2,2.474-5.216,3.019
			c-4.367,1.179-8.522-0.849-9.84-5.233c-0.712-2.367-0.79-4.941-1.012-7.435c-0.142-1.597-0.027-3.216-0.027-5.12
			c-1.694,0.335-3.191,0.592-4.669,0.93c-4.588,1.049-9.163,2.155-13.758,3.173c-0.977,0.216-1.314,0.709-1.44,1.634
			c-0.471,3.459-0.971,6.914-1.53,10.359c-0.193,1.189-0.472,2.394-0.928,3.503c-0.499,1.214-1.582,1.886-2.902,1.872
			c-1.423-0.015-2.56-0.757-2.993-2.102c-0.363-1.132-0.602-2.393-0.505-3.565c0.253-3.07,0.651-6.133,1.113-9.18
			c1.241-8.188,2.531-16.369,3.84-24.547c0.217-1.358,0.576-2.7,0.971-4.019c0.205-0.685,0.527-1.388,0.976-1.936
			c1.186-1.447,3.236-1.183,3.935,0.553c0.35,0.87,0.474,1.906,0.418,2.851c-0.31,5.187-0.706,10.369-1.074,15.553
			c-0.034,0.477-0.07,0.953-0.104,1.419c1.84,0.319,14.793-3.002,19.339-4.953c0.142-2.489,0.246-5.077,0.449-7.657
			c0.293-3.722,0.596-7.445,1.026-11.152c0.147-1.268,0.574-2.54,1.085-3.72c0.584-1.35,1.789-1.966,2.898-1.769
			c1.155,0.206,1.948,1.099,2.208,2.601c0.124,0.717,0.185,1.456,0.174,2.184c-0.136,8.36-0.274,16.72-0.452,25.08
			c-0.068,3.166-0.289,6.329-0.342,9.495c-0.019,1.168,0.245,2.341,0.384,3.551c1.603-0.043,2.417-0.925,3.028-1.817
			c1.736-2.537,3.386-5.138,4.957-7.78c0.658-1.106,0.982-2.404,1.546-3.573c0.976-2.025,1.272-4.042,0.958-6.34
			c-0.895-6.538,3.435-18.948,12.526-23.478c5.508-2.745,10.77-2.686,15.746,1.235c0.178,0.14,0.425,0.193,0.788,0.351
			c0.275-0.793,0.503-1.543,0.793-2.268c0.812-2.034,2.261-3.08,3.786-2.768c1.497,0.307,2.368,1.556,2.308,3.804
			c-0.09,3.408-0.334,6.812-0.533,10.217c-0.243,4.133-0.52,8.265-0.749,12.399c-0.035,0.638,0.002,1.318,0.185,1.925
			c0.551,1.826,2.042,2.669,3.778,1.888c1.212-0.545,2.38-1.417,3.268-2.411c2.723-3.05,4.883-6.512,6.379-10.313
			c2.378-6.041,4.597-12.145,6.878-18.225c0.456-1.215,0.858-2.452,1.339-3.657c0.573-1.436,1.655-2.394,3.066-2.968
			c1.782-0.725,3.253-0.011,3.776,1.847c0.213,0.758,0.303,1.55,0.533,2.777c4.388-4.268,9.154-5.88,14.839-3.846
			c5.783,2.069,7.505,6.948,8.668,12.739c1.208-1.227,2.176-2.069,2.975-3.049c3.216-3.944,5.714-8.327,7.142-13.205
			c1.503-5.135,2.712-10.358,4.011-15.551c0.493-1.97,0.835-3.978,2.147-5.637c0.741-0.936,1.558-1.701,2.864-1.452
			c1.272,0.242,1.947,1.158,2.227,2.324c0.301,1.251,0.458,2.537,0.729,4.104c0.577-0.659,1.05-1.157,1.475-1.693
			c1.633-2.06,3.52-3.824,5.874-5.038c5.465-2.819,11.247-1.197,14.235,4.183c0.968,1.743,1.446,3.766,2.072,5.686
			c0.272,0.834,0.354,1.73,0.639,3.202c0.799-1.288,1.382-2.107,1.841-2.99c2.967-5.715,5.248-11.693,6.863-17.931
			c0.712-2.748,1.554-5.463,2.348-8.19c0.136-0.467,0.309-0.925,0.496-1.374c0.785-1.877,1.813-2.594,3.239-2.281
			c1.293,0.284,1.947,1.318,1.979,3.226c0.063,3.654,0.005,7.314,0.192,10.961c0.099,1.927,0.396,3.9,0.975,5.736
			c0.989,3.136,3.323,3.599,5.389,1.033c1.356-1.685,2.572-3.6,3.354-5.606c1.471-3.771,2.582-7.683,3.842-11.536
			c0.301-0.922,0.49-1.902,0.927-2.754c0.666-1.298,1.975-1.827,3.275-1.525c1.284,0.298,2.139,1.374,2.212,2.85
			c0.024,0.483-0.029,0.975-0.1,1.455c-1.508,10.198-3.032,20.393-4.526,30.593c-0.222,1.517-0.304,3.054-0.474,4.813
			c0.839,0.09,1.53,0.191,2.224,0.234c2.871,0.177,5.614,0.862,8.215,2.082c0.731,0.343,1.443,0.759,2.092,1.238
			c1.608,1.187,2.227,2.663,1.736,4.203c-0.564,1.771-1.947,2.613-3.693,2.663c-1.608,0.046-3.229-0.151-4.835-0.319
			c-2.32-0.243-4.632-0.557-7.123-0.862c-0.345,1.139-0.601,1.968-0.848,2.8c-1.583,5.344-3.885,10.34-7.342,14.739
			c-3.985,5.071-9.28,7.226-15.652,6.58c-1.58-0.16-3.202-0.647-4.64-1.331c-5.074-2.413-7.229-7.415-5.687-12.818
			c1.042-3.651,3.301-6.485,6.097-8.928c5.071-4.431,11.014-7.111,17.534-8.595c1.493-0.34,2.995-0.639,4.64-0.989
			c0.528-4.177,1.043-8.257,1.613-12.767c-2.87,1.341-5.529,2.15-8.358,1.043c-2.764-1.082-4.362-3.251-5.604-6.256
			c-0.44,0.99-0.716,1.629-1.006,2.26c-1.49,3.242-2.891,6.53-4.504,9.71c-1.407,2.773-3.362,5.192-5.801,7.141
			c-1.095,0.875-1.634,1.908-1.903,3.237c-0.765,3.785-2.128,7.352-4.501,10.426c-3.062,3.966-6.945,6.552-12.158,6.655
			c-2.081,0.041-4.022-0.446-5.828-1.48c-0.551-0.315-1.113-0.611-1.976-1.083c-0.174,1.591-0.32,2.928-0.468,4.266
			c-0.338,3.067-0.594,6.146-1.053,9.195c-0.214,1.421-0.719,2.828-1.286,4.159c-0.511,1.2-1.573,1.91-2.923,1.798
			c-1.335-0.111-2.355-0.924-2.622-2.209c-0.359-1.731-0.675-3.529-0.596-5.28c0.182-4.054,0.619-8.096,0.939-12.144
			c0.133-1.68,0.233-3.362,0.348-5.044C338.099,347.563,337.917,347.528,337.734,347.493z M261.647,362.244
			c-0.08-0.854-0.143-2.155-0.336-3.436c-0.301-1.992-0.952-2.613-2.953-2.907c-2.44-0.36-4.426,0.668-6.266,2.119
			c-4.195,3.307-8.07,11.365-5.657,18.246c1.206,3.441,3.475,4.588,6.76,2.951c2.145-1.069,3.952-2.616,5.144-4.711
			C260.417,370.855,261.704,366.954,261.647,362.244z M394.267,343.659c-6.614,1.345-12.227,3.426-16.861,7.639
			c-0.764,0.695-1.418,1.58-1.91,2.491c-1.483,2.746-0.317,5.105,2.755,5.496c3.202,0.408,6.184-0.287,8.552-2.591
			C390.371,353.221,392.409,348.841,394.267,343.659z M361.822,339.304c-1.919-0.755-3.695-1.307-5.331-2.136
			c-1.777-0.9-3.129-2.378-3.811-4.262c-0.592-1.635-0.906-3.372-1.343-5.063c-1.17,1.993-1.997,4.002-2.728,6.046
			c-1.242,3.47-0.647,6.934,0.607,10.194c1.265,3.287,4.641,4.184,7.662,2.359C359.615,344.786,360.895,342.149,361.822,339.304z
			 M304.551,350.642c-1.61,2.167-2.949,4.237-3.839,6.583c-0.108,0.285-0.087,0.653-0.024,0.962
			c0.341,1.668,0.576,3.376,1.105,4.985c1.196,3.633,3.85,5.03,8.35,4.59c2.846-0.278,4.835-2.48,5.349-5.924
			C308.761,358.945,306.301,356.183,304.551,350.642z M363.055,332.891c0.403-3.397,0.246-6.612-0.623-9.765
			c-0.54-1.959-1.773-2.976-3.355-3.034c-1.526-0.056-2.277,0.577-2.274,2.099c0.005,2.022-0.01,4.058,0.206,6.064
			C357.373,331.62,359.313,333.105,363.055,332.891z M310.007,346.759c0.001,3.95,2.769,7.21,6.607,7.782
			c0.188-2.094,0.021-3.19-0.747-4.908C314.75,347.136,312.931,346.244,310.007,346.759z"/>
		<path style="fill:#4F8559;" d="M304.485,316.483c-2.91,0.628-5.828,1.222-8.728,1.891c-14.503,3.349-29.243,4.037-44.052,3.967
			c-4.062-0.019-8.125-0.029-12.187-0.078c-1.33-0.016-2.465,0.251-3.632,1.032c-1.256,0.84-2.767,1.346-4.222,1.83
			c-2.917,0.97-5.871,1.826-8.749,2.71c-0.259,2.862-0.373,5.701-0.794,8.494c-1.928,12.804-14.36,17.853-23.642,15.899
			c-2.439-0.513-4.819-1.303-7.347-1.998c0.272,1.782,0.601,3.511,0.792,5.255c0.939,8.583-3.787,15.401-12.176,17.309
			c-7.017,1.596-13.73,0.256-20.122-2.785c-2.727-1.297-4.182-3.825-5.093-6.575c-0.633-1.91-0.922-3.933-1.441-6.246
			c-0.702,0.479-1.397,0.925-2.062,1.411c-5.607,4.1-11.971,6.139-18.818,6.588c-6.727,0.442-12.183-2.366-16.492-7.38
			c-6.464-7.521-8.254-16.358-6.969-25.987c0.768-5.756,4.453-9.013,9.566-10.93c3.619-1.357,7.427-1.679,11.271-1.615
			c0.792,0.013,1.583,0.002,2.754,0.002c-0.631-0.868-1.069-1.5-1.537-2.109c-2.239-2.915-4.195-5.989-5.305-9.528
			c-2.179-6.942-0.337-13.301,5.219-18c2.509-2.122,5.304-3.743,8.483-4.649c5.13-1.462,10.312-2.157,15.646-1.247
			c3.572,0.609,6.613,2.106,9.099,4.764c2.691,2.877,4.891,6.085,6.445,9.693c2.415,5.606,4.532,11.312,5.028,17.478
			c0.011,0.135,0.151,0.26,0.352,0.588c0.908-0.407,1.835-0.868,2.794-1.247c5.128-2.027,10.21-4.188,15.412-6.005
			c5.048-1.763,10.206-1.761,15.285,0.127c3.168,1.178,6.045,2.832,8.235,5.451c0.778,0.931,1.593,1.168,2.74,1.073
			c3.233-0.268,6.473-0.455,9.713-0.635c1.134-0.063,2.361-0.287,3.396,0.038c3.328,1.044,6.574,0.085,9.851-0.109
			c7.784-0.463,15.572-0.87,23.348-1.447c5.018-0.372,10.018-0.998,15.025-1.531c0.449-0.048,0.882-0.245,1.336-0.721
			c-0.569-0.111-1.133-0.264-1.707-0.325c-7.11-0.753-14.228-1.268-21.388-1.376c-6.572-0.099-13.154-0.414-19.7-0.989
			c-2.864-0.252-5.694-1.252-8.46-2.157c-3.856-1.261-7.636-2.754-11.704-3.244c-0.837-0.101-1.63-0.346-1.795-1.34
			c-0.158-0.953,0.38-1.59,1.177-1.915c1.045-0.426,2.123-0.872,3.228-1.03c5.946-0.851,11.899-1.648,17.859-2.397
			c3.222-0.405,6.454-0.76,9.692-0.993c7.579-0.544,14.83,1.399,22.101,3.099c6.089,1.423,11.55,4.18,16.684,7.743
			c6.908,4.795,4.786,4.206,12.894,2.311c2.212-0.517,4.406-1.116,6.605-1.69c5.362-1.4,10.552-3.262,15.396-5.978
			c10.43-5.846,20.444-12.332,29.862-19.708c2.17-1.7,4.16-3.63,6.228-5.459c0.608-0.538,1.174-1.128,1.809-1.632
			c1.117-0.887,2.335-1.584,3.8-0.888c1.548,0.737,2.104,2.254,2.353,3.754c0.104,0.623-0.46,1.559-0.996,2.054
			c-4.235,3.912-8.339,8.003-12.861,11.558c-7.924,6.23-16.496,11.553-25.189,16.643c-2.436,1.426-4.838,2.599-6.398,5.162
			c-1.468,2.413-3.538,4.455-5.06,6.841c-3.834,6.01-8.573,10.997-14.996,14.268c-1.371,0.698-2.652,1.576-3.966,2.385
			c-3.862,2.379-8.055,3.781-12.543,4.401c-4.1,0.566-8.175,1.33-12.281,1.842c-8.238,1.027-16.37,0.217-24.422-1.664
			c-5.374-1.255-10.754-2.48-16.13-3.728c-0.71-0.165-1.471-0.276-2.088-0.625c-0.423-0.239-0.872-0.839-0.883-1.288
			c-0.011-0.441,0.417-1.109,0.827-1.299c0.787-0.365,1.707-0.672,2.555-0.635c3.703,0.164,7.262-0.621,10.839-1.382
			c7.211-1.536,14.517-1.444,21.837-1.298c4.296,0.085,8.599-0.034,12.894-0.194c3.224-0.12,6.202-1.194,8.949-2.877
			c1.177-0.721,2.347-1.458,3.476-2.251C295.645,321.981,299.586,318.532,304.485,316.483z M239.391,300.049
			c6.581-0.714,13.157-0.628,19.645,0.678c8.521,1.715,16.82,4.261,24.98,7.252c0.694,0.254,1.398,0.479,2.097,0.718
			c-0.36-0.771-0.87-1.158-1.409-1.497c-3.944-2.479-8.138-4.398-12.667-5.528c-6.536-1.631-13.065-3.464-19.873-3.291
			c-3.966,0.101-7.921,0.644-11.877,1.036C239.983,299.447,239.391,300.049,239.391,300.049z M149.916,287.44
			c-5.344,0.177-10.756,1.569-14.222,3.806c-6.973,4.5-8.75,10.887-4.893,18.27c1.193,2.283,2.779,4.372,4.288,6.476
			c1.229,1.712,2.709,3.248,3.899,4.984c1.089,1.589,0.237,3.145-1.677,3.211c-0.879,0.03-1.775-0.154-2.651-0.312
			c-4.885-0.88-9.717-0.641-14.438,0.869c-4.383,1.401-7.358,4.074-7.483,9.051c-0.006,0.242-0.079,0.481-0.097,0.724
			c-0.581,7.864,1.221,15.024,6.532,21.021c3.72,4.2,8.448,6.353,14.108,5.656c7.36-0.906,13.953-3.606,19.199-9.077
			c0.672-0.701,1.318-1.485,2.13-1.975c0.536-0.323,1.398-0.378,2.024-0.212c0.869,0.23,1.169,1.059,1.125,1.947
			c-0.016,0.322-0.096,0.64-0.154,0.959c-0.64,3.454-0.11,6.794,1.14,10.015c0.653,1.683,1.658,3.141,3.472,3.876
			c4.665,1.891,9.485,2.846,14.516,2.351c7.5-0.738,11.95-6.36,10.943-13.813c-0.271-2.003-0.866-3.963-1.117-5.968
			c-0.357-2.858,1.07-3.927,3.752-3.007c2.146,0.736,4.285,1.513,6.472,2.103c4.475,1.207,8.838,0.817,13.047-1.187
			c3.798-1.808,6.437-4.676,7.653-8.686c1.59-5.244,1.715-10.538,0.076-15.829c-1.646-5.314-5.195-8.67-10.446-10.322
			c-4.191-1.319-8.383-1.07-12.443,0.366c-5.194,1.837-10.303,3.916-15.443,5.906c-1.738,0.673-3.414,1.551-5.197,2.056
			c-2.103,0.595-3.177-0.59-3.01-2.773c0.122-1.59,0.173-3.238-0.102-4.798c-0.922-5.229-2.795-10.162-5.134-14.911
			c-1.335-2.711-3.092-5.141-5.29-7.241c-1.569-1.499-3.382-2.528-5.529-2.874C153.292,287.829,151.6,287.656,149.916,287.44z
			 M238.85,319.536c4.223,0.134,8.351,0.348,12.481,0.381c14.704,0.119,29.355-0.221,43.82-3.453
			c12.73-2.844,25.118-6.478,36.35-13.339c11.168-6.821,22.089-13.973,31.427-23.268c0.913-0.909,1.89-1.753,2.96-2.74
			c-0.485-0.667-0.882-1.214-1.437-1.978c-1.911,1.745-3.598,3.359-5.363,4.883c-7.762,6.701-16.377,12.217-24.812,18.002
			c-10.43,7.154-21.923,11.543-34.215,13.987c-4.845,0.963-9.772,1.529-14.671,2.209c-10.777,1.495-21.583,2.628-32.484,2.723
			c-4.543,0.04-9.083,0.345-13.624,0.544c-0.223,0.01-0.441,0.161-0.682,0.254c-0.012,0.262-0.051,0.502-0.025,0.735
			C238.603,318.712,238.693,318.942,238.85,319.536z M253.757,337.808c5.438,1.548,11.088,2.165,16.756,1.689
			c5.818-0.489,11.61-1.349,17.393-2.183c2.743-0.396,5.333-1.392,7.74-2.813c3.006-1.775,6.03-3.521,9.035-5.299
			c5.418-3.206,8.706-8.264,11.758-13.584c-0.783,0.229-1.504,0.545-2.102,1.018c-3.436,2.721-6.858,5.459-10.254,8.229
			c-5.888,4.803-12.107,9.117-19.431,11.362c-7.287,2.234-14.866,2.49-22.436,2.292
			C259.392,338.444,256.576,338.054,253.757,337.808z M307.686,319.249c-0.076-0.13-0.152-0.259-0.228-0.389
			c-0.371,0.085-0.751,0.142-1.112,0.258c-3.13,1.008-5.887,2.703-8.528,4.62c-2.562,1.86-5.103,3.753-7.723,5.529
			c-3.216,2.182-6.789,3.535-10.682,3.723c-4.129,0.199-8.276,0.363-12.402,0.197c-6.096-0.245-12.175-0.349-18.25,0.294
			c-0.403,0.043-0.797,0.171-1.195,0.259c0.475,0.487,0.914,0.642,1.366,0.7c3.543,0.455,7.078,1.007,10.634,1.31
			c7.15,0.609,14.291,0.367,21.355-0.933c6.62-1.218,12.26-4.678,17.706-8.377C301.808,324.28,304.677,321.661,307.686,319.249z
			 M232.121,303.34c4.44,1.821,9.09,2.691,13.89,2.859c8.903,0.312,17.806,0.646,26.709,0.963c0.279,0.01,0.561-0.063,1.067-0.124
			C261.755,302.545,248.839,301.36,232.121,303.34z M221.286,320.458c0.323,2.013,0.331,2.043,1.94,1.62
			c1.634-0.429,3.257-0.901,4.871-1.399c0.889-0.275,1.748-0.643,2.621-0.97c-0.04-0.116-0.079-0.232-0.119-0.348
			C227.495,319.728,224.392,320.093,221.286,320.458z M220.275,318.305c1.8,0.729,8.506-0.156,11.367-1.345
			C227.647,317.036,223.91,317.209,220.275,318.305z M234.32,320.762c-3.957,1.078-7.916,2.151-11.866,3.256
			c-0.131,0.036-0.17,0.398-0.259,0.626C224.162,324.775,232.481,322.308,234.32,320.762z"/>
		<path style="fill:#E9BCCC;" d="M149.916,287.44c1.685,0.216,3.376,0.389,5.053,0.659c2.148,0.346,3.96,1.375,5.529,2.874
			c2.198,2.1,3.955,4.53,5.29,7.241c2.339,4.749,4.211,9.682,5.134,14.911c0.275,1.559,0.224,3.207,0.102,4.798
			c-0.167,2.183,0.907,3.368,3.01,2.773c1.783-0.504,3.459-1.382,5.197-2.056c5.14-1.991,10.249-4.069,15.443-5.906
			c4.06-1.436,8.252-1.685,12.443-0.366c5.25,1.652,8.8,5.008,10.446,10.322c1.639,5.291,1.513,10.585-0.076,15.829
			c-1.216,4.011-3.855,6.878-7.653,8.686c-4.209,2.004-8.572,2.394-13.047,1.187c-2.187-0.59-4.326-1.367-6.472-2.103
			c-2.683-0.92-4.11,0.149-3.752,3.007c0.251,2.004,0.846,3.965,1.117,5.968c1.007,7.453-3.443,13.075-10.943,13.813
			c-5.032,0.495-9.851-0.46-14.516-2.351c-1.814-0.735-2.819-2.194-3.472-3.876c-1.25-3.221-1.78-6.561-1.14-10.015
			c0.059-0.319,0.139-0.637,0.154-0.959c0.044-0.888-0.256-1.716-1.125-1.947c-0.626-0.166-1.488-0.111-2.024,0.212
			c-0.812,0.49-1.458,1.274-2.13,1.975c-5.245,5.471-11.838,8.171-19.199,9.077c-5.66,0.697-10.388-1.456-14.108-5.656
			c-5.311-5.997-7.113-13.157-6.532-21.021c0.018-0.242,0.091-0.482,0.097-0.724c0.125-4.977,3.1-7.65,7.483-9.051
			c4.721-1.51,9.552-1.749,14.438-0.869c0.875,0.158,1.771,0.342,2.651,0.312c1.914-0.066,2.766-1.621,1.677-3.211
			c-1.19-1.736-2.67-3.272-3.899-4.984c-1.51-2.104-3.095-4.192-4.288-6.476c-3.857-7.382-2.081-13.77,4.893-18.27
			C139.16,289.009,144.571,287.616,149.916,287.44z M163.194,320.666c-5.184,0.162-9.35,2.219-11.633,7.005
			c-2.324,4.872-1.367,9.492,1.984,13.634c2.352,2.907,5.477,4.544,9.113,5.167c4.944,0.847,10.772-1.565,13.117-5.58
			c2.611-4.471,2.622-9.595-0.508-13.947C172.321,322.849,168.228,320.852,163.194,320.666z"/>
		<path style="fill:#3D6747;" d="M253.757,337.808c2.82,0.246,5.636,0.636,8.46,0.71c7.57,0.198,15.149-0.059,22.436-2.292
			c7.324-2.245,13.543-6.559,19.431-11.362c3.396-2.77,6.818-5.508,10.254-8.229c0.597-0.473,1.319-0.789,2.102-1.018
			c-3.052,5.32-6.34,10.378-11.758,13.584c-3.005,1.778-6.029,3.524-9.035,5.299c-2.407,1.422-4.997,2.418-7.74,2.813
			c-5.783,0.834-11.575,1.694-17.393,2.183C264.844,339.973,259.195,339.356,253.757,337.808z"/>
		<path style="fill:#3D6747;" d="M307.686,319.249c-3.009,2.413-5.878,5.032-9.058,7.192c-5.446,3.699-11.086,7.159-17.706,8.377
			c-7.063,1.3-14.205,1.541-21.355,0.933c-3.556-0.303-7.091-0.855-10.634-1.31c-0.452-0.058-0.891-0.213-1.366-0.7
			c0.398-0.089,0.792-0.217,1.195-0.259c6.075-0.643,12.153-0.539,18.25-0.294c4.125,0.166,8.273,0.002,12.402-0.197
			c3.893-0.188,7.465-1.541,10.682-3.723c2.619-1.777,5.161-3.669,7.723-5.529c2.64-1.917,5.398-3.612,8.528-4.62
			c0.361-0.116,0.741-0.173,1.112-0.258C307.534,318.99,307.61,319.119,307.686,319.249z"/>
		<path style="fill:#4F8559;" d="M163.194,320.666c5.034,0.186,9.127,2.183,12.073,6.279c3.13,4.352,3.12,9.476,0.508,13.947
			c-2.346,4.016-8.173,6.427-13.117,5.58c-3.636-0.623-6.761-2.26-9.113-5.167c-3.351-4.142-4.308-8.763-1.984-13.634
			C153.844,322.884,158.01,320.828,163.194,320.666z M164.413,343.3c4.304,0.134,7.349-1.324,9.097-4.573
			c1.872-3.482,1.145-6.977-1.271-10.013c-2.856-3.588-6.675-5.079-11.21-4.469c-5.782,0.778-8.976,6.302-6.905,11.779
			C155.727,340.262,160.125,343.213,164.413,343.3z"/>
		<path style="fill:#FFFFFF;" d="M164.413,343.3c-4.288-0.088-8.686-3.039-10.289-7.276c-2.072-5.477,1.122-11.001,6.905-11.779
			c4.535-0.61,8.354,0.88,11.21,4.469c2.417,3.037,3.144,6.531,1.271,10.013C171.762,341.977,168.717,343.434,164.413,343.3z
			 M164.924,331.289c-1.025-0.049-1.927,0.729-1.984,1.712c-0.059,1.017,0.701,1.848,1.749,1.915
			c1.044,0.066,1.915-0.674,1.978-1.681C166.73,332.231,165.929,331.337,164.924,331.289z M173.015,332.441
			c-0.04-0.913-0.807-1.677-1.696-1.688c-1.058-0.013-2.008,0.991-1.917,2.024c0.076,0.861,0.914,1.564,1.838,1.542
			C172.231,334.296,173.058,333.422,173.015,332.441z M157.9,336.374c1.043-0.007,1.838-0.862,1.766-1.898
			c-0.065-0.938-0.826-1.635-1.782-1.633c-0.969,0.003-1.716,0.699-1.767,1.648C156.061,335.527,156.87,336.382,157.9,336.374z
			 M170.924,338.491c-0.016-0.952-0.763-1.66-1.727-1.639c-0.954,0.021-1.679,0.779-1.647,1.721c0.032,0.93,0.818,1.685,1.732,1.664
			C170.213,340.217,170.94,339.443,170.924,338.491z M162.93,340.773c0.942,0.067,1.695-0.617,1.726-1.566
			c0.029-0.911-0.733-1.753-1.613-1.701c-0.906,0.053-1.471,0.577-1.609,1.475C161.295,339.887,162.007,340.708,162.93,340.773z
			 M159.706,329.142c-0.005-0.953-0.758-1.666-1.72-1.581c-0.911,0.08-1.489,0.584-1.593,1.507c-0.1,0.885,0.706,1.717,1.623,1.741
			C158.927,330.834,159.711,330.061,159.706,329.142z M167.723,325.996c-0.716,0.904-1.355,1.402-1.551,2.037
			c-0.237,0.77,0.661,1.57,1.482,1.475c0.926-0.107,1.564-0.697,1.423-1.599C168.99,327.351,168.374,326.876,167.723,325.996z
			 M163.354,325.238c-0.822,0.055-1.468,0.835-1.323,1.668c0.142,0.814,0.631,1.283,1.502,1.209
			c0.848-0.072,1.295-0.599,1.363-1.403C164.964,325.902,164.171,325.184,163.354,325.238z"/>
		<path style="fill:#4F8559;" d="M164.924,331.289c1.005,0.048,1.805,0.942,1.743,1.945c-0.063,1.007-0.934,1.747-1.978,1.681
			c-1.049-0.066-1.808-0.898-1.749-1.915C162.997,332.018,163.899,331.24,164.924,331.289z"/>
		<path style="fill:#4F8559;" d="M173.015,332.441c0.043,0.98-0.784,1.855-1.775,1.878c-0.924,0.022-1.762-0.681-1.838-1.542
			c-0.091-1.033,0.859-2.037,1.917-2.024C172.208,330.764,172.975,331.528,173.015,332.441z"/>
		<path style="fill:#4F8559;" d="M157.9,336.374c-1.03,0.007-1.838-0.847-1.783-1.883c0.051-0.949,0.797-1.645,1.767-1.648
			c0.956-0.003,1.717,0.695,1.782,1.633C159.738,335.513,158.942,336.367,157.9,336.374z"/>
		<path style="fill:#4F8559;" d="M170.924,338.491c0.016,0.952-0.711,1.725-1.641,1.746c-0.915,0.021-1.7-0.734-1.732-1.664
			c-0.032-0.942,0.693-1.7,1.647-1.721C170.162,336.831,170.909,337.54,170.924,338.491z"/>
		<path style="fill:#4F8559;" d="M162.93,340.773c-0.923-0.065-1.635-0.886-1.496-1.792c0.138-0.898,0.702-1.422,1.609-1.475
			c0.88-0.051,1.642,0.79,1.613,1.701C164.625,340.157,163.872,340.84,162.93,340.773z"/>
		<path style="fill:#4F8559;" d="M159.706,329.142c0.005,0.918-0.779,1.692-1.69,1.667c-0.917-0.024-1.723-0.856-1.623-1.741
			c0.104-0.923,0.682-1.427,1.593-1.507C158.947,327.477,159.7,328.19,159.706,329.142z"/>
		<path style="fill:#4F8559;" d="M167.723,325.996c0.651,0.88,1.267,1.355,1.354,1.913c0.142,0.903-0.497,1.492-1.423,1.599
			c-0.821,0.095-1.719-0.706-1.482-1.475C166.368,327.398,167.007,326.9,167.723,325.996z"/>
		<path style="fill:#4F8559;" d="M163.354,325.238c0.817-0.055,1.61,0.663,1.542,1.473c-0.067,0.804-0.515,1.332-1.363,1.403
			c-0.871,0.074-1.36-0.395-1.502-1.209C161.886,326.074,162.533,325.294,163.354,325.238z"/>
		<path style="fill:#3D6747;" d="M238.85,319.536c-0.158-0.594-0.247-0.824-0.273-1.061c-0.026-0.233,0.013-0.473,0.025-0.735
			c0.241-0.094,0.459-0.244,0.682-0.254c4.541-0.199,9.081-0.505,13.624-0.544c10.9-0.095,21.706-1.227,32.484-2.723
			c4.899-0.68,9.826-1.246,14.671-2.209c12.292-2.443,23.785-6.833,34.215-13.987c8.434-5.785,17.049-11.302,24.812-18.002
			c1.765-1.523,3.452-3.138,5.363-4.883c0.555,0.764,0.953,1.311,1.437,1.978c-1.07,0.987-2.047,1.831-2.96,2.74
			c-9.338,9.295-20.259,16.447-31.427,23.268c-11.233,6.861-23.621,10.495-36.35,13.339c-14.465,3.232-29.117,3.572-43.82,3.453
			C247.201,319.884,243.073,319.67,238.85,319.536z"/>
	</g>
</g>
</svg>
