<?xml version="1.0" encoding="utf-8"?>
<!-- Generator: Adobe Illustrator 27.5.0, SVG Export Plug-In . SVG Version: 6.00 Build 0)  -->
<svg version="1.1" xmlns="http://www.w3.org/2000/svg" xmlns:xlink="http://www.w3.org/1999/xlink" x="0px" y="0px"
	 viewBox="0 0 750 500" style="enable-background:new 0 0 750 500;" xml:space="preserve">
<g id="BACKGROUND">
	<rect style="fill:#FFFFFF;" width="750" height="500"/>
</g>
<g id="OBJECTS">
	<g>
		<defs>
			<rect id="SVGID_1_" y="65.553" width="750" height="370.598"/>
		</defs>
		<clipPath id="SVGID_00000005252524218571483930000016800518025790769040_">
			<use xlink:href="#SVGID_1_"  style="overflow:visible;"/>
		</clipPath>
		<g style="clip-path:url(#SVGID_00000005252524218571483930000016800518025790769040_);">
			<path style="fill:#F1F1F1;" d="M760.962,71.425c-32.306,6.695-81.095,29.544-115.376,45.315
				c-5.841,2.687-3.493,11.523,2.908,10.91c0.059-0.006,0.117-0.011,0.175-0.017c5.829-0.581,13.206-0.401,15.635,4.929
				c3.015,6.616-4.798,12.782-11.331,15.975c-38.002,18.574-74.664,39.89-109.605,63.727c-1.542,1.052-2.949,2.311-4.054,3.815
				c-7.279,9.91,3.646,18.945,13.341,19.805c8.227,0.729,16.634-1.801,24.704-0.042c8.07,1.76,15.45,11.203,10.731,17.981
				c-5.076,7.291-19.636,5.252-21.49,13.901c-0.711,3.319,0.93,6.675,3.792,8.498c5.281,3.364,11.273,2.186,16.955,1.157
				c25.352-4.593,51.282-5.983,76.98-4.12c3.342,0.242,6.504,1.893,8.383,4.667c4.778,7.053-2.829,14.576-9.45,18.916
				c-28.217,18.492-56.435,36.983-84.652,55.475c-6.569,4.305-13.433,8.918-15.964,16.767c-1.225,3.801-0.961,7.999,1.222,11.343
				c3.983,6.101,11.417,5.827,17.648,4.222c6.451-1.662,12.879-4.527,19.643-1.959c3.127,1.187,5.53,3.924,5.906,7.248
				c0.896,7.901-10.429,11.247-9.087,19.299c0.437,2.623,2.192,4.819,4.501,6.139c4.906,2.806,10.453,1.939,15.719,1.036
				c50.083-8.59,99.819-19.201,149.047-31.8"/>
			<path style="fill:#F1F1F1;" d="M-43.742,421.063c32.32-6.629,81.155-29.378,115.469-45.079
				c5.847-2.675,3.516-11.516-2.885-10.916c-0.059,0.006-0.117,0.011-0.175,0.017c-5.83,0.569-13.207,0.374-15.625-4.961
				c-3.002-6.622,4.824-12.772,11.363-15.952c38.04-18.496,74.745-39.737,109.735-63.503c1.544-1.049,2.953-2.305,4.062-3.807
				c7.299-9.896-3.607-18.953-13.3-19.832c-8.226-0.746-16.638,1.767-24.704-0.009c-8.066-1.776-15.427-11.234-10.694-18.003
				c5.091-7.281,19.647-5.212,21.518-13.857c0.718-3.317-0.916-6.677-3.775-8.506c-5.274-3.374-11.268-2.209-16.952-1.191
				c-25.361,4.541-51.295,5.878-76.988,3.962c-3.341-0.249-6.5-1.907-8.374-4.684c-4.764-7.062,2.858-14.57,9.489-18.896
				c28.255-18.434,56.51-36.868,84.766-55.302c6.578-4.291,13.451-8.89,15.998-16.735c1.233-3.799,0.977-7.997-1.199-11.346
				c-3.971-6.11-11.405-5.851-17.639-4.258c-6.455,1.649-12.888,4.501-19.647,1.919c-3.124-1.193-5.521-3.936-5.891-7.26
				c-0.88-7.903,10.452-11.226,9.126-19.281c-0.432-2.624-2.182-4.823-4.488-6.148c-4.9-2.816-10.449-1.96-15.717-1.068
				C49.629,84.856-0.129,95.366-49.382,107.864"/>
		</g>
	</g>
	<path style="fill:#F1F1F1;" d="M0,461.751c109.824,9.512,228.519,15.584,355.047,16.165C496.76,478.567,628.891,472.24,750,461.751
		c0,16.708,0,33.416,0,38.249H0V461.751z"/>
	<g>
		<path style="fill:#F1CC81;" d="M194.016,482.82c0.786-3.069,2.313-6.008,4.688-8.104c2.376-2.096,5.654-3.264,8.776-2.727
			c2.512,0.433,4.734,1.891,7.2,2.538c3.034,0.795,6.388,0.275,9.038-1.402c2.872-1.817,4.777-4.788,6.567-7.676
			c1.79-2.888,3.643-5.88,6.458-7.782c2.815-1.902,6.893-2.395,9.489-0.203c1.655,1.397,2.399,3.557,3.29,5.532
			c0.89,1.974,2.192,4.018,4.276,4.608c1.508,0.428,3.108-0.002,4.674-0.076c4.191-0.198,8.158,2.236,10.844,5.459
			c2.686,3.222,4.311,7.175,5.896,11.06"/>
		<g>
			<rect x="35.169" y="332.265" width="3.62" height="138.894"/>
			<g>
				<g>
					<path style="fill:#EAAB39;" d="M52.915,368.992c-1.197-0.106-2.373,0.303-3.496,0.732c-1.123,0.428-2.269,0.888-3.471,0.888
						c-0.546,0-1.133-0.12-1.5-0.524c-0.62-0.686-0.282-1.829,0.371-2.483c0.653-0.654,1.541-1.021,2.25-1.613
						c1.088-0.909,1.701-2.429,1.341-3.8c-0.36-1.371-1.792-2.436-3.19-2.198c-1.265,0.215-2.737,1.29-3.618,0.357
						c-0.466-0.493-0.377-1.323,0.012-1.879c0.389-0.556,1.001-0.905,1.589-1.244c4.614-2.66,8.951-5.8,12.918-9.353
						c1.095-0.981,2.196-2.043,2.717-3.418c0.521-1.375,0.287-3.146-0.916-3.992c-1.614-1.135-3.811-0.096-5.488,0.944
						c-3.572,2.215-7.144,4.431-10.716,6.646c-0.709,0.44-1.451,0.891-2.282,0.969c-0.831,0.077-1.772-0.345-2-1.147
						c-0.304-1.068,0.737-2.108,0.641-3.214c-0.091-1.055-1.233-1.763-2.291-1.761c-1.059,0.002-2.039,0.521-2.969,1.027
						c-3.695,2.007-7.389,4.015-11.084,6.022c-1.154,0.627-2.749,1.193-3.63,0.22c-0.92-1.015-0.089-2.609,0.762-3.682
						c3.859-4.864,8.099-9.426,12.667-13.631c2.791-2.569,5.762-5.076,7.614-8.386c0.486-0.869,0.882-1.977,0.351-2.82
						c-0.59-0.937-2.012-0.95-2.982-0.417c-0.971,0.533-1.665,1.446-2.517,2.154c-0.803,0.667-2.132,1.093-2.793,0.286
						c-0.743-0.908,0.19-2.203,1.063-2.986c2.294-2.056,4.588-4.112,6.882-6.168c-2.14-0.15-4.328-0.082-6.538,0.235
						c-16.79,2.412-28.446,17.978-26.035,34.768c2.412,16.79,17.978,28.446,34.768,26.034c5.126-0.736,9.77-2.704,13.685-5.553
						C54.505,369.428,53.708,369.063,52.915,368.992z"/>
					<path style="fill:#EDBC5B;" d="M67.38,340.79c-2.094-14.58-14.109-25.282-28.229-26.27c-2.294,2.056-4.588,4.112-6.882,6.168
						c-0.874,0.783-1.807,2.078-1.063,2.986c0.661,0.808,1.99,0.382,2.793-0.286c0.852-0.708,1.546-1.621,2.517-2.154
						c0.971-0.533,2.392-0.521,2.982,0.417c0.531,0.843,0.136,1.95-0.351,2.82c-1.852,3.31-4.823,5.817-7.614,8.386
						c-4.568,4.205-8.808,8.767-12.667,13.631c-0.851,1.073-1.682,2.667-0.762,3.682c0.882,0.973,2.477,0.407,3.63-0.22
						c3.695-2.007,7.389-4.015,11.084-6.022c0.93-0.505,1.91-1.024,2.969-1.027c1.059-0.002,2.2,0.706,2.291,1.761
						c0.096,1.106-0.945,2.147-0.641,3.214c0.228,0.802,1.17,1.225,2,1.147c0.831-0.078,1.573-0.529,2.282-0.969
						c3.572-2.215,7.144-4.431,10.716-6.646c1.677-1.04,3.874-2.08,5.488-0.944c1.202,0.846,1.437,2.617,0.916,3.992
						c-0.521,1.375-1.622,2.437-2.717,3.418c-3.967,3.553-8.304,6.694-12.918,9.353c-0.588,0.339-1.2,0.688-1.589,1.244
						c-0.389,0.556-0.478,1.386-0.012,1.879c0.881,0.933,2.353-0.143,3.618-0.357c1.398-0.237,2.831,0.827,3.19,2.198
						c0.36,1.371-0.252,2.892-1.341,3.8c-0.71,0.592-1.597,0.959-2.25,1.613c-0.653,0.654-0.992,1.798-0.371,2.483
						c0.366,0.405,0.954,0.524,1.5,0.524c1.201,0,2.348-0.459,3.471-0.888c1.122-0.428,2.299-0.838,3.496-0.732
						c0.793,0.071,1.59,0.436,2.115,1.013C63.938,363.522,69.055,352.454,67.38,340.79z"/>
				</g>
				<g>
					<path d="M54.063,350.528c-2.616,14.212-20.528,11.816-30.427,7.071c2.456,4.532,6.705,8.207,11.766,9.184
						c5.062,0.976,10.641-0.725,14.043-4.598C52.303,358.933,53.24,354.778,54.063,350.528z"/>
					<path d="M44.962,332.422c1.616-0.395,3.379,0.152,4.647,1.229c0.387,0.329,0.905,0.729,1.339,0.466
						c0.358-0.217,0.358-0.743,0.221-1.139c-0.495-1.431-2.073-2.2-3.569-2.43c-1.51-0.233-3.133-0.048-4.41,0.79
						c-0.73,0.479-1.319,1.19-1.64,2.003c-0.121,0.307-0.601,2.385,0.05,2.414c0.252,0.011,0.974-1.761,1.213-2.03
						C43.377,333.092,44.136,332.624,44.962,332.422z"/>
					<path d="M26.076,335.135c-1.662,0.076-3.2,1.097-4.113,2.487c-0.279,0.424-0.663,0.954-1.154,0.824
						c-0.405-0.108-0.552-0.612-0.532-1.031c0.073-1.512,1.37-2.694,2.741-3.337c1.383-0.648,2.993-0.928,4.454-0.483
						c0.835,0.254,1.6,0.771,2.138,1.46c0.203,0.26,1.248,2.119,0.632,2.33c-0.238,0.082-1.43-1.416-1.735-1.606
						C27.786,335.331,26.926,335.096,26.076,335.135z"/>
					<path d="M46.428,340.914c3.146,1.079,1.293-5.556-0.933-4.004C44.05,337.996,45.033,340.329,46.428,340.914z"/>
					<path d="M27.975,343.237c-2.715,1.921-2.805-4.967-0.232-4.105C29.435,339.769,29.15,342.284,27.975,343.237z"/>
				</g>
			</g>
		</g>
		<g>
			<path style="fill:#C5D7D6;" d="M65.479,416.792c1.351,1.089,3.341,0.295,5.067,0.468c2.324,0.234,4.129,2.377,4.574,4.669
				c0.445,2.292-0.222,4.665-1.201,6.786c-0.978,2.121-2.268,4.09-3.182,6.24c-0.306,0.721-0.573,1.491-0.496,2.271
				c0.078,0.779,0.589,1.565,1.355,1.727c1.04,0.221,1.929-0.706,2.642-1.495c0.714-0.789,1.81-1.583,2.745-1.077
				c-1.026,1.884-1.511,4.06-1.382,6.202c0.054,0.899,0.278,1.895,1.03,2.39c1.188,0.782,2.813-0.248,3.451-1.519
				c0.638-1.271,0.745-2.769,1.457-3.999c0.712-1.231,2.509-2.064,3.54-1.085c1.052,1,0.427,3.002,1.48,4
				c0.743,0.704,2.022,0.511,2.793-0.162c0.771-0.673,1.146-1.685,1.434-2.667c0.096-0.325,0.175-0.655,0.258-0.984
				c-1.63-0.348-3.196-0.844-4.588-1.748c-4.062-2.636-5.399-7.824-7.006-12.391c-2.314-6.579-5.83-12.729-10.306-18.076
				C69.714,410.139,68.379,414.245,65.479,416.792z"/>
			<path style="fill:#C5D7D6;" d="M23.395,445.795c1.612,0.092,3.3,0.252,4.647,1.142c1.525,1.008,2.347,2.77,3.565,4.133
				c1.774,1.984,4.324,3.057,6.786,4.069c0.728,0.299,1.48,0.603,2.267,0.603c0.787,0,1.628-0.38,1.935-1.105
				c0.322-0.762-0.042-1.671-0.637-2.246c-0.595-0.575-1.381-0.899-2.129-1.253c-3.281-1.552-6.125-3.876-8.932-6.177
				c-0.733-0.601-1.541-1.378-1.415-2.317c0.175-1.309,2.061-1.654,3.195-0.977c1.133,0.677,1.791,1.914,2.708,2.863
				c0.918,0.949,2.471,1.605,3.525,0.809c-0.858-1.635-1.716-3.27-2.574-4.905c-0.132-0.251-0.267-0.517-0.259-0.801
				c0.019-0.662,0.836-1.056,1.481-0.904c0.645,0.152,1.137,0.656,1.605,1.126c2.82,2.828,6.115,5.183,9.705,6.935
				c0.535,0.261,1.16,0.512,1.707,0.275c0.885-0.384,0.841-1.665,0.481-2.56c-1.375-3.409-4.945-5.386-8.43-6.556
				c-3.485-1.171-7.215-1.846-10.283-3.871c-0.914-0.604-1.76-1.314-2.655-1.942c-0.125,0.113-0.245,0.229-0.377,0.338
				c-4.285,3.507-8.529,7.141-11.196,12.068c0.18,0.132,0.366,0.253,0.561,0.354C20.108,445.638,21.783,445.703,23.395,445.795z"/>
			<g>
				<path style="fill:#80AAA8;" d="M51.56,433.315c6.018,4.317,10.648,10.251,15.191,16.1c0.9-7.097-1.241-14.53-5.778-20.061
					c-2.646-3.226-6.007-5.771-9.165-8.497c-3.158-2.727-6.205-5.756-7.926-9.556c-1.496-3.304-1.817-7.312-0.299-10.545
					c-1.077,0.947-2.051,2.013-2.885,3.161c-3.18,4.374-4.672,9.736-5.735,15.039c-0.784,3.909-1.347,8.007-3.532,11.184
					C38.393,428.588,45.761,429.155,51.56,433.315z"/>
				<path style="fill:#80AAA8;" d="M60.606,473.142c-2.495-0.643-5.116-0.468-7.691-0.552c-2.576-0.084-5.279-0.488-7.312-2.071
					c-2.679-2.086-3.671-5.806-6.344-7.9c-2.495-1.955-5.926-2.101-9.092-1.957c-3.166,0.144-6.474,0.47-9.386-0.78
					c-3.043-1.306-5.208-4.388-5.537-7.667c-0.74,2.694-1.396,5.422-2.406,8.022c-1.5,3.861-3.763,7.376-5.493,11.139
					c-1.73,3.763-2.934,7.971-2.122,12.033l64.108-1.167C68.366,477.937,64.891,474.246,60.606,473.142z"/>
				<path style="fill:#A6CDCB;" d="M129.619,469.856c-2.694-2.997-6.804-4.661-10.824-4.382c-3.522,0.244-7.502,1.763-10.28-0.415
					c-2.897-2.271-2.184-6.706-1.913-10.377c0.372-5.038-1.027-10.709-5.294-13.413c-2.997-1.9-6.775-1.966-10.26-2.711
					c-0.083,0.329-0.162,0.658-0.258,0.984c-0.289,0.982-0.663,1.994-1.434,2.667c-0.771,0.673-2.05,0.866-2.793,0.162
					c-1.054-0.999-0.428-3-1.48-4c-1.031-0.98-2.828-0.146-3.54,1.085c-0.712,1.231-0.819,2.729-1.457,3.999
					c-0.638,1.271-2.263,2.301-3.451,1.519c-0.752-0.495-0.976-1.491-1.03-2.39c-0.129-2.142,0.356-4.317,1.382-6.202
					c-0.936-0.506-2.032,0.289-2.745,1.077c-0.714,0.789-1.602,1.715-2.642,1.495c-0.766-0.163-1.278-0.948-1.355-1.727
					c-0.078-0.779,0.19-1.55,0.496-2.271c0.913-2.15,2.203-4.119,3.182-6.24c0.978-2.121,1.646-4.493,1.201-6.786
					c-0.445-2.293-2.251-4.436-4.574-4.669c-1.726-0.174-3.716,0.62-5.067-0.468c2.899-2.548,4.234-6.654,3.668-10.45
					c-0.57-0.681-1.151-1.353-1.751-2.007c-3.475-3.782-7.827-7.263-12.949-7.643c-3.979-0.295-7.836,1.399-10.865,4.062
					c-1.518,3.233-1.197,7.241,0.299,10.545c1.721,3.801,4.768,6.83,7.926,9.556c3.158,2.727,6.519,5.271,9.165,8.497
					c4.537,5.532,6.678,12.964,5.778,20.061c-4.543-5.849-9.174-11.783-15.191-16.1c-5.799-4.16-13.167-4.728-20.129-3.176
					c-0.493,0.716-1.066,1.386-1.744,1.996c0.896,0.628,1.741,1.338,2.655,1.942c3.068,2.025,6.798,2.701,10.283,3.871
					c3.484,1.17,7.055,3.147,8.43,6.556c0.36,0.894,0.404,2.176-0.481,2.56c-0.546,0.237-1.171-0.014-1.707-0.275
					c-3.59-1.752-6.884-4.106-9.705-6.935c-0.468-0.469-0.96-0.973-1.605-1.126c-0.645-0.152-1.463,0.242-1.481,0.904
					c-0.008,0.284,0.128,0.55,0.259,0.801c0.858,1.635,1.716,3.27,2.574,4.905c-1.054,0.795-2.607,0.14-3.525-0.809
					c-0.918-0.949-1.575-2.186-2.708-2.863c-1.134-0.677-3.02-0.331-3.195,0.977c-0.125,0.94,0.682,1.716,1.415,2.317
					c2.807,2.301,5.651,4.625,8.932,6.177c0.748,0.354,1.534,0.678,2.129,1.253c0.595,0.575,0.959,1.484,0.637,2.246
					c-0.306,0.725-1.148,1.105-1.935,1.105c-0.787,0-1.539-0.304-2.267-0.603c-2.462-1.012-5.012-2.085-6.786-4.069
					c-1.219-1.363-2.04-3.125-3.565-4.133c-1.347-0.89-3.035-1.05-4.647-1.142c-1.612-0.092-3.287-0.157-4.72-0.901
					c-0.195-0.101-0.381-0.222-0.561-0.354c-0.133,0.246-0.282,0.48-0.407,0.733c-1.092,2.208-1.809,4.561-2.463,6.941
					c0.329,3.279,2.494,6.361,5.537,7.667c2.912,1.25,6.22,0.924,9.386,0.78c3.166-0.144,6.598,0.003,9.092,1.957
					c2.673,2.094,3.665,5.814,6.344,7.9c2.033,1.583,4.736,1.987,7.312,2.071c2.575,0.084,5.196-0.091,7.691,0.552
					c4.286,1.105,7.76,4.796,8.725,9.099l25.368-0.462c-3.063-1.254-6.074-2.637-9.003-4.179c-1.647-0.867-3.361-1.867-4.222-3.518
					c-0.314-0.602-0.492-1.355-0.16-1.948c0.458-0.818,1.64-0.903,2.511-0.557c0.871,0.345,1.594,0.996,2.461,1.352
					c0.867,0.355,2.045,0.3,2.531-0.502c0.359-0.593,0.191-1.388-0.214-1.95c-0.405-0.562-1.006-0.945-1.583-1.328
					c-5.151-3.415-9.626-7.846-13.09-12.965c-0.494-0.729-0.986-1.627-0.662-2.446c0.323-0.819,1.368-1.15,2.228-0.959
					c0.859,0.191,1.573,0.77,2.251,1.33c5.9,4.875,11.801,9.751,17.701,14.626c0.75,0.62,1.56,1.266,2.528,1.369
					c0.967,0.103,2.082-0.612,2.008-1.583c-0.055-0.731-0.74-1.351-0.633-2.076c0.093-0.631,0.797-1.033,1.433-0.985
					c0.636,0.048,1.197,0.432,1.671,0.859c1.635,1.473,2.596,3.547,4.063,5.188c1.467,1.641,3.892,2.846,5.845,1.83
					c0.927-0.482,1.657-1.422,2.696-1.534c1.096-0.119,2.033,0.731,2.806,1.517c2.585,2.632,5.17,5.263,7.756,7.895l7.204-0.131
					C133.531,477.117,132.313,472.853,129.619,469.856z"/>
			</g>
			<path style="fill:#C5D7D6;" d="M115.061,471.803c-1.039,0.112-1.769,1.052-2.696,1.534c-1.952,1.015-4.378-0.19-5.845-1.83
				c-1.467-1.641-2.428-3.715-4.063-5.188c-0.474-0.427-1.035-0.811-1.671-0.859c-0.636-0.048-1.34,0.354-1.433,0.985
				c-0.107,0.725,0.577,1.346,0.633,2.076c0.074,0.97-1.041,1.686-2.008,1.583c-0.968-0.103-1.778-0.749-2.528-1.369
				c-5.901-4.875-11.801-9.75-17.701-14.626c-0.679-0.561-1.392-1.139-2.251-1.33c-0.859-0.191-1.904,0.14-2.228,0.959
				c-0.323,0.819,0.169,1.716,0.662,2.446c3.464,5.118,7.938,9.55,13.09,12.965c0.577,0.383,1.178,0.766,1.583,1.328
				c0.405,0.562,0.573,1.357,0.214,1.95c-0.485,0.802-1.663,0.857-2.531,0.502c-0.867-0.355-1.59-1.006-2.461-1.352
				c-0.871-0.346-2.054-0.261-2.511,0.557c-0.332,0.593-0.155,1.345,0.16,1.948c0.861,1.65,2.574,2.651,4.222,3.518
				c2.929,1.542,5.94,2.925,9.003,4.179l30.924-0.563c-2.585-2.632-5.17-5.263-7.756-7.895
				C117.095,472.534,116.158,471.685,115.061,471.803z"/>
		</g>
		<g>
			<g>
				<g>
					<path style="fill:#DF8B46;" d="M140.621,279.599c0.983-0.106,1.964-0.226,2.943-0.359c0.152-0.021,5.054-25.141,6.818-33.646
						c3.748,1.286,7.606,2.588,11.564,2.417c-5.096,38.807,5.415,50.852-42.348,51.28c-1.792-6.196-3.681-13.203-3.288-19.859
						C122.945,280.499,133.641,280.345,140.621,279.599z"/>
					<path style="fill:#C05D2B;" d="M140.771,279.583l0.764-0.086l4.501,16.936c-0.774,0.244-1.597,0.48-2.469,0.698
						c-0.977,0.245-1.912,0.442-2.796,0.601c-0.503-1.984-0.94-4.395-1.083-7.151C139.454,286.099,140.081,282.32,140.771,279.583z"
						/>
					<path style="fill:#C05D2B;" d="M145.451,282.619c0.256,0.228,0.614,0.443,0.921,0.29c0.287-0.143,0.35-0.549,0.222-0.842
						c-0.129-0.294-0.391-0.503-0.638-0.708c-0.481-0.399-0.937-0.827-1.366-1.281c-0.314-0.333-0.631-0.896-1.01-1.129
						c-0.1,0.443,0.282,1.258,0.451,1.663C144.348,281.376,144.835,282.069,145.451,282.619z"/>
				</g>
				<g>
					<path style="fill:#EDBC5B;" d="M112.969,277.734c8.984,2.409,18.545,0.482,27.754,1.231c0.342,3.765-0.201,7.717-0.01,11.538
						c0.202,4.058,0.656,8.103,1.36,12.104c-8.249,1.732-16.803,1.997-25.143,0.778"/>
					<path style="fill:#EAAB39;" d="M122.3,285.335c3.783,5.809,6.592,12.003,8.273,18.728c-3.18,0.074-6.45,0.282-9.583-0.331"/>
				</g>
				<g>
					<g>
						<path style="fill:#DF8B46;" d="M150.164,246.563c0.341-1.982,0.686-3.975,1.358-5.87c0.333-0.939,0.488-1.89,0.991-2.778
							c0.527-0.932,1.25-1.752,2.098-2.404c1.561-1.201,3.508-1.843,5.47-2.009c1.962-0.166,3.942,0.126,5.84,0.653
							c1.067,0.297,2.221,0.76,2.692,1.762c0.456,0.973,0.014,2.27-0.942,2.76c0.772,0.204,1.329,1.023,1.235,1.816
							c-0.094,0.793-0.827,1.459-1.625,1.477c0.553,0.087,0.981,0.617,1.02,1.176c0.039,0.559-0.269,1.11-0.724,1.437
							c-0.455,0.327-1.036,0.446-1.595,0.41c0.614,0.517,0.717,1.537,0.217,2.165c-0.351,0.442-0.91,0.659-1.451,0.817
							c-1.403,0.41-2.883,0.555-4.338,0.424"/>
						<g>
							<path style="fill:#C05D2B;" d="M160.497,236.69c0.043,0.624,0.811,1.217,1.427,1.319c-1.426,0.346-2.516,2.731-0.848,3.157
								c-1.53,0.557-1.556,2.438-0.163,3.281c-2.275,0.84-0.707,4.557,1.364,4.301c-2.334,1.019-5.226-2.529-2.974-4.327
								c-0.953-0.866-0.351-2.644,0.729-3.053c-1.28-0.862-1.082-2.963,0.336-3.572c-1.695-1.543,0.199-4.099,2.185-4.128
								C161.382,234.199,160.38,235.312,160.497,236.69z"/>
						</g>
					</g>
					<g>
						<g>
							<g>
								<path style="fill:#E1A98C;" d="M173.339,244.121c-4.49-23.167-12.993,0.156-6.437,6.967
									c-0.734,0.325-0.645,1.664-1.463,1.916c-3.711-1.482-3.754-6.539-3.916-9.966c0.96-16.344,11.332-14.612,14.759-0.217"/>
							</g>
							<g>
								<polygon style="fill:#E1A98C;" points="177.883,238.067 197.745,243.591 194.707,270.972 163.756,253.656 								"/>
								<polygon style="fill:#DA8265;" points="173.905,242.438 186.532,266.398 163.756,253.656 								"/>
							</g>
							<g>
								<g>
									<polygon style="fill:#E1A98C;" points="197.419,243.526 215.172,244.318 214.52,248.335 196.401,252.701 194.758,249.45 
																			"/>
									<polygon style="fill:#DA8265;" points="196.743,252.618 213.485,244.243 215.172,244.318 214.52,248.335 									"/>
								</g>
								<g>
									<path style="fill:#E1A98C;" d="M216.61,246.283c-0.005,2.361-0.754,4.274-1.673,4.272
										c-0.919-0.002-1.661-1.918-1.656-4.279c0.005-2.361,0.754-4.274,1.673-4.272
										C215.874,242.005,216.615,243.921,216.61,246.283z"/>
									<g>
										<path style="fill:#DA8265;" d="M215.277,243.969c-0.001,0.463-0.148,0.838-0.328,0.838c-0.18,0-0.326-0.376-0.325-0.839
											c0.001-0.463,0.148-0.838,0.328-0.837C215.132,243.13,215.278,243.506,215.277,243.969z"/>
										<path style="fill:#DA8265;" d="M216.189,245.708c-0.001,0.463-0.148,0.838-0.328,0.837c-0.18,0-0.326-0.376-0.325-0.839
											c0.001-0.463,0.148-0.838,0.328-0.837S216.19,245.245,216.189,245.708z"/>
										<path style="fill:#DA8265;" d="M214.683,246.279c-0.001,0.463-0.148,0.838-0.328,0.837c-0.18,0-0.326-0.376-0.325-0.839
											c0.001-0.463,0.148-0.838,0.328-0.838C214.538,245.44,214.684,245.816,214.683,246.279z"/>
										<path style="fill:#DA8265;" d="M215.727,247.956c-0.001,0.463-0.148,0.838-0.328,0.837c-0.18,0-0.326-0.376-0.325-0.839
											c0.001-0.463,0.148-0.838,0.328-0.837C215.582,247.118,215.727,247.493,215.727,247.956z"/>
									</g>
								</g>
							</g>
						</g>
						<g>
							<path style="fill:#C0D3D1;" d="M211.845,257.702c-0.307,0.995-0.615,1.996-0.749,3.029c-0.058,0.451-0.08,0.92,0.072,1.348
								c0.153,0.428,0.517,0.806,0.968,0.857c0.477,0.053,0.933-0.271,1.173-0.686c0.239-0.416,0.302-0.907,0.339-1.385
								c0.206-2.613-0.179-5.265-0.629-7.834C213.135,254.544,212.294,256.244,211.845,257.702z"/>
							<path style="fill:#C0D3D1;" d="M216.232,269.22c-0.307,0.995-0.616,1.996-0.749,3.029c-0.058,0.451-0.081,0.92,0.072,1.348
								c0.153,0.428,0.517,0.806,0.968,0.857c0.477,0.053,0.933-0.271,1.173-0.686c0.239-0.416,0.302-0.907,0.34-1.385
								c0.205-2.613-0.179-5.265-0.629-7.834C217.522,266.063,216.682,267.763,216.232,269.22z"/>
							<path style="fill:#A6CDCB;" d="M217.943,254.235c-0.307,0.995-0.615,1.996-0.749,3.029c-0.058,0.451-0.081,0.92,0.072,1.348
								c0.153,0.428,0.517,0.806,0.968,0.857c0.477,0.053,0.933-0.271,1.173-0.686c0.239-0.415,0.302-0.907,0.339-1.385
								c0.206-2.613-0.179-5.265-0.629-7.834C219.234,251.078,218.393,252.778,217.943,254.235z"/>
							<path style="fill:#A6CDCB;" d="M209.814,274.882c-0.307,0.995-0.615,1.996-0.749,3.029c-0.058,0.451-0.08,0.92,0.072,1.348
								c0.153,0.428,0.517,0.806,0.968,0.857c0.476,0.053,0.933-0.271,1.173-0.686c0.239-0.415,0.302-0.907,0.339-1.385
								c0.206-2.613-0.179-5.265-0.629-7.834C211.104,271.724,210.263,273.425,209.814,274.882z"/>
							<path style="fill:#A6CDCB;" d="M206.136,266.72c-0.307,0.995-0.616,1.996-0.749,3.029c-0.058,0.451-0.08,0.92,0.072,1.348
								c0.153,0.428,0.517,0.806,0.968,0.857c0.477,0.053,0.933-0.271,1.173-0.686c0.239-0.416,0.302-0.907,0.339-1.385
								c0.206-2.613-0.179-5.265-0.629-7.834C207.426,263.563,206.586,265.263,206.136,266.72z"/>
						</g>
					</g>
					<g>
						<g>
							<path style="fill:#DF8B46;" d="M160.309,235.127c-0.408,1.071,0.087,2.408,1.094,2.955c-1.884,0.049-2.146,2.874-0.305,3.27
								c-1.922-0.228-2.419,2.679-0.532,3.104c-2.059,0.181-1.674,3.048,0.009,3.636c2.237,1.232,8.155,0.481,6.08-3.078
								c1.749,0.02,2.508-2.397,1.064-3.381c1.654-0.288,1.704-2.777,0.063-3.131C171.867,234.556,162.006,231.37,160.309,235.127z"
								/>
							<g>
								<path style="fill:#C05D2B;" d="M165.419,237.825c-1.298-0.024-3.039-0.129-4.3,0.203c2.122,0.233,4.679,0.665,6.815,0.505
									C167.223,238.087,166.3,237.85,165.419,237.825z"/>
								<path style="fill:#C05D2B;" d="M165.419,241.13c-1.298-0.024-2.636-0.056-3.896,0.277c2.122,0.233,4.275,0.592,6.412,0.432
									C167.223,241.391,166.3,241.154,165.419,241.13z"/>
								<path style="fill:#C05D2B;" d="M164.186,244.334c-1.297-0.024-2.742-0.196-4.002,0.136c2.122,0.233,4.381,0.732,6.517,0.572
									C165.989,244.596,165.067,244.359,164.186,244.334z"/>
							</g>
						</g>
					</g>
					<g>
						<path style="fill:#C05D2B;" d="M151.652,241.035c4.721-7.181,18.095,0.127,6.827,1.934c0.648,2.546-1.144,6.757-4.342,5.245"
							/>
						<path style="fill:#DF8B46;" d="M151.4,241.296c3.846-5.667,17.725-0.812,6.17,1.148c0.747,3.007-1.796,7.156-5.169,5.642"/>
					</g>
				</g>
			</g>
			<g>
				<path style="fill:#DF8B46;" d="M78.542,348.172c-8.838,20.924-7.859,44.064-12.218,65.852
					c-11.078,18.313-11.217,40.4-12.038,61.222c3.779,1.181,11.45,4.388,14.493,1.136c10.383-42.356,28.661-82.472,38.871-124.923"
					/>
				<path d="M54.092,468.002c0.174-0.312,0.349-0.619,0.435-0.99c4.918,2.737,11.594,3.459,16.868,1.549
					c-0.726,9.031,14.672,9.71,14.435,17.013c-4.137,2.434-11.848,0.744-16.738,0.775c-2.072,0.057-3.457-1.207-4.617-2.764
					c-3.029-2.52-3.03,0.906-4.246,2.741c-2.541,1.258-5.783,0.711-8.564,0.696C52.167,482.518,52.496,472.713,54.092,468.002z"/>
				<polygon style="fill:#C05D2B;" points="67.907,404.636 90.119,408.639 93.491,398.944 69.037,396.428 				"/>
			</g>
			<g>
				<path style="fill:#DF8B46;" d="M99.348,349.924c-1.851,18.109,6.884,35.5,9.39,53.53c1.375,9.892,0.863,19.969,2.148,29.873
					c1.107,8.531,3.535,16.822,6.335,24.934c1.25,3.622,2.396,7.088,3.297,10.782c0.284,1.163,0.722,6.329,1.717,7.021
					c5.291,0.025,10.511,0.164,15.755-0.726c-4.844-43.309-4.408-86.495-14.368-129.016"/>
				<path d="M120.03,470.954c6.271,0.798,12.578-1.322,18.719-0.853c3.473,6.315,7.071,12.213,14.853,13.916
					c1.837,0.13,3.285,1.916,1.696,3.402c-2.121,1.553-5.076,1.448-7.607,1.584c-9.318,1.096-18.069-8.155-18.795-0.437
					c-2.004-0.411-4.038-0.675-6.081-0.787C120.817,482.657,120.643,476.425,120.03,470.954z"/>
				<path style="fill:#C05D2B;" d="M109.454,410.627l22.901-4.528l-0.431-5.283l-23.486,1.333c0.191,0.949,0.366,1.944,0.515,2.983
					C109.233,407.086,109.387,408.926,109.454,410.627z"/>
			</g>
			<g>
				<path d="M75.793,339.56c-6.99,19.108-9.564,39.752-8.726,60.071c8.739,2.647,17.997,2.6,27.034,2.161
					c1.077-0.069,1.076-0.27,1.226-1.294c2.138-8.33,5.723-16.45,6.523-25.137c1.368,9.157,1.469,18.747,3.518,27.697
					c9.29,1.027,19.612,0.193,29.192-0.781c-1.419-21.31-5.087-42.456-10.916-62.929"/>
				<path style="fill:#FFFFFF;" d="M105.109,339.245c0.203,5.624,0.68,11.238,1.429,16.815c-2.812,0.132-5.625,0.263-8.437,0.395
					c2.159-1.072,4.462-1.852,6.828-2.312c-0.688-4.962-1.142-9.957-1.358-14.962"/>
			</g>
			<g>
				<path style="fill:#EDBC5B;" d="M71.874,287.239c-0.097-1.118-0.148-2.246-0.143-3.386c13.745-8.572,32.492-10.082,47.403-3.916
					c7.646,9.234,6.369,22.77,2.848,33.515c-4.077,9.919,8.002,26.818,0.866,26.957c-8.882,0.984-17.788,3.194-26.751,2.667
					c-6.579-0.557-13.031-3.189-19.587-2.408c-0.727,0.087-1.549,0.189-2.113-0.277c-0.756-0.626-0.546-1.833-0.148-2.73
					c1.909-4.293,1.654-9.547,2.512-14.123C79.105,311.039,73.466,299.4,71.874,287.239z"/>
				<path style="fill:#FFFFFF;" d="M99.14,312.194c-15.297-13.258,0.353-26.486,4.507-14.69c4.089-8.668,17.396-5.272,13.819,4.763
					c-2.062,5.261-7.077,8.567-11.021,12.372C103.736,317.552,101.22,314.152,99.14,312.194z"/>
				<path style="fill:#EAAB39;" d="M78.959,292.782c3.459,6.21,7.995,11.819,13.343,16.502c0.207,0.182,0.435,0.408,0.406,0.682
					c-0.02,0.186-0.156,0.335-0.286,0.47c-3.984,4.12-8.597,7.63-13.628,10.374"/>
			</g>
			<g>
				<path d="M88.908,235.923c-0.909-3.145-3.503-5.794-6.68-6.588c-3.176-0.794-6.806,0.392-8.759,3.02
					c-0.986,1.326-1.54,2.968-1.56,4.62c-0.015,1.272,0.295,2.576,1.049,3.601c0.717,0.977,1.795,1.646,2.94,2.043
					c1.145,0.396,2.362,0.538,3.572,0.613c1.856,0.115,3.863,0.036,5.352-1.078"/>
				<path style="fill:#C5D7D6;" d="M79.843,234.546c-22.198,5.565-5.011,20.962,5.894,5.266c0.576-4.227-7.672,7.701-13.203,2.522
					c-1.894-4.46,5.049-6.812,8.49-6.851c1.792-0.029,3.605,0.318,5.227,1.091c0.356,0.173,0.728,0.335,0.762-0.272
					C85.745,234.237,82.071,234.371,79.843,234.546z"/>
				<path style="fill:#C5D7D6;" d="M86.493,236.369c-0.067-2.094,0.477-4.205,1.548-6.006c1.071-1.801,2.666-3.287,4.538-4.228
					c1.281-0.644,2.721-1.038,4.147-0.897s2.831,0.872,3.586,2.091c0.592,0.955,0.748,2.144,0.545,3.249
					c-0.203,1.105-0.745,2.129-1.448,3.005c-1.367,1.702-3.341,2.868-5.451,3.43c-2.109,0.562-4.348,0.544-6.493,0.142
					c3.163-0.158,6.261-1.412,8.643-3.499c0.875-0.766,1.676-1.678,2.022-2.788c0.347-1.11,0.146-2.45-0.73-3.215
					c-0.606-0.53-1.445-0.722-2.251-0.719c-1.264,0.004-2.505,0.445-3.563,1.138c-1.058,0.693-1.941,1.628-2.681,2.653
					c-1.012,1.401-1.783,3.021-1.93,4.743c-0.035,0.412-0.032,0.841,0.136,1.219c0.168,0.377,0.536,0.691,0.949,0.685"/>
				<path d="M75.398,264.352c0.345,8.289,8.876,11.107,15.893,8.416c3.868-1.08,7.814-2.594,11.782-1.964
					c6.466,2.517,16.122,2.839,18.265-5.423c1.687-8.41-5.139-15.342-7.39-22.896c-1.669-3.792-4.799-7.075-8.524-9.17
					c-7.005-3.94-15.816-1.824-20.621,4.618C79.179,245.473,75.623,255.218,75.398,264.352z"/>
			</g>
			<g>
				<path style="fill:#DF8B46;" d="M91.251,257.056c0.058-0.343,0.116-0.686,0.174-1.028c-0.186,7.242-0.797,14.519-1.786,21.632
					c3.98,3.894,10.993,3.84,15.518,0.838c-1.052-4.681-1.424-9.634-0.92-14.418"/>
				<path style="fill:#C05D2B;" d="M92.023,262.249c1.317,7.958,7.275,12.229,12.517,13.191c-0.203-3.385-0.598-6.962-0.532-10.359"
					/>
			</g>
			<g>
				<path style="fill:#DF8B46;" d="M95.016,236.629c7.493-4.63,18.592,2.033,20.521,10.201c0.592,6.436,2.511,19.431-4.014,23.088
					c-7.175,2.856-17.036,0.028-20.926-6.834C87.153,254.865,87.045,242.267,95.016,236.629z"/>
				<path d="M113.395,238.056c1.537,2.694,2.851,6.119,2.537,9.231c-8.597,1.885-10.617-1.917-13.069-9.228
					c3.236,5.821-2.067,11.098-7.159,13.343c-2.582,0.484-2.028-7.575-1.599-9.344c-3.152,4.174-0.422,9.214-0.722,13.718
					c-1.406,4.209-6.785,2.325-7.477-1.356C80.073,237.925,102.608,223.232,113.395,238.056z"/>
				<g>
					<path style="fill:#DF8B46;" d="M84.852,260.64c5.369,6.19,12.701-0.076,6.029-7.217
						C86.802,249.057,81.665,257.12,84.852,260.64z"/>
					<path style="fill:#C05D2B;" d="M89.223,255.587c-3.038-0.358-2.787,4.226-0.203,4.751c0.235,0.104,0.64,0.097,0.676-0.222
						c-0.159-0.523-0.975-0.595-1.274-1.065c-1.155-1.058,0.543-2.801,1.515-1.5c0.125,0.325,0.517,0.507,0.751,0.168
						C91.003,256.857,90.006,255.834,89.223,255.587z"/>
				</g>
				<g>
					<path d="M112.042,249.646c1.053-0.19,2.185,0.118,2.997,0.816c0.223,0.192,0.468,0.428,0.76,0.394
						c0.37-0.042,0.551-0.527,0.413-0.873s-0.478-0.564-0.813-0.727c-1.061-0.517-2.301-0.709-3.441-0.407
						c-0.895,0.237-1.717,0.795-2.231,1.57c-0.104,0.156-0.649,1.053-0.166,0.844c0.188-0.082,0.312-0.338,0.446-0.484
						c0.164-0.179,0.346-0.342,0.543-0.486C110.99,249.97,111.503,249.743,112.042,249.646z"/>
					<path d="M102.275,250.293c-1.058,0.159-2.031,0.815-2.575,1.736c-0.15,0.254-0.305,0.555-0.593,0.618
						c-0.364,0.079-0.691-0.322-0.672-0.694c0.019-0.372,0.271-0.688,0.536-0.95c0.838-0.831,1.95-1.411,3.128-1.492
						c0.924-0.063,1.881,0.201,2.618,0.768c0.148,0.114,0.953,0.788,0.429,0.746c-0.205-0.017-0.404-0.219-0.577-0.314
						c-0.213-0.117-0.438-0.213-0.67-0.286C103.375,250.261,102.816,250.211,102.275,250.293z"/>
					<path d="M103.709,254.423c0.004-0.108-0.01-0.218,0.009-0.325c0.019-0.107,0.08-0.215,0.182-0.251
						c0.116-0.04,0.246,0.029,0.316,0.129c0.07,0.1,0.093,0.225,0.112,0.346c0.058,0.357,0.105,0.721,0.05,1.078
						c-0.055,0.357-0.226,0.711-0.525,0.913c-0.29,0.196-0.658,0.229-1.008,0.236c-0.305,0.007-0.624-0.005-0.893-0.15
						c-0.298-0.161-0.495-0.469-0.593-0.794c-0.053-0.178-0.262-1.081-0.027-1.14c0.227-0.058,0.577,0.568,0.712,0.688
						C102.656,255.698,103.682,255.239,103.709,254.423z"/>
					<path d="M111.8,254.102c0.498,0.145,1.082-0.091,1.338-0.543c0.056-0.099,0.104-0.213,0.202-0.271
						c0.114-0.067,0.268-0.034,0.368,0.053c0.1,0.087,0.153,0.216,0.181,0.345c0.126,0.583-0.253,1.213-0.806,1.433
						c-0.554,0.221-1.222,0.053-1.655-0.357c-0.194-0.184-0.671-0.766-0.491-1.056C111.111,253.425,111.54,254.026,111.8,254.102z"
						/>
					<path d="M109.472,265.691c1.019-0.17,2.014-0.542,2.839-1.163c0.209-0.157,0.427-0.425,0.295-0.651
						c-0.068-0.116-0.213-0.17-0.348-0.167c-0.135,0.004-0.264,0.055-0.389,0.105c-0.991,0.395-1.999,0.765-3.048,0.953
						c-1.05,0.187-2.152,0.184-3.161-0.16c-0.15-0.051-0.303-0.11-0.461-0.098c-0.158,0.012-0.321,0.123-0.333,0.28
						c-0.011,0.149,0.109,0.273,0.226,0.366c0.289,0.231,0.647,0.46,1.008,0.559c0.286,0.078,0.629,0.033,0.928,0.056
						C107.842,265.836,108.665,265.825,109.472,265.691z"/>
					<path style="fill:#C05D2B;" d="M107.513,253.051c1.735-0.049,2.022,1.35,2.054,2.765c2.317,2.622,2.626,4.349-1.568,3.48"/>
				</g>
			</g>
		</g>
		<g>
			<g>
				<path style="fill:none;stroke:#000000;stroke-width:2;stroke-miterlimit:10;" d="M168.059,451.739
					c0.287-11.963-3.42-23.648-7.684-34.829c-4.264-11.181-9.158-22.227-11.428-33.976c-2.755-14.261-1.475-29.28,3.653-42.869"/>
				<g>
					<path style="fill:#EAAB39;" d="M140.086,331.392c-1.928,0.875-3.273,3.018-2.998,5.117c0.247,1.886,1.683,3.447,3.359,4.345
						c1.676,0.898,3.585,1.243,5.457,1.576c-2.31,0.758-4.72,1.576-6.229,3.581c-0.693,0.921-1.093,2.068-0.993,3.216
						c0.244,2.802,2.952,3.798,5.273,3.538c2.988-0.336,5.686-2.53,6.624-5.387c-0.748,2.244-0.407,4.909,1.173,6.669
						c1.581,1.76,4.45,2.342,6.431,1.05c1.643-1.072,2.413-3.224,2.075-5.157c-0.338-1.933-1.663-3.61-3.334-4.638
						c2.348,0.715,5.058,0.405,7.006-1.088c2.679-2.053,3.584-6.447,0.469-8.903c-0.865-0.682-1.961-1.074-3.061-1.014
						c-2.532,0.139-4.04,2.24-5.318,4.202c1.103-3.073,0.704-6.647-1.049-9.401c-1.009-1.586-2.838-3.036-4.712-2.006
						c-0.744,0.409-1.268,1.144-1.536,1.95c-0.714,2.146-0.274,3.879,0.204,5.761c-1.341-0.998-1.992-2.496-3.62-3.264
						C143.691,330.777,141.735,330.644,140.086,331.392z"/>
					<path style="fill:#E06F42;" d="M148.705,343.504c0.484,0.978,1.445,1.696,2.512,1.922c0.838,0.178,1.787,0.036,2.403-0.559
						c0.504-0.487,0.721-1.214,0.715-1.915c-0.016-1.893-1.775-3.75-3.71-3.832C148.532,339.032,147.98,342.039,148.705,343.504z"/>
				</g>
			</g>
			<path style="fill:none;stroke:#000000;stroke-width:2;stroke-miterlimit:10;" d="M171.602,447.82
				c-5.589-25.502-4.584-55.628,8.532-78.814c1.235-2.183,2.756-4.209,4.634-5.871c13.132-11.625,24.257,5.618,10.601,18.806"/>
			<g>
				<path style="fill:#C5D7D6;" d="M171.471,446.931c8.437-8.746,20.518-14.016,32.666-13.686c1.294,0.035,2.627,0.142,3.779,0.732
					c1.152,0.59,2.088,1.773,2.02,3.065c-0.048,0.92-0.594,1.761-1.308,2.343c-0.714,0.582-1.585,0.935-2.461,1.222
					c-3.601,1.179-7.443,1.351-11.23,1.506c-3.786,0.155-7.627,0.313-11.237,1.467c-3.61,1.154-7.023,3.449-8.669,6.863"/>
				<g>
					<path style="fill:#A6CDCB;" d="M169.143,452.953c-2.121-5.964-7.166-10.361-12.242-14.143
						c-5.076-3.782-10.517-7.365-14.07-12.604c-0.78-1.15-1.48-2.441-1.472-3.831c0.007-1.389,0.951-2.858,2.332-3.011
						c0.953-0.106,1.855,0.404,2.667,0.915c11.613,7.297,20.741,18.474,25.572,31.311"/>
					<path style="fill:#A6CDCB;" d="M169.177,449.316c4.619-7.438,10.059-14.465,16.848-19.994s15.016-9.509,23.731-10.352
						c2.92-0.282,6.008-0.179,8.576,1.237c1.81,0.998,3.363,3.004,2.836,5.002c-0.389,1.479-1.775,2.461-3.141,3.147
						c-4.598,2.309-9.879,2.693-14.969,3.443c-6.954,1.024-13.883,2.84-19.986,6.327c-6.103,3.487-11.35,8.771-13.87,15.333"/>
					<path style="fill:#C5D7D6;" d="M168.386,449.941c1.792-7.579,4.161-15.102,8.083-21.831
						c3.921-6.729,9.505-12.661,16.538-16.008c1.406-0.669,2.923-1.242,4.476-1.131c1.553,0.111,3.138,1.076,3.527,2.583
						c0.422,1.631-0.617,3.265-1.733,4.526c-3.338,3.77-7.756,6.379-11.716,9.489c-6.091,4.783-11.169,10.849-14.807,17.686
						c-1.047,1.967-1.995,4.081-1.985,6.309"/>
				</g>
				<g>
					<polygon style="fill:#D66B54;" points="147.348,451.641 153.387,491.094 196.515,491.933 204.068,451.641 					"/>
					<rect x="143.2" y="446.605" style="fill:#DA8265;" width="65.016" height="7.675"/>
				</g>
			</g>
			<g>
				<path style="fill:#EAAB39;" d="M196.817,368.076c-1.656-0.61-3.708-0.127-4.774,1.279c-0.958,1.263-1.021,3.029-0.553,4.544
					c0.468,1.514,1.398,2.836,2.313,4.13c-1.814-0.903-3.722-1.829-5.791-1.524c-0.95,0.14-1.859,0.586-2.472,1.325
					c-1.496,1.804-0.474,3.981,1.055,5.185c1.968,1.551,4.853,1.829,7.082,0.685c-1.758,0.892-3.116,2.673-3.21,4.642
					c-0.093,1.969,1.267,3.995,3.199,4.388c1.602,0.327,3.319-0.499,4.25-1.843c0.931-1.344,1.128-3.114,0.739-4.703
					c0.973,1.799,2.762,3.202,4.791,3.458c2.791,0.352,5.901-1.724,5.492-5.004c-0.114-0.911-0.533-1.785-1.221-2.393
					c-1.583-1.4-3.707-1.037-5.614-0.622c2.453-1.177,4.31-3.529,4.883-6.189c0.33-1.531,0.095-3.462-1.619-3.949
					c-0.681-0.193-1.422-0.064-2.053,0.257c-1.68,0.855-2.434,2.14-3.253,3.536c-0.211-1.377,0.281-2.647-0.235-4.055
					C199.315,369.822,198.233,368.598,196.817,368.076z"/>
				<path style="fill:#E06F42;" d="M194.836,380.305c-0.285,0.863-0.136,1.852,0.364,2.611c0.393,0.596,1.039,1.067,1.752,1.075
					c0.584,0.006,1.139-0.298,1.545-0.717c1.099-1.132,1.144-3.263,0.044-4.444C197.352,377.552,195.263,379.012,194.836,380.305z"
					/>
			</g>
		</g>
		<g>
			<g>
				<path style="fill:#DF8B46;" d="M147.866,326.267c-2.025-1.336-13.907,1.869-10.909-2.808c1.41-1.178,2.679-2.822,2.182-4.778
					c-0.102-0.881-0.988-0.785-1.413-0.188c-1.176,1.121-2.842,1.528-4.274,2.296c-2.011,1.167-3.891,2.967-4.916,5.039
					c0.1,3.782-0.009,8.136,1.27,11.679c4.07,1.548,7.88,4.245,11.937,5.826c3.21-1.239-1.596-4.606-2.979-5.616
					c2.784,0.827,6.49,3.131,9.257,1.713c1.669-3.675-5.203-4.491-7.498-5.608c3.101-0.331,6.18,1.92,9.193,1.116
					c4.637-2.498-6.383-4.595-7.94-5.546c2.383-0.266,4.91,0.016,7.219-0.619C150.662,327.905,149.35,326.698,147.866,326.267z"/>
				<g>
					<path style="fill:#C05D2B;" d="M140.307,327.665c0.162,0.299,0.228,0.668,0.092,0.98c-0.141,0.324-0.464,0.523-0.768,0.701
						c-0.142,0.083-0.341,0.16-0.453,0.04c-0.089-0.095-0.054-0.247-0.02-0.373c0.126-0.47,0.151-0.967,0.075-1.448
						c-0.025-0.156-0.059-0.321-0.005-0.469C139.472,326.432,140.178,327.427,140.307,327.665z"/>
					<path style="fill:#C05D2B;" d="M140.624,330.843c0.169,0.332,0.247,0.727,0.132,1.081c-0.143,0.438-0.578,0.749-1.036,0.801
						c-0.203,0.023-0.444-0.02-0.54-0.2c-0.073-0.136-0.036-0.307,0.041-0.441c0.077-0.134,0.189-0.243,0.278-0.369
						c0.183-0.258,0.264-0.586,0.223-0.899c-0.031-0.235-0.14-0.714,0.253-0.688C140.273,330.147,140.507,330.613,140.624,330.843z"
						/>
					<path style="fill:#C05D2B;" d="M139.149,335.415c-0.163,0.445-0.502,0.824-0.927,1.034c-0.13,0.064-0.274,0.115-0.419,0.099
						c-0.145-0.016-0.288-0.112-0.321-0.253c-0.03-0.129,0.036-0.262,0.127-0.357c0.092-0.095,0.208-0.162,0.311-0.244
						c0.265-0.21,0.444-0.525,0.491-0.859c0.033-0.235,0-0.516,0.167-0.71c0.122-0.14,0.322-0.199,0.473-0.073
						C139.391,334.334,139.276,335.065,139.149,335.415z"/>
					<path style="fill:#C05D2B;" d="M135.999,338.914c-0.398,0.107-0.817,0.087-1.229,0.066c-0.098-0.005-0.213-0.021-0.258-0.108
						c-0.039-0.077-0.001-0.17,0.047-0.242c0.339-0.508,1.117-0.623,1.369-1.179c0.111-0.245,0.124-0.686,0.461-0.745
						c0.186-0.032,0.434,0.112,0.529,0.27c0.222,0.371,0.108,1.124-0.136,1.443C136.592,338.669,136.299,338.833,135.999,338.914z"
						/>
				</g>
			</g>
			<g>
				<path style="fill:#DF8B46;" d="M66.395,290.032c-5.57,14.262,0.678,33.741,15.117,40.202c15.014,7.349,34,5.19,49.83,7.546
					c-0.237-3.938,1.756-8.342-0.962-11.909c-1.603-0.736-28.495-6.978-37.291-11.438c-9.403-5.156-10.651-16.921-13.175-26.292
					C79.035,276.917,69.367,284.101,66.395,290.032z"/>
				<path style="fill:#C05D2B;" d="M77.574,328.023c0.311-0.606,0.637-1.216,0.98-1.826c3.234-5.767,7.201-10.402,11.237-14.112
					c-0.094-0.056-0.196-0.126-0.3-0.212c-0.233-0.192-0.393-0.397-0.501-0.563c-5.694,2.564-11.387,5.128-17.081,7.692l1.042,4.992
					c0.725,0.793,1.588,1.643,2.603,2.493C76.25,327.07,76.929,327.579,77.574,328.023z"/>
				<path style="fill:#C05D2B;" d="M81.827,326.048c0.071,0.325,0.073,0.667,0.183,0.981c0.11,0.315,0.373,0.613,0.706,0.617
					c0.229,0.003,0.443-0.138,0.572-0.327c0.128-0.19,0.18-0.422,0.194-0.65c0.042-0.695-0.265-1.401-0.801-1.845
					c-0.272-0.226-1.39-0.859-1.639-0.308c-0.12,0.266,0.249,0.471,0.39,0.663C81.621,325.437,81.759,325.734,81.827,326.048z"/>
			</g>
			<path style="fill:#EDBC5B;" d="M76.697,281.434c-20.292,4.079-17.092,33.292-5.646,45.041
				c3.512-5.183,12.021-12.844,18.34-15.329c-6.391-7.005-7.75-16.874-8.824-25.955"/>
		</g>
	</g>
	<g>
		<path style="fill:#EDBC5B;" d="M31.261,48.175c-1.922-0.066-3.922-0.153-5.612-1.071c-1.69-0.917-2.949-2.936-2.352-4.763
			c0.26-0.797,0.827-1.453,1.21-2.199c0.954-1.858,0.691-4.111,0.065-6.104c-0.626-1.992-1.588-3.882-2.004-5.929
			c-1.256-6.18,3.405-12.819,9.582-14.085c6.178-1.266,12.884,2.712,15.088,8.621c0.532,1.427,0.833,2.939,1.468,4.324
			c0.634,1.385,1.695,2.684,3.16,3.099c2.758,0.782,5.21-1.718,7.646-3.229c2.444-1.516,5.571-2.108,8.254-1.073
			c2.683,1.035,4.695,3.898,4.284,6.745c-0.258,1.785-1.321,3.804-0.193,5.212c1.055,1.316,3.104,0.897,4.751,0.529
			c3.5-0.784,7.179-0.753,10.666,0.09c1.553,0.375,3.121,0.941,4.266,2.055c1.145,1.114,1.767,2.889,1.148,4.363
			c-0.882,2.102-3.589,2.591-5.862,2.753c-5.048,0.36-10.106,0.575-15.166,0.645"/>
		<path style="fill:#A6CDCB;" d="M629.982,45.909c-1.682-2.266-1.79-7.292-0.04-9.506c1.75-2.214,4.432-3.477,7.108-4.373
			c2.676-0.896,5.467-1.51,7.981-2.793c5.004-2.553,8.327-7.407,11.848-11.784c3.521-4.377,7.914-8.694,13.493-9.348
			c6.01-0.704,12.182,3.743,13.416,9.667c0.44,2.112,0.38,4.478,1.74,6.152c1.399,1.722,3.915,2.129,6.1,1.738
			c2.184-0.391,4.191-1.43,6.294-2.138c3.824-1.287,8.288-1.389,11.667,0.817c3.379,2.206,5.053,7.148,2.828,10.514
			c3.79-1.364,7.842-2.748,11.767-1.841c3.925,0.907,7.352,5.125,5.878,8.874c-1.418,3.606-6.2,4.523-10.003,3.781"/>
		<path style="fill:#EAAB39;" d="M93.276,64.668c-1.682-2.266-1.79-7.292-0.04-9.506c1.75-2.214,4.432-3.477,7.108-4.373
			c2.676-0.896,5.467-1.51,7.981-2.793c5.004-2.553,8.327-7.407,11.848-11.784c3.521-4.377,7.914-8.694,13.493-9.348
			c6.01-0.704,12.182,3.743,13.416,9.667c0.44,2.112,0.38,4.478,1.74,6.152c1.399,1.722,3.916,2.129,6.1,1.738
			c2.184-0.391,4.191-1.43,6.294-2.138c3.825-1.287,8.288-1.388,11.667,0.818c3.379,2.206,5.053,7.147,2.828,10.514
			c3.79-1.364,7.842-2.748,11.767-1.841c3.925,0.907,7.352,5.125,5.878,8.874c-1.418,3.606-6.2,4.523-10.003,3.781"/>
		<path style="fill:#C5D7D6;" d="M534.331,57.926c0.369-3.237,3.113-6.05,6.339-6.5c1.949-0.272,4.013,0.227,5.855-0.465
			c1.648-0.62,2.82-2.094,3.71-3.614c1.201-2.053,2.041-4.299,3.194-6.379c1.154-2.08,2.701-4.054,4.849-5.077
			c2.148-1.023,4.986-0.86,6.612,0.876c1.401,1.496,1.814,3.95,3.667,4.825c1.119,0.529,2.484,0.282,3.547-0.352
			c1.063-0.634,1.875-1.606,2.625-2.59c1.823-2.392,3.419-4.98,5.558-7.095c2.139-2.114,4.978-3.752,7.983-3.628
			c3.414,0.14,6.425,2.579,8.051,5.584s2.071,6.504,2.185,9.919c0.059,1.787,0.041,3.611,0.592,5.312
			c0.551,1.701,1.805,3.298,3.546,3.708c1.811,0.427,3.662-0.49,5.523-0.512c3.469-0.039,6.451,3.665,5.673,7.045"/>
	</g>
	<g>
		<g>
			<path style="fill:#DA8265;" d="M110.827,216.917H27.978c-4.418,0-8-3.582-8-8v-23.83c0-4.418,3.582-8,8-8h82.849
				c4.418,0,8,3.582,8,8v23.83C118.827,213.336,115.245,216.917,110.827,216.917z"/>
			<path style="fill:#DA8265;" d="M38.503,214.863c3.358,6.444,9.8,10.063,16.372,12.804c1.363,0.569,2.731-0.842,2.069-2.162
				c-1.678-3.351-2.501-7.133-2.316-10.877"/>
		</g>
		<g>
			<path style="fill:#EDBC5B;" d="M151.933,162.407H69.084c-4.418,0-8-3.582-8-8v-23.83c0-4.418,3.582-8,8-8l82.849,0
				c4.418,0,8,3.582,8,8v23.83C159.933,158.825,156.352,162.407,151.933,162.407z"/>
			<path style="fill:#EDBC5B;" d="M140.606,160.353c-3.357,6.444-9.8,10.063-16.372,12.804c-1.363,0.569-2.731-0.842-2.069-2.162
				c1.678-3.351,2.501-7.133,2.316-10.877"/>
		</g>
	</g>
	<g>
		<g>
			<g>
				<path style="fill:none;stroke:#000000;stroke-width:2;stroke-miterlimit:10;" d="M654.635,359.514
					c-16.093-23.001-2.05-50.818,5.573-74.39c3.501-14.841-2.675-29.991-6.585-44.216c-11.393-37.517-11.256-86.657,22.81-112.171
					c-0.515,1.053-1.029,2.105-1.544,3.158"/>
				<g>
					<g>
						<path style="fill:#EAAB39;" d="M691.572,139.931c-1.352-0.143-2.692,0.298-3.971,0.761c-1.279,0.463-2.586,0.962-3.945,0.938
							c-0.617-0.011-1.281-0.157-1.687-0.622c-0.689-0.788-0.284-2.076,0.468-2.804c0.752-0.728,1.763-1.126,2.578-1.783
							c1.249-1.008,1.971-2.717,1.59-4.276c-0.381-1.559-1.982-2.791-3.569-2.549c-1.436,0.219-3.122,1.408-4.102,0.335
							c-0.518-0.567-0.401-1.505,0.049-2.127c0.451-0.622,1.15-1.005,1.822-1.378c5.274-2.922,10.242-6.394,14.801-10.34
							c1.258-1.089,2.525-2.271,3.141-3.817c0.616-1.546,0.385-3.555-0.96-4.536c-1.805-1.316-4.312-0.181-6.23,0.964
							c-4.085,2.439-8.171,4.879-12.256,7.318c-0.811,0.484-1.66,0.981-2.602,1.053c-0.942,0.072-1.999-0.424-2.242-1.337
							c-0.323-1.214,0.875-2.372,0.788-3.626c-0.083-1.196-1.362-2.02-2.56-2.037c-1.199-0.018-2.318,0.551-3.38,1.105
							c-4.22,2.201-8.441,4.403-12.661,6.604c-1.318,0.688-3.134,1.298-4.113,0.18c-1.021-1.166-0.051-2.954,0.933-4.152
							c4.461-5.432,9.347-10.514,14.598-15.187c3.208-2.855,6.619-5.635,8.779-9.347c0.567-0.975,1.036-2.221,0.451-3.185
							c-0.65-1.072-2.259-1.113-3.368-0.528c-1.109,0.585-1.913,1.605-2.89,2.39c-0.922,0.74-2.434,1.197-3.167,0.27
							c-0.824-1.042,0.257-2.49,1.261-3.36c2.636-2.283,5.272-4.566,7.907-6.85c-2.42-0.21-4.898-0.176-7.405,0.141
							c-19.051,2.409-32.542,19.805-30.133,38.856c2.409,19.051,19.805,32.541,38.856,30.132c5.817-0.735,11.11-2.874,15.596-6.024
							C693.363,140.454,692.468,140.026,691.572,139.931z"/>
						<path style="fill:#EDBC5B;" d="M708.483,108.286c-2.092-16.543-15.487-28.886-31.451-30.274
							c-2.636,2.283-5.271,4.566-7.907,6.85c-1.004,0.87-2.084,2.317-1.261,3.36c0.733,0.927,2.245,0.47,3.167-0.27
							c0.977-0.785,1.781-1.805,2.89-2.39c1.109-0.585,2.718-0.543,3.368,0.528c0.585,0.964,0.116,2.21-0.451,3.185
							c-2.16,3.712-5.571,6.492-8.779,9.347c-5.251,4.672-10.137,9.755-14.598,15.187c-0.984,1.198-1.954,2.986-0.933,4.152
							c0.979,1.118,2.795,0.508,4.113-0.18c4.22-2.201,8.441-4.403,12.661-6.604c1.063-0.554,2.182-1.123,3.38-1.105
							c1.198,0.018,2.477,0.841,2.56,2.037c0.087,1.254-1.111,2.412-0.788,3.626c0.243,0.913,1.301,1.408,2.242,1.337
							c0.942-0.072,1.791-0.569,2.602-1.053c4.085-2.439,8.171-4.879,12.256-7.318c1.918-1.145,4.425-2.28,6.23-0.964
							c1.345,0.98,1.576,2.99,0.96,4.536c-0.616,1.546-1.883,2.728-3.141,3.817c-4.558,3.946-9.527,7.418-14.801,10.34
							c-0.672,0.372-1.372,0.755-1.822,1.378c-0.451,0.622-0.567,1.56-0.049,2.127c0.98,1.073,2.666-0.116,4.102-0.335
							c1.587-0.242,3.188,0.99,3.569,2.549c0.381,1.559-0.341,3.268-1.59,4.276c-0.815,0.657-1.826,1.055-2.578,1.783
							c-0.752,0.728-1.157,2.016-0.468,2.804c0.406,0.465,1.07,0.611,1.687,0.622c1.36,0.024,2.667-0.475,3.945-0.938
							c1.279-0.463,2.618-0.905,3.971-0.761c0.896,0.095,1.792,0.524,2.375,1.187C704.153,133.95,710.157,121.52,708.483,108.286z"
							/>
					</g>
					<g>
						<path d="M683.945,107.858c2.846,2.464,3.708-5.287,0.715-4.599C682.683,103.789,682.727,106.655,683.945,107.858z"/>
						<path d="M664.329,110.102c-2.537,2.782-4.304-4.814-1.25-4.483C665.104,105.913,665.397,108.763,664.329,110.102z"/>
						<path d="M659.214,103.48c-0.246,0.021-0.5,0.032-0.732-0.049c-0.233-0.081-0.442-0.277-0.467-0.522
							c-0.037-0.359,0.301-0.632,0.602-0.831c1.072-0.709,2.143-1.417,3.215-2.125c0.892-0.59,2.029-1.304,3.118-0.781
							c0.879,0.422,0.973,1.286,0.337,1.978C663.916,102.646,661.148,103.319,659.214,103.48z"/>
						<path d="M667.878,123.963c1.305-0.613,2.72-1.284,4.129-0.977c0.875,0.191,1.662,0.751,2.557,0.791
							c1.123,0.051,2.1-0.719,2.936-1.471c0.836-0.752,1.74-1.572,2.861-1.661c1.345-0.106,2.588,0.886,3.935,0.811
							c1.799-0.1,2.991-1.998,4.725-2.487c1.049-0.296,2.192-0.031,3.151,0.486c0.959,0.517,1.768,1.268,2.565,2.011
							c-1.076-0.155-2.164-0.311-3.248-0.219c-1.084,0.091-2.179,0.452-2.964,1.206c-0.907,0.871-1.391,2.238-2.552,2.723
							c-1.023,0.427-2.185,0.001-3.194-0.457c-1.009-0.457-2.113-0.961-3.184-0.674c-1.049,0.281-1.749,1.236-2.4,2.105
							c-0.651,0.869-1.453,1.779-2.533,1.89c-1.944,0.2-3.312-2.255-5.266-2.285c-0.937-0.014-1.77,0.54-2.615,0.945
							c-0.734,0.352-3.313,0.845-2.668-0.746C664.631,124.674,666.798,124.471,667.878,123.963z"/>
						<path d="M681.468,97.933c0.991-1.177,2.73-1.66,4.186-1.163c0.293,0.1,0.581,0.237,0.89,0.249
							c0.309,0.012,0.655-0.145,0.734-0.444c0.097-0.364-0.229-0.696-0.538-0.91c-1.996-1.383-4.841-1.682-7.027-0.561
							c-1.366,0.701-3.306,3.635-1.039,4.536C680.069,100.194,680.724,98.816,681.468,97.933z"/>
					</g>
				</g>
			</g>
			<g>
				<path style="fill:#D66B54;" d="M657.153,323.322c5.281,7.545,10.637,15.173,17.766,21.244c0.971,0.827,2.009,1.643,3.268,2.019
					c1.259,0.377,2.798,0.221,3.728-0.688c1.123-1.098,0.99-2.872,0.332-4.227c-0.657-1.354-1.738-2.495-2.383-3.854
					c-2.22-4.675,1.221-10.327-0.175-15.286c-1.144-4.064-5.682-6.858-10.217-6.676c-4.535,0.183-8.767,3.077-10.771,6.911"/>
				<path style="fill:#DA8265;" d="M646.364,308.6c3.226,12.666,8.827,18.234,23.221,16.457
					c12.247,4.077,12.968,12.867,31.449,10.168c7.02-1.188,13.539-4.483,19.129-8.695c27.883-29.987-32.497-4.32-54.952-27.79
					c0.66,0.781-8.344,6.331-9.261,6.79C652.824,307.091,649.371,307.031,646.364,308.6z"/>
				<g>
					<path style="fill:#E1A98C;" d="M631.676,256.093c-11.843-0.425-22.783,8.952-23.352,20.001
						c-24.487,12.188-9.251,46.472,16.971,34.948c11.868,1.797,26.632,5.203,35.167-5.937c2.757,10.744,17.7,15.437,27.221,8.552
						c3.138,10.568,20.142,11.037,24.468,0.681c11.299,9.67,33.135,0.094,21.615-14.112c10.095-1.56,13.518-15.934,4.34-20.536
						c7.359-11.128-2.389-26.963-16.666-24.755c-1.582-11.636-18.118-16.578-27.072-8.096c-5.847-11.063-24.188-11.192-30.763-0.222
						c-10.141-6.415-25.497-1.379-29.432,9.65C633.346,256.164,632.512,256.106,631.676,256.093z"/>
					<g>
						<path style="fill:#DA8265;" d="M659.662,306.138c0.641-1.502,0.65-3.354-0.481-4.538c-1.235-1.293-3.344-1.398-5.223-1.384
							c-1.879,0.014-3.971-0.02-5.293-1.236c-0.537-0.494-0.824-1.444-0.185-1.846c0.353-0.222,0.816-0.153,1.227-0.075
							c1.669,0.316,3.338,0.633,5.007,0.949c1.183,0.224,2.289,0.438,3.46,0.52c0.814,0.057,1.87,1.587,2.671,1.023
							c0.2-0.141,0.286-0.379,0.363-0.601c1.258-3.635,3.078-7.113,5.385-10.289c1.333-1.836,2.972-3.668,5.232-4.332
							c0.524-0.154,1.149-0.222,1.561,0.103c0.52,0.41,0.401,1.2,0.097,1.783c-0.705,1.354-2.082,2.278-3.3,3.272
							c-2.355,1.921-4.28,4.3-5.608,6.932c0.005-0.01,2.051-0.685,2.278-0.788c0.667-0.305,1.272-0.589,1.894-0.981
							c1.667-1.049,3.365-2.083,5.256-2.735c2.11-0.728,4.502-0.941,6.541-0.136c0.479,0.189,0.966,0.467,1.14,0.924
							c0.268,0.705-0.371,1.495-1.133,1.763c-0.763,0.268-1.599,0.171-2.405,0.128c-4.075-0.222-8.26,1.078-11.431,3.55
							c-3.171,2.472-5.293,6.089-5.796,9.879"/>
						<path style="fill:#DA8265;" d="M663.389,246.78c-10.13,0.041-22.645,8.843-22.452,13.595
							c-3.228-1.662-21.346,6.035-19.18,15.478c5.224,12.979,34.485,8.894,30.913,12.805c-1.727,1.891-25.153-1.729-32.322-10.292
							c-5.023,8.142-4.229,19.155,2.611,25.94c0.925,0.718,1.943,2.422,0.47,3.121c-10.061-4.175-13.618-25.092-3.975-31.797
							c-1.414-9.588,15.917-18.297,19.837-17.168C640.107,252.516,653.177,244.507,663.389,246.78z"/>
						<path style="fill:#DA8265;" d="M625.686,281.123c0.917,0.875,2.368,1.102,3.686,0.924c1.923-0.261,3.7-1.295,4.944-2.705
							c1.244-1.41,1.976-3.174,2.24-4.968c0.08-0.543,0.124-1.105,0.387-1.599c0.263-0.494,0.819-0.909,1.398-0.835
							c0.656,0.084,1.04,0.731,1.16,1.336c0.283,1.434-0.357,2.903-1.126,4.196c-0.892,1.501-1.992,2.922-3.421,4.009
							c-1.429,1.087-3.21,1.821-5.033,1.835"/>
						<path style="fill:#DA8265;" d="M650.391,287.336c0.482,2.193,1.991,4.275,4.253,5.009c0.473,0.153,0.986,0.246,1.481,0.148
							c0.495-0.099,0.967-0.421,1.111-0.874c0.166-0.519-0.128-1.073-0.546-1.436c-0.418-0.363-0.948-0.59-1.426-0.883
							c-1.99-1.218-2.962-3.701-2.298-5.87c0.295-0.963,1.061-2.272,0.262-3.185c-0.605-0.691-1.327-0.251-1.828,0.339
							C649.922,282.327,649.947,285.312,650.391,287.336z"/>
						<path style="fill:#DA8265;" d="M688.157,254.229c-3,1.717-6.514,2.502-9.996,2.723c-1.481,0.094-3.002,0.097-4.396,0.598
							c-0.583,0.209-1.196,0.583-1.291,1.156c-0.084,0.503,0.287,0.987,0.763,1.223c0.476,0.236,1.037,0.275,1.581,0.292
							c4.579,0.151,9.307-0.893,13.098-3.38c3.791-2.487,6.539-6.494,6.841-10.763c-0.021,0.296-0.39,0.784-0.51,1.075
							c-0.159,0.387-0.275,0.785-0.451,1.169c-0.376,0.821-0.861,1.599-1.428,2.321
							C691.238,252.081,689.784,253.298,688.157,254.229z"/>
						<path style="fill:#DA8265;" d="M671.595,263.115c0.487-1.048,0.485-2.233,0.276-3.344c-0.209-1.111-0.612-2.177-0.907-3.269
							c-0.188-0.696-0.33-1.442-0.086-2.133c0.244-0.691,0.996-1.286,1.754-1.152c0.711,0.124,1.13,0.789,1.415,1.405
							c0.914,1.978,1.364,4.205,0.885,6.34c-0.479,2.135-1.985,4.15-4.145,5.012c-0.721,0.288-2.657,0.383-1.583-0.669
							C670.045,264.482,671.061,264.262,671.595,263.115z"/>
						<path style="fill:#DA8265;" d="M692.668,302.578c0.156-1.387,0.253-2.974,1.426-3.861c1.012,0.686,1.091,2.059,0.957,3.233
							c-0.315,2.759-1.308,5.464-2.881,7.846c1.582-1.8,3.341-3.465,5.247-4.968c0.652-0.514,1.358-1.026,2.191-1.174
							c0.833-0.148,1.815,0.195,2.062,0.942c0.272,0.821-0.409,1.651-1.066,2.276c-3.083,2.938-6.742,5.347-10.724,7.084
							c-0.398,0.174-2.51,1.3-2.878,1.075c-0.592-0.362,0.465-1.329,0.701-1.601c1.298-1.495,2.401-3.104,3.235-4.861
							C691.843,306.666,692.436,304.637,692.668,302.578z"/>
						<path style="fill:#DA8265;" d="M717.785,296.995c-0.584-0.478-1.353-1.032-2.065-0.704c-0.435,0.201-0.655,0.691-0.627,1.138
							c0.028,0.447,0.258,0.857,0.52,1.227c1.17,1.655,3.052,2.799,5.085,3.406c2.034,0.607,4.218,0.71,6.367,0.585
							c1.631-0.095,3.314-0.349,4.806-1.029c0.304-0.139,1.965-0.915,1.861-1.301c-0.116-0.43-1.741,0.122-2.064,0.175
							c-3.144,0.523-6.42,0.189-9.344-0.91C720.668,298.959,719.122,298.09,717.785,296.995z"/>
						<path style="fill:#DA8265;" d="M721.552,300.501c1.68-0.233,3.054-1.554,3.609-3.056c0.555-1.502,0.402-3.147-0.037-4.661
							c-0.439-1.514-1.15-2.94-1.719-4.414c-0.238-0.616-0.454-1.275-0.318-1.925c0.136-0.65,0.744-1.272,1.45-1.232
							c0.641,0.036,1.097,0.566,1.425,1.074c2.085,3.231,2.244,7.497,0.408,10.94c-0.766,1.435-1.867,2.775-2.121,4.351"/>
						<path style="fill:#DA8265;" d="M718.109,264.474c0.15,2.476,1.022,4.903,0.771,7.38c-0.04,0.391-0.112,0.793-0.33,1.133
							c-0.219,0.34-0.613,0.609-1.033,0.594c-0.698-0.025-1.08-0.74-1.282-1.36c-0.649-1.989-0.947-4.084-0.879-6.177
							c0.018-0.561,0.05-1.168-0.288-1.624c-0.343-0.463-0.998-0.651-1.608-0.617c-0.61,0.034-1.192,0.255-1.764,0.466
							c-3.948,1.457-8.027,2.59-12.173,3.382c-2.126,0.406-4.475,0.69-6.31-0.333c-0.343-0.191-0.669-0.436-0.845-0.771
							c-0.176-0.335-0.171-0.776,0.097-1.063c0.395-0.424,1.102-0.339,1.686-0.241c1.716,0.286,3.479,0.352,5.224,0.195
							c2.51-0.226,4.961-0.908,7.325-1.764c1.832-0.664,3.62-1.433,5.406-2.202c1.042-0.449,2.094-0.903,3.001-1.562
							c2.328-1.692,3.491-4.57,6.001-6.015c-0.034,0.018,0.222,1.068,0.171,1.234c-0.103,0.33-0.589,0.734-0.794,1.033
							c-0.565,0.822-1.037,1.699-1.408,2.609C718.333,260.59,717.993,262.547,718.109,264.474z"/>
						<path style="fill:#DA8265;" d="M691.773,288.446c2.66-1.404,4.798-3.669,5.948-6.302c0.074-0.17,0.146-0.357,0.093-0.531
							c-0.082-0.272-0.415-0.387-0.703-0.474c-3.17-0.952-5.924-2.998-7.617-5.659c-0.225-0.354-0.408-0.866-0.064-1.14
							c0.297-0.236,0.744-0.087,1.078,0.085c2.734,1.411,4.903,3.743,7.872,4.678c2.349,0.74,4.925,0.516,7.411,0.691
							c2.416,0.17,4.819,0.74,6.877,1.894c2.059,1.154,3.755,2.922,4.507,5.056c-5.056-3.057-11.193-4.568-17.282-4.254
							c-1.156,1.746-2.562,3.351-4.168,4.757c-1.354,1.186-2.888,2.25-4.652,2.766c-0.22,0.064-0.454,0.12-0.675,0.07
							c-0.221-0.05-0.419-0.239-0.388-0.451c0.032-0.212,0.37-0.344,0.507-0.176"/>
					</g>
				</g>
			</g>
			<g>
				<path style="fill:none;stroke:#000000;stroke-width:2;stroke-miterlimit:10;" d="M710.799,450.649
					c-4.031-16.034,0.562-32.783,3.734-49.009c3.721-19.035,5.482-38.392,7.237-57.708c1.812-19.936,3.573-40.433-2.06-59.642
					c-3.1-10.57-8.348-20.383-11.951-30.793c-3.603-10.409-5.494-22.003-1.715-32.349"/>
				<g>
					<g>
						<path style="fill:#A6CDCB;" d="M741.266,188.097c-0.619,1.211-0.688,2.62-0.715,3.979c-0.027,1.36-0.03,2.759-0.54,4.019
							c-0.232,0.572-0.607,1.139-1.186,1.351c-0.983,0.36-2.039-0.48-2.449-1.443c-0.41-0.963-0.418-2.05-0.739-3.046
							c-0.492-1.528-1.828-2.815-3.42-3.019c-1.592-0.204-3.317,0.848-3.661,2.416c-0.311,1.419,0.193,3.42-1.16,3.949
							c-0.715,0.28-1.548-0.166-1.967-0.81c-0.419-0.644-0.525-1.435-0.632-2.195c-0.834-5.971-2.29-11.855-4.337-17.526
							c-0.565-1.565-1.213-3.172-2.435-4.302c-1.222-1.13-3.18-1.635-4.578-0.732c-1.876,1.213-1.717,3.959-1.337,6.161
							c0.81,4.689,1.62,9.378,2.431,14.066c0.161,0.931,0.32,1.901,0.049,2.806c-0.271,0.905-1.113,1.714-2.053,1.613
							c-1.249-0.134-1.9-1.668-3.102-2.037c-1.146-0.351-2.374,0.546-2.82,1.658c-0.447,1.112-0.318,2.361-0.182,3.552
							c0.54,4.729,1.079,9.459,1.619,14.188c0.169,1.477,0.086,3.391-1.309,3.904c-1.455,0.535-2.776-1.013-3.541-2.361
							c-3.468-6.114-6.458-12.499-8.934-19.077c-1.513-4.019-2.883-8.201-5.572-11.549c-0.706-0.879-1.701-1.764-2.811-1.564
							c-1.234,0.222-1.85,1.709-1.702,2.954c0.148,1.245,0.812,2.362,1.193,3.555c0.36,1.126,0.243,2.701-0.885,3.052
							c-1.268,0.395-2.232-1.133-2.683-2.383c-1.185-3.28-2.37-6.559-3.554-9.839c-1.065,2.183-1.922,4.508-2.527,6.963
							c-4.591,18.645,6.803,37.482,25.449,42.073c18.646,4.591,37.482-6.803,42.073-25.449c1.401-5.693,1.306-11.401-0.024-16.719
							C742.398,186.613,741.677,187.295,741.266,188.097z"/>
						<path style="fill:#C5D7D6;" d="M717.801,160.953c-16.191-3.986-32.52,4.085-39.546,18.486c1.185,3.28,2.37,6.559,3.554,9.839
							c0.451,1.249,1.415,2.777,2.683,2.383c1.128-0.351,1.245-1.927,0.885-3.052c-0.382-1.194-1.045-2.311-1.193-3.555
							c-0.148-1.245,0.468-2.732,1.702-2.954c1.11-0.2,2.104,0.685,2.811,1.564c2.689,3.348,4.059,7.53,5.572,11.549
							c2.476,6.578,5.466,12.963,8.934,19.077c0.765,1.349,2.085,2.896,3.541,2.361c1.395-0.513,1.477-2.427,1.309-3.904
							c-0.54-4.729-1.079-9.459-1.619-14.188c-0.136-1.191-0.265-2.44,0.182-3.552c0.447-1.112,1.674-2.01,2.82-1.658
							c1.201,0.368,1.852,1.903,3.102,2.037c0.939,0.101,1.781-0.708,2.053-1.613c0.271-0.905,0.112-1.876-0.049-2.806
							c-0.81-4.689-1.62-9.377-2.431-14.066c-0.38-2.201-0.54-4.948,1.337-6.161c1.398-0.903,3.356-0.398,4.578,0.732
							c1.222,1.13,1.87,2.736,2.435,4.302c2.047,5.671,3.503,11.555,4.337,17.526c0.106,0.761,0.213,1.551,0.632,2.195
							c0.419,0.644,1.252,1.09,1.967,0.81c1.353-0.529,0.848-2.53,1.16-3.949c0.344-1.568,2.069-2.62,3.661-2.416
							c1.592,0.204,2.928,1.491,3.42,3.019c0.321,0.996,0.329,2.083,0.739,3.046c0.41,0.963,1.466,1.803,2.449,1.443
							c0.58-0.213,0.955-0.779,1.186-1.351c0.51-1.261,0.514-2.66,0.54-4.019c0.026-1.36,0.096-2.769,0.715-3.979
							c0.41-0.802,1.132-1.484,1.96-1.791C740.2,174.208,730.754,164.142,717.801,160.953z"/>
					</g>
					<g>
						<path d="M720.281,192.346c2.202,3.054,4.826-4.29,1.755-4.311C719.99,188.096,719.373,190.895,720.281,192.346z"/>
						<path style="fill:#FFFFFF;" d="M722.918,201.538c0.477,1.989,3.005,2.171,3.354,0.02c-0.257-2.971-1.838-6.204-3.06-8.872
							C722.247,195.453,722.049,198.734,722.918,201.538z"/>
						<path d="M700.675,190.012c-3.109,2.123-3.08-5.676-0.184-4.65C702.394,186.113,702.023,188.955,700.675,190.012z"/>
						<path d="M711.672,206.259c1.878-0.3,13.55,5.631,7.545,6.086c-8.083-3.372-11.145-3.812-19.817-2.196
							C692.838,208.249,709.917,204.912,711.672,206.259z"/>
						<path d="M724.473,185.307c0.246,0.016,0.5,0.023,0.731-0.063c0.231-0.086,0.436-0.285,0.457-0.531
							c0.03-0.359-0.313-0.626-0.618-0.819c-1.085-0.688-2.17-1.376-3.255-2.063c-0.904-0.573-2.054-1.265-3.132-0.721
							c-0.871,0.439-0.948,1.304-0.299,1.984C719.756,184.562,722.537,185.182,724.473,185.307z"/>
						<path d="M697.223,182.39c-0.244-0.037-0.494-0.083-0.701-0.216c-0.208-0.133-0.366-0.371-0.334-0.616
							c0.047-0.358,0.439-0.546,0.777-0.67c1.206-0.442,2.412-0.885,3.618-1.327c1.004-0.369,2.275-0.801,3.214-0.042
							c0.758,0.613,0.65,1.475-0.128,2.003C701.991,182.661,699.142,182.678,697.223,182.39z"/>
					</g>
				</g>
			</g>
			<g>
				<defs>
					
						<rect id="SVGID_00000015327254748689740830000005310009984092262838_" x="569.107" y="333.638" width="180.893" height="147.237"/>
				</defs>
				<clipPath id="SVGID_00000141442895371126953740000003330419166019677083_">
					<use xlink:href="#SVGID_00000015327254748689740830000005310009984092262838_"  style="overflow:visible;"/>
				</clipPath>
				<g style="clip-path:url(#SVGID_00000141442895371126953740000003330419166019677083_);">
					<g>
						<path style="fill:#C5D7D6;" d="M751.724,401.846c-0.851,1.07-1.869,2.133-3.205,2.424c-1.336,0.291-2.986-0.575-3.018-1.942
							c-0.04-1.742,2.372-3.191,1.617-4.761c-0.33-0.685-1.184-0.983-1.939-0.896c-0.755,0.088-1.435,0.479-2.092,0.862
							c-4.188,2.442-8.375,4.885-12.563,7.327c-0.971,0.566-1.987,1.147-3.109,1.221c-1.122,0.074-2.374-0.528-2.653-1.616
							c-0.357-1.39,0.932-2.612,2.098-3.447c3.34-2.391,6.828-4.574,10.439-6.531c3.564-1.932,7.631-4.1,8.642-8.026
							c0.326-1.266,0.145-2.865-0.997-3.502c-0.633-0.353-1.404-0.318-2.125-0.239c-2.709,0.298-5.362,1.094-7.788,2.336
							c-0.582,0.298-1.176,0.629-1.829,0.667c-0.653,0.038-1.384-0.325-1.519-0.965c-0.157-0.742,0.539-1.404,1.25-1.668
							c0.711-0.264,1.507-0.311,2.155-0.706c0.648-0.394,1.049-1.369,0.515-1.907c-3.381,0.992-6.762,1.983-10.143,2.975
							c-0.966,0.283-2.12,0.532-2.89-0.118c-0.735-0.621-0.714-1.819-0.215-2.642c0.498-0.823,1.346-1.36,2.164-1.867
							c3.001-1.861,6.003-3.723,9.004-5.584c1.111-0.689,2.24-1.393,3.098-2.379c0.858-0.986,1.419-2.315,1.182-3.601
							c-1.622,0.582-3.503-1.321-2.901-2.936c0.312-0.836,1.075-1.409,1.816-1.905c1.658-1.109,3.408-2.081,5.224-2.908
							l11.816,40.007C752.982,400.181,752.364,401.041,751.724,401.846z"/>
						<path style="fill:#C5D7D6;" d="M649.356,476.628c-0.212-0.953-1.615-0.739-2.541-1.047c-1.675-0.557-1.575-3.221-0.201-4.329
							c1.374-1.108,3.3-1.115,5.065-1.118c7.602-0.013,15.202-0.94,22.585-2.753c2.033-0.499,4.129-1.107,5.688-2.505
							c1.559-1.397,2.405-3.808,1.405-5.647c-0.801-1.472-2.566-2.205-4.241-2.243c-1.675-0.039-3.303,0.497-4.902,1
							c-6.788,2.137-13.726,3.799-20.746,4.97c-0.293-1.945,1.575-3.562,3.434-4.206c1.858-0.644,3.931-0.775,5.573-1.858
							c1.642-1.083,2.494-3.739,0.956-4.965c-0.917-0.731-2.227-0.613-3.383-0.417c-5.4,0.912-10.627,2.691-16.032,3.576
							s-11.215,0.799-16.025-1.82c0.463-1.661,1.909-2.897,3.492-3.578c1.584-0.681,3.32-0.898,5.021-1.179
							c14.89-2.461,28.418-10.248,43.164-13.459c1.98-0.431,4.113-0.766,5.981,0.02c1.868,0.787,3.214,3.124,2.246,4.904
							c-0.724,1.33-2.365,1.831-3.862,2.061c-1.497,0.23-3.112,0.352-4.29,1.303c-1.178,0.951-1.467,3.122-0.131,3.833
							c0.635,0.338,1.405,0.239,2.116,0.126c10.908-1.732,21.664-4.421,32.105-8.025c1.473-0.509,3.002-1.043,4.551-0.874
							c1.549,0.17,3.118,1.278,3.254,2.831c0.303,3.455-5.893,4.745-5.596,8.2c1.956,0.214,3.701-1.103,5.336-2.199
							c1.634-1.096,3.763-2.047,5.494-1.111c1.792,0.968,2.101,3.576,1.173,5.389c-0.928,1.814-2.716,3.003-4.452,4.069
							c-9.549,5.863-20.235,10.574-31.44,10.651c-0.983,0.007-2.122,0.05-2.712,0.837c-1.029,1.373,0.717,3.182,2.36,3.675
							c1.643,0.493,3.704,0.805,4.314,2.408c0.435,1.141-0.169,2.468-1.112,3.244c-0.943,0.776-2.157,1.124-3.333,1.453
							c-0.824,0.23-1.647,0.461-2.471,0.691l-40.226-0.206c0.25-0.062,0.501-0.125,0.751-0.187
							C648.526,477.943,649.536,477.434,649.356,476.628z"/>
						<path style="fill:#A6CDCB;" d="M608.714,421.402c0.594-0.6,1.124-1.392,1-2.228c-0.167-1.117-1.447-1.753-2.576-1.715
							c-1.129,0.038-2.183,0.541-3.278,0.82c-1.095,0.279-2.392,0.284-3.2-0.506c-0.896-0.876-0.794-2.422-0.095-3.462
							c0.699-1.04,1.841-1.683,2.963-2.242c5.061-2.521,10.589-4.101,16.218-4.635c1.428-0.135,2.926-0.224,4.151-0.969
							c1.225-0.745,2.036-2.405,1.327-3.653c-0.7-1.232-2.375-1.41-3.791-1.406c-9.574,0.032-19.139,1.858-28.051,5.356
							c-1.053,0.413-2.145,0.857-3.273,0.768c-1.128-0.089-2.289-0.908-2.34-2.037c-0.053-1.16,0.991-2.027,1.866-2.79
							c0.875-0.763,1.739-1.935,1.246-2.986c-0.511-1.088-2.02-1.126-3.216-0.999c-2.989,0.316-5.977,0.633-8.966,0.95
							l27.618-57.439l130.214-1.03l5.41,18.315c-1.816,0.827-3.565,1.799-5.224,2.908c-0.742,0.496-1.505,1.069-1.816,1.905
							c-0.602,1.615,1.279,3.519,2.901,2.936c0.238,1.285-0.324,2.615-1.182,3.601c-0.858,0.986-1.987,1.69-3.098,2.379
							c-3.001,1.861-6.003,3.723-9.004,5.584c-0.818,0.507-1.666,1.044-2.164,1.867c-0.498,0.823-0.52,2.021,0.215,2.642
							c0.769,0.65,1.924,0.401,2.89,0.118c3.381-0.992,6.762-1.983,10.143-2.975c0.534,0.538,0.133,1.513-0.515,1.907
							c-0.648,0.394-1.444,0.442-2.155,0.706c-0.711,0.264-1.407,0.926-1.25,1.668c0.135,0.64,0.867,1.003,1.519,0.965
							c0.653-0.038,1.247-0.369,1.829-0.667c2.426-1.242,5.079-2.038,7.788-2.336c0.72-0.079,1.492-0.114,2.125,0.239
							c1.142,0.637,1.322,2.236,0.997,3.502c-1.01,3.926-5.078,6.094-8.642,8.026c-3.611,1.957-7.1,4.14-10.439,6.531
							c-1.167,0.835-2.455,2.057-2.098,3.447c0.28,1.089,1.532,1.691,2.653,1.616c1.121-0.074,2.138-0.655,3.109-1.221
							c4.188-2.442,8.375-4.885,12.563-7.327c0.656-0.383,1.337-0.774,2.092-0.862c0.755-0.087,1.609,0.211,1.939,0.896
							c0.756,1.57-1.656,3.019-1.617,4.761c0.031,1.367,1.682,2.233,3.018,1.942c1.336-0.291,2.355-1.354,3.205-2.424
							c0.64-0.805,1.258-1.665,2.033-2.324l1.474,4.992l-21.326,74.26l-46.707-0.239c0.824-0.23,1.647-0.461,2.471-0.691
							c1.176-0.329,2.39-0.677,3.333-1.453c0.943-0.776,1.547-2.103,1.112-3.244c-0.611-1.603-2.671-1.915-4.314-2.408
							c-1.643-0.493-3.388-2.302-2.36-3.675c0.589-0.786,1.729-0.83,2.712-0.837c11.205-0.077,21.891-4.788,31.44-10.651
							c1.736-1.066,3.524-2.255,4.452-4.069c0.928-1.814,0.619-4.421-1.173-5.389c-1.731-0.935-3.86,0.015-5.494,1.111
							c-1.634,1.096-3.38,2.413-5.336,2.199c-0.297-3.455,5.9-4.745,5.596-8.2c-0.136-1.552-1.705-2.661-3.254-2.831
							c-1.549-0.17-3.078,0.365-4.551,0.874c-10.44,3.605-21.196,6.294-32.105,8.025c-0.711,0.113-1.481,0.213-2.116-0.126
							c-1.336-0.712-1.047-2.882,0.131-3.833c1.178-0.951,2.793-1.073,4.29-1.303c1.496-0.23,3.138-0.732,3.862-2.061
							c0.969-1.78-0.378-4.117-2.246-4.904c-1.868-0.787-4-0.452-5.981-0.02c-14.747,3.212-28.274,10.999-43.164,13.459
							c-1.701,0.281-3.437,0.498-5.021,1.179c-1.584,0.681-3.03,1.917-3.492,3.578c4.81,2.619,10.62,2.705,16.025,1.82
							s10.631-2.663,16.032-3.576c1.156-0.195,2.466-0.313,3.383,0.417c1.538,1.226,0.686,3.882-0.956,4.965
							c-1.642,1.083-3.714,1.214-5.573,1.858c-1.858,0.644-3.727,2.261-3.434,4.206c7.02-1.171,13.957-2.833,20.746-4.97
							c1.598-0.503,3.227-1.039,4.902-1c1.675,0.038,3.44,0.771,4.241,2.243c1,1.839,0.154,4.25-1.405,5.647
							c-1.559,1.397-3.654,2.005-5.688,2.505c-7.383,1.813-14.983,2.739-22.585,2.753c-1.765,0.003-3.692,0.01-5.065,1.118
							c-1.374,1.108-1.474,3.773,0.201,4.329c0.926,0.308,2.329,0.094,2.541,1.047c0.18,0.807-0.83,1.315-1.632,1.515
							c-0.25,0.062-0.501,0.125-0.751,0.187l-52.469-0.269l0.263-51.431c1.106-0.389,2.228-0.731,3.364-1.018
							C601.865,424.668,606.006,424.139,608.714,421.402z"/>
						<path style="fill:#C5D7D6;" d="M569.107,419.62l9.593-19.951c2.989-0.317,5.977-0.633,8.966-0.95
							c1.196-0.127,2.704-0.089,3.216,0.999c0.494,1.051-0.37,2.223-1.246,2.986c-0.875,0.763-1.918,1.63-1.866,2.79
							c0.051,1.13,1.213,1.948,2.34,2.037c1.127,0.089,2.22-0.355,3.273-0.768c8.912-3.498,18.477-5.324,28.051-5.356
							c1.416-0.005,3.091,0.174,3.791,1.406c0.708,1.247-0.102,2.908-1.327,3.653c-1.226,0.745-2.723,0.833-4.151,0.969
							c-5.629,0.534-11.157,2.114-16.218,4.635c-1.122,0.559-2.264,1.202-2.963,2.242c-0.699,1.04-0.801,2.586,0.095,3.462
							c0.808,0.79,2.105,0.786,3.2,0.506c1.095-0.279,2.149-0.782,3.278-0.82c1.129-0.038,2.409,0.597,2.576,1.715
							c0.125,0.836-0.405,1.628-1,2.228c-2.708,2.737-6.849,3.266-10.582,4.209c-1.136,0.287-2.259,0.629-3.364,1.018l0.035-6.877
							L569.107,419.62z"/>
					</g>
					<g>
						<g>
							<path d="M606.763,386.101c2.497-1.321,5.322-2.103,8.141-1.939c3.929,0.229,7.496,2.226,11.054,3.907
								c1.374,0.649,3.104,1.226,4.312,0.305c0.935-0.714,1.122-2.114,0.711-3.216s-1.296-1.957-2.214-2.693
								c-4.854-3.895-11.49-5.47-17.576-4.173c-4.391,0.936-8.432,3.352-11.411,6.702c-1.237,1.391-3.48,3.891-3.431,5.872
								c0.065,2.63,2.332,1.524,3.549,0.512C602.151,389.505,604.141,387.488,606.763,386.101z"/>
						</g>
						<path d="M610.147,403.018c-2.004,0.167-4.067-0.601-5.474-2.039c-0.374-0.382-0.8-0.848-1.331-0.78
							c-0.561,0.072-0.86,0.71-0.924,1.272c-0.143,1.27,0.401,2.563,1.296,3.474c0.895,0.912,2.11,1.466,3.361,1.723
							c1.585,0.326,3.27,0.193,4.763-0.43c1.493-0.623,2.784-1.742,3.565-3.159c0.346-0.629,0.697-1.581,0.23-2.248
							c-0.54-0.77-1.076,0.102-1.526,0.494C613.008,402.284,611.603,402.897,610.147,403.018z"/>
						<polygon points="594.667,446.102 618.354,446.223 594.629,453.597 						"/>
						<path style="fill:#FFFFFF;" d="M621.29,414.346c0.471,1.387,0.589,2.957-0.019,4.29c-0.608,1.333-2.063,2.331-3.509,2.102
							c-1.178-0.186-2.138-1.133-2.597-2.234c-0.459-1.101-0.485-2.336-0.362-3.523c0.151-1.463,0.516-2.891,0.921-4.301
							c0.2-0.696,0.413-1.387,0.616-2.082c0.186-0.637,0.253-1.597,0.583-2.161c0.421-0.719,0.529,0.002,0.754,0.609
							c0.406,1.098,0.826,2.104,1.421,3.12C619.894,411.523,620.781,412.846,621.29,414.346z"/>
					</g>
				</g>
			</g>
			<g>
				<path style="fill:none;stroke:#000000;stroke-width:2;stroke-linecap:round;stroke-linejoin:round;stroke-miterlimit:10;" d="
					M682.027,340.54c-21.953-5.884-28.898,34.048-57.996,7.906c-18.106-20.415-12.53-50.264-19.321-74.852
					c-6.145-21.916-23.76-46.58-10.558-68.975"/>
				<g>
					<g>
						<path style="fill:#DA8265;" d="M589.272,156.41c1.169,0.275,2.392,0.037,3.564-0.227c1.172-0.264,2.372-0.557,3.562-0.385
							c0.54,0.078,1.105,0.28,1.41,0.732c0.516,0.767,0.019,1.85-0.721,2.405c-0.74,0.555-1.67,0.791-2.457,1.277
							c-1.206,0.745-2.029,2.162-1.867,3.571c0.161,1.409,1.428,2.666,2.845,2.63c1.283-0.033,2.892-0.888,3.632,0.161
							c0.391,0.554,0.185,1.363-0.279,1.859c-0.464,0.495-1.119,0.754-1.749,1.005c-4.945,1.977-9.685,4.468-14.117,7.421
							c-1.223,0.815-2.465,1.71-3.176,2.997c-0.711,1.287-0.731,3.073,0.339,4.081c1.436,1.353,3.759,0.637,5.567-0.154
							c3.851-1.685,7.701-3.37,11.552-5.055c0.764-0.334,1.563-0.676,2.397-0.634c0.833,0.041,1.705,0.593,1.817,1.42
							c0.149,1.1-1.029,1.982-1.092,3.09c-0.059,1.057,0.97,1.921,2.018,2.069c1.048,0.148,2.092-0.226,3.085-0.594
							c3.943-1.462,7.885-2.923,11.828-4.385c1.231-0.456,2.89-0.79,3.625,0.298c0.766,1.135-0.282,2.595-1.278,3.536
							c-4.512,4.266-9.357,8.179-14.476,11.692c-3.128,2.146-6.425,4.205-8.729,7.218c-0.605,0.791-1.154,1.831-0.748,2.741
							c0.451,1.011,1.856,1.226,2.893,0.836s1.854-1.195,2.798-1.774c0.89-0.546,2.266-0.779,2.805,0.115
							c0.607,1.005-0.501,2.154-1.477,2.805c-2.563,1.709-5.126,3.418-7.689,5.126c2.097,0.452,4.273,0.697,6.505,0.697
							c16.962,0,30.713-13.751,30.713-30.713c0-16.962-13.751-30.713-30.713-30.713c-5.179,0-10.055,1.287-14.335,3.551
							C587.76,155.753,588.497,156.227,589.272,156.41z"/>
						<path style="fill:#D66B54;" d="M570.944,182.269c0,14.73,10.371,27.031,24.208,30.016c2.563-1.709,5.126-3.418,7.689-5.126
							c0.977-0.651,2.084-1.8,1.477-2.805c-0.539-0.894-1.915-0.661-2.805-0.115c-0.943,0.579-1.761,1.385-2.798,1.774
							s-2.442,0.175-2.893-0.836c-0.406-0.91,0.143-1.95,0.748-2.741c2.304-3.013,5.602-5.072,8.729-7.218
							c5.12-3.513,9.965-7.426,14.476-11.692c0.995-0.941,2.044-2.4,1.278-3.536c-0.734-1.089-2.393-0.755-3.625-0.298
							c-3.943,1.462-7.885,2.923-11.828,4.385c-0.993,0.368-2.037,0.742-3.085,0.594c-1.048-0.148-2.077-1.012-2.018-2.069
							c0.062-1.108,1.241-1.99,1.092-3.09c-0.112-0.827-0.984-1.378-1.817-1.42c-0.833-0.042-1.633,0.3-2.397,0.634
							c-3.851,1.685-7.701,3.37-11.552,5.055c-1.808,0.791-4.13,1.508-5.567,0.154c-1.07-1.008-1.05-2.795-0.339-4.081
							c0.711-1.287,1.952-2.182,3.176-2.997c4.432-2.953,9.171-5.445,14.117-7.421c0.63-0.252,1.286-0.51,1.749-1.005
							c0.464-0.495,0.67-1.304,0.279-1.859c-0.74-1.049-2.349-0.193-3.632-0.161c-1.417,0.036-2.684-1.221-2.845-2.63
							c-0.161-1.409,0.661-2.826,1.867-3.571c0.787-0.486,1.717-0.722,2.457-1.277c0.739-0.555,1.237-1.638,0.721-2.405
							c-0.305-0.453-0.87-0.654-1.41-0.732c-1.189-0.171-2.39,0.121-3.562,0.385c-1.172,0.264-2.395,0.503-3.564,0.227
							c-0.775-0.183-1.512-0.658-1.95-1.303C577.583,160.258,570.944,170.486,570.944,182.269z"/>
					</g>
					<g>
						<path d="M610.913,179.175c2.221,2.475,3.836-4.222,1.136-3.951C610.258,175.469,609.979,177.986,610.913,179.175z"/>
						<path d="M593.474,178.968c-2.532,2.157-3.239-4.696-0.599-4.067C594.617,175.382,594.558,177.913,593.474,178.968z"/>
						<path d="M616.468,170.845c0.431-0.016,0.87,0.028,1.286-0.084c0.416-0.111,0.818-0.433,0.85-0.863
							c0.043-0.577-0.557-0.977-1.095-1.189c-1.793-0.702-3.828-0.768-5.663-0.181c-1.792,0.573-5.769,3.039-5.005,5.421
							c0.81,2.53,4.729-0.879,5.775-1.574C613.777,171.604,615.041,170.898,616.468,170.845z"/>
						<path d="M588.473,170.845c-0.431-0.016-0.87,0.028-1.286-0.084c-0.416-0.111-0.818-0.433-0.85-0.863
							c-0.043-0.577,0.556-0.977,1.095-1.189c1.793-0.702,3.828-0.768,5.663-0.181c1.792,0.573,5.769,3.039,5.005,5.421
							c-0.81,2.53-4.729-0.879-5.774-1.574C591.165,171.604,589.9,170.898,588.473,170.845z"/>
						<path d="M602.084,190.544c3.001-0.57,6.189-0.54,9.016,0.617c0.906,0.371,1.79,0.874,2.396,1.643
							c0.606,0.769,0.889,1.846,0.523,2.755c-0.57,1.413-2.346,1.852-3.868,1.904c-3.852,0.131-7.79-0.965-11.513,0.03
							c-1.723,0.46-3.671,1.492-5.445,0.632c-1.25-0.606-2.043-2.144-1.253-3.394c0.793-1.255,2.69-1.846,3.99-2.345
							C597.928,191.618,599.978,190.943,602.084,190.544z"/>
					</g>
				</g>
			</g>
		</g>
		<g>
			<defs>
				<rect id="SVGID_00000049906803386939990380000009576762413532387743_" x="505" y="446.102" width="245" height="46.09"/>
			</defs>
			<clipPath id="SVGID_00000164500657069503804010000004956949108394124439_">
				<use xlink:href="#SVGID_00000049906803386939990380000009576762413532387743_"  style="overflow:visible;"/>
			</clipPath>
			<g style="clip-path:url(#SVGID_00000164500657069503804010000004956949108394124439_);">
				<path style="fill:#EDBC5B;" d="M539.979,482.195c2.693-1.289,5.424-2.52,8.087-3.87c1.841-0.933,3.089-2.45,4.95-3.344
					c1.716-0.824,3.672-1.043,5.393-1.857c4.315-2.04,6.071-7.107,7.867-11.529c1.547-3.809,3.561-7.648,6.957-9.965
					c3.396-2.317,8.502-2.574,11.319,0.422c2.355,2.504,2.454,6.294,2.754,9.719c0.299,3.424,1.311,7.336,4.44,8.759
					c2.387,1.085,5.161,0.312,7.78,0.421c6.007,0.249,11.219,6.016,10.861,12.017"/>
				<path style="fill:#DA8265;" d="M509.34,486.685c2.522-1.216,4.846-3.176,6.576-5.371c1.011-1.283,2.207-2.539,3.776-2.995
					c2.075-0.602,4.359,0.324,6.44-0.256c2.158-0.601,3.543-2.628,4.867-4.435c1.324-1.807,3.065-3.68,5.305-3.705
					c2.175-0.024,3.959,1.739,5.078,3.604c1.119,1.865,1.877,3.986,3.383,5.555c2.664,2.775,6.891,3.124,10.711,3.579
					c3.82,0.455,8.124,1.548,9.893,4.964"/>
				<path style="fill:#D66B54;" d="M655.21,484.917c0.954-3.725,2.807-7.292,5.69-9.836c2.883-2.544,6.863-3.962,10.652-3.309
					c3.049,0.525,5.745,2.296,8.738,3.08c3.682,0.965,7.753,0.333,10.97-1.702c3.485-2.205,5.798-5.811,7.971-9.316
					c2.172-3.505,4.421-7.136,7.838-9.445c3.417-2.309,8.365-2.907,11.516-0.247c2.008,1.696,2.912,4.318,3.993,6.714
					c1.081,2.396,2.661,4.876,5.19,5.593c1.831,0.519,3.772-0.003,5.673-0.092c5.086-0.24,9.901,2.714,13.161,6.625
					c3.26,3.911,5.232,8.708,7.155,13.423"/>
			</g>
		</g>
	</g>
</g>
<g id="TEXTS">
	<text transform="matrix(1 0 0 1 31.8665 203.0756)" style="fill:#FFFFFF; font-family:'TitanOne'; font-size:21px;">Better</text>
	<text transform="matrix(1 0 0 1 69.6537 148.5649)" style="fill:#FFFFFF; font-family:'TitanOne'; font-size:21px;">Feeling</text>
</g>
</svg>
